<svg width="481" height="401" viewBox="0 0 481 401" fill="none" xmlns="http://www.w3.org/2000/svg">
<g clip-path="url(#clip0)">
<path opacity="0.1" d="M341.854 400.995C368.992 400.995 390.992 398.826 390.992 396.15C390.992 393.475 368.992 391.305 341.854 391.305C314.715 391.305 292.715 393.475 292.715 396.15C292.715 398.826 314.715 400.995 341.854 400.995Z" fill="#6397FF"/>
<path opacity="0.1" d="M210.588 5.86573C232.23 -2.18034 258.577 4.73957 281.077 14.8319C351.742 46.537 403.224 106.722 444.127 168.038C458.936 190.24 473.003 213.42 478.571 238.205C489.907 288.652 460.34 340.877 410.056 359.179C392.956 365.409 374.17 367.963 355.355 369.386C321.898 371.921 287.257 370.915 254.069 361.527C230.4 354.818 208.011 344.026 186.536 332.103C126.565 298.788 71.7963 255.524 32.3597 202.676C15.0634 179.496 0.431062 153.364 0.00943448 126.619C-0.412193 99.8739 17.0135 72.9994 45.6841 68.4516C57.5376 66.5731 70.0762 68.5283 82.3082 70.541C100.318 73.5073 118.573 76.6271 136.377 75.3332C154.771 73.9866 178.693 66.7983 182.047 49.235C185.597 30.3777 188.975 13.9022 210.588 5.86573Z" fill="#6397FF"/>
<path d="M116.915 368.428C116.915 368.428 140.037 367.033 137.311 383.24C137.311 383.24 137.852 386.115 135.256 387.405C135.256 387.405 135.217 386.202 132.884 386.609C132.055 386.752 131.212 386.793 130.373 386.734C129.239 386.655 128.161 386.209 127.302 385.464C127.302 385.464 120.801 382.78 118.276 372.151C118.276 372.151 116.402 369.836 116.479 369.237L120.379 370.905C120.379 370.905 119.047 373.723 120.096 376.061C120.096 376.061 120.221 371.011 120.973 371.126C121.122 371.149 123 372.084 123 372.084C123 372.084 120.705 376.986 122.434 380.552C122.434 380.552 121.778 374.509 123.714 372.439L126.464 374.044C126.464 374.044 123.781 379.109 125.601 383.24C125.601 383.24 125.122 376.9 127.039 374.432L129.53 376.349C129.53 376.349 127.01 381.342 128.548 384.774C128.548 384.774 128.744 377.389 130.067 376.833C130.067 376.833 132.247 378.75 132.577 379.545C132.577 379.545 130.853 383.168 131.921 385.08C131.921 385.08 132.577 380.164 133.119 380.14C133.119 380.14 135.284 383.398 135.514 385.631C135.514 385.631 135.419 382.31 133.641 379.828C133.641 379.828 135.74 380.188 136.966 381.549C136.966 381.549 136.626 379.243 133.109 379.042C133.109 379.042 131.317 376.574 130.833 376.421C130.833 376.421 134.336 376.129 136.458 377.073C136.458 377.073 134.59 374.897 130.191 375.884L127.733 373.881C127.733 373.881 132.347 373.248 134.297 373.948C134.297 373.948 132.05 372.031 127.072 373.426L124.399 371.825C124.399 371.825 128.328 370.977 130.67 371.284C130.67 371.284 128.198 369.951 123.613 371.394L121.696 370.536C121.696 370.536 124.571 369.971 125.419 369.88C126.267 369.789 126.306 369.558 126.306 369.558C124.482 369.253 122.609 369.46 120.896 370.158C120.896 370.158 116.843 368.705 116.915 368.428Z" fill="#6397FF"/>
<path opacity="0.1" d="M132.841 391.583C141.881 391.583 149.208 390.345 149.208 388.818C149.208 387.291 141.881 386.053 132.841 386.053C123.802 386.053 116.475 387.291 116.475 388.818C116.475 390.345 123.802 391.583 132.841 391.583Z" fill="#6397FF"/>
<path d="M85.9405 357.525C85.9405 357.525 98.9774 356.739 97.4394 365.878C97.5207 366.341 97.4526 366.819 97.245 367.241C97.0375 367.663 96.7012 368.008 96.2847 368.226C96.2847 368.226 96.2608 367.551 94.948 367.781C94.4813 367.86 94.0067 367.883 93.5346 367.848C92.8934 367.808 92.2834 367.557 91.8002 367.134C91.8002 367.134 88.1397 365.615 86.7023 359.624C86.7023 359.624 85.6482 358.316 85.6866 357.981L87.8905 358.939C87.8905 358.939 87.1383 360.53 87.7276 361.848C87.7276 361.848 87.7995 358.997 88.2068 359.064C88.293 359.064 89.3518 359.615 89.3518 359.615C89.3518 359.615 88.0582 362.38 89.0356 364.407C89.0356 364.407 88.6619 361 89.7543 359.83L91.3019 360.736C91.3019 360.736 89.7926 363.611 90.8228 365.921C90.8228 365.921 90.5592 362.346 91.6325 360.957L93.0363 362.049C93.0363 362.049 91.5989 364.862 92.4853 366.798C92.4853 366.798 92.5955 362.634 93.3429 362.322C93.3429 362.322 94.5695 363.405 94.7563 363.851C94.7563 363.851 93.7981 365.892 94.3874 366.971C94.3874 366.971 94.7564 364.201 95.063 364.186C95.063 364.186 96.2847 366.022 96.4093 367.282C96.3482 366.118 95.9849 364.99 95.3552 364.009C96.0601 364.138 96.7116 364.471 97.2286 364.968C97.2286 364.968 97.0418 363.669 95.0534 363.554C95.0534 363.554 94.0425 362.159 93.7742 362.078C93.7742 362.078 95.7481 361.91 96.9459 362.442C96.9459 362.442 95.8919 361.215 93.41 361.771L92.0253 360.64C92.0253 360.64 94.627 360.286 95.729 360.679C95.729 360.679 94.4593 359.596 91.6516 360.386L90.1472 359.481C91.3062 359.227 92.4932 359.126 93.6783 359.179C93.6783 359.179 92.2889 358.426 89.7016 359.241L88.6236 358.762C88.6236 358.762 90.2478 358.441 90.7221 358.393C91.1965 358.345 91.2252 358.211 91.2252 358.211C90.196 358.04 89.1396 358.158 88.1732 358.551C88.1732 358.551 85.9022 357.683 85.9405 357.525Z" fill="#6397FF"/>
<path opacity="0.1" d="M94.9193 370.579C100.016 370.579 104.147 369.88 104.147 369.017C104.147 368.154 100.016 367.455 94.9193 367.455C89.8229 367.455 85.6914 368.154 85.6914 369.017C85.6914 369.88 89.8229 370.579 94.9193 370.579Z" fill="#6397FF"/>
<path d="M406.669 366.309C406.669 366.309 422.408 365.351 420.564 376.373C420.658 376.933 420.573 377.508 420.322 378.018C420.071 378.527 419.666 378.944 419.164 379.21C419.164 379.21 419.136 378.39 417.55 378.668C416.985 378.764 416.411 378.792 415.839 378.75C415.067 378.7 414.333 378.396 413.75 377.887C413.75 377.887 409.323 376.061 407.603 368.825C407.603 368.825 406.329 367.249 406.381 366.846L409.036 367.977C409.036 367.977 408.13 369.894 408.844 371.49C408.844 371.49 408.93 368.049 409.438 368.135C409.544 368.135 410.818 368.797 410.818 368.797C410.818 368.797 409.256 372.151 410.435 374.547C410.435 374.547 409.989 370.435 411.307 369.027L413.175 370.114C413.175 370.114 411.35 373.565 412.591 376.378C412.591 376.378 412.27 372.065 413.549 370.383L415.245 371.705C415.245 371.705 413.53 375.103 414.574 377.456C414.574 377.456 414.713 372.434 415.614 372.05C415.614 372.05 417.095 373.359 417.32 373.895C417.32 373.895 416.146 376.363 416.874 377.667C416.874 377.667 417.32 374.312 417.689 374.312C417.689 374.312 419.164 376.531 419.318 378.05C419.246 376.646 418.809 375.284 418.048 374.101C418.9 374.263 419.686 374.669 420.31 375.271C420.31 375.271 420.08 373.704 417.679 373.565C417.679 373.565 416.462 371.883 416.136 371.782C416.136 371.782 418.532 371.581 419.969 372.223C419.969 372.223 418.695 370.747 415.7 371.418L414.028 370.052C414.028 370.052 417.167 369.621 418.499 370.095C418.499 370.095 416.965 368.787 413.578 369.741L411.757 368.653C411.757 368.653 414.431 368.078 416.026 368.284C416.026 368.284 414.344 367.378 411.235 368.36L409.932 367.776C409.932 367.776 411.891 367.388 412.466 367.33C413.041 367.273 413.07 367.11 413.07 367.11C411.829 366.903 410.556 367.044 409.39 367.517C409.39 367.517 406.621 366.491 406.669 366.309Z" fill="#6397FF"/>
<path opacity="0.1" d="M417.507 382.076C423.659 382.076 428.646 381.233 428.646 380.192C428.646 379.152 423.659 378.309 417.507 378.309C411.355 378.309 406.367 379.152 406.367 380.192C406.367 381.233 411.355 382.076 417.507 382.076Z" fill="#6397FF"/>
<path d="M390.987 249.97C390.685 248.282 390.51 246.575 390.465 244.861C390.465 242.805 387.671 240.984 387.671 240.984C387.671 240.984 385.946 236.992 384.797 236.403C383.647 235.814 380.096 230.59 380.096 230.59C380.056 229.56 379.681 228.571 379.028 227.772C377.964 226.374 376.993 224.907 376.12 223.383C375.641 222.798 375.88 222.386 375.161 218.979C375.123 218.801 375.08 218.629 375.027 218.466C375.027 218.389 374.979 218.322 374.951 218.245C375.713 217.48 376.245 216.516 376.485 215.462C376.725 214.409 376.663 213.309 376.307 212.289C376.177 211.883 375.943 211.519 375.626 211.234C374.816 210.573 373.523 210.846 372.689 210.218L373.576 206.298C373.786 205.34 373.897 204.128 373.058 203.61C372.744 203.461 372.412 203.35 372.071 203.279C370.634 202.8 369.8 201.281 369.426 199.819C369.067 198.412 368.97 196.95 369.139 195.506C369.302 194.117 369.709 192.765 369.858 191.371C370.128 188.792 369.507 186.197 368.099 184.02C367.552 183.08 366.745 182.318 365.775 181.825C364.889 181.427 363.859 181.346 363.03 180.866C361.248 179.731 361.339 177.033 359.916 175.485C358.493 173.937 355.973 173.942 353.898 174.474C351.823 175.006 349.758 175.911 347.631 175.686C346.261 175.533 344.977 174.91 343.602 174.766C343.208 174.729 342.812 174.746 342.423 174.819V174.776C341.407 174.958 340.473 175.523 340.233 176.486C340.18 176.715 340.157 176.951 340.166 177.186C340.166 177.747 340.301 178.331 340.31 178.868C340.328 179.081 340.303 179.296 340.236 179.499C340.169 179.702 340.063 179.89 339.922 180.052C339.649 180.344 339.246 180.497 338.964 180.799C338.849 180.915 338.758 181.052 338.698 181.204C338.638 181.356 338.609 181.518 338.614 181.681C338.614 182.534 339.678 183.286 340.392 183.631H340.42C340.229 183.823 340.037 184.024 339.86 184.23C337.813 186.542 336.685 189.524 336.688 192.612C336.705 195.106 337.451 197.541 338.833 199.616C340.216 201.692 342.175 203.318 344.469 204.295L344.368 204.607C344.167 205.223 343.931 205.828 343.664 206.418C343.168 206.252 342.642 206.195 342.122 206.253C341.603 206.311 341.102 206.482 340.655 206.754C339.285 207.712 336.607 207.635 335.893 207.458C335.179 207.281 327.748 206.342 327.149 206.576C326.55 206.811 325.366 205.757 324.595 207.166C323.824 208.575 323.464 209.337 322.678 209.691C321.893 210.046 320.537 211.158 320.719 211.393C320.901 211.627 318.754 213.036 318.754 213.036C318.754 213.036 316.91 214.953 315.841 215.207C314.773 215.461 312.511 216.913 312.511 216.913L309.891 218.964C309.891 218.964 307.931 219.261 308.525 217.91C309.119 216.559 307.452 214.857 307.452 214.857C307.452 214.857 304.122 208.105 304.122 206.711C304.122 205.316 301.386 199.369 301.386 199.369L301.051 199.335L300.898 198.899C300.394 197.486 299.743 195.751 299.245 194.735C298.286 192.794 297.697 192.593 297.697 192.593C297.697 192.593 286.16 183.929 278.666 186.569C271.173 189.21 292.345 197.078 294.247 197.903C294.913 198.19 295.392 199.12 295.728 200.208C294.04 201.022 292.619 202.3 291.631 203.893C291.631 203.893 296.212 214.047 296.332 216.573C296.451 219.098 299.484 226.157 299.484 226.157C299.484 226.157 300.615 231.386 306.738 231.088C306.738 231.088 315.185 232.641 317.03 231.088C318.874 229.536 320.537 228.319 321.433 228.141C322.092 227.925 322.671 227.516 323.095 226.967C323.095 226.967 320.302 244.578 318.932 246.107C317.561 247.636 305.454 267.408 309.8 270.945C313.241 273.61 316.879 276.013 320.681 278.133C321.049 278.315 322.156 276.47 323.737 275.162C323.737 275.493 323.737 275.828 323.737 276.183C323.766 283.218 324.696 293.914 325.98 296.31C327.896 299.832 327.11 306.642 327.11 306.642C328.118 307.116 329.212 307.379 330.325 307.413C330.383 307.643 330.45 307.893 330.512 308.132C331.561 312.095 333.262 318.225 334.129 319.854C335.437 322.322 336.386 330.133 336.386 330.133C336.386 330.133 337.162 337.801 336.865 338.879C336.75 339.286 337.253 342.478 338.044 346.546C337.565 352.053 336.654 362.667 336.501 366.506C336.501 366.578 336.501 366.65 336.501 366.717V366.784C336.503 366.827 336.503 366.87 336.501 366.913C336.501 366.999 336.501 367.076 336.501 367.148C336.486 367.39 336.496 367.632 336.53 367.872C336.589 368.237 336.561 368.612 336.448 368.964C336.109 370.025 335.678 371.055 335.16 372.041C334.941 372.525 334.749 373.021 334.585 373.526C334.105 373.737 333.521 374.25 333.195 375.501C332.601 377.791 331.71 384.127 331.71 384.127C331.71 384.127 331.351 388.004 330.641 388.885C329.932 389.767 329.204 395.283 334.268 395.987C339.333 396.692 341.522 393.304 341.522 393.304L341.345 377.93V377.902C341.447 377.772 341.536 377.633 341.609 377.485V377.446C341.642 377.374 341.68 377.298 341.714 377.212L341.757 377.097L341.834 376.91C341.831 376.887 341.831 376.865 341.834 376.843C342.325 375.37 342.473 373.804 342.265 372.266V372.189V372.07C342.265 372.031 342.265 371.988 342.265 371.95V371.71C342.265 371.681 342.265 371.648 342.265 371.619C342.265 371.517 342.275 371.411 342.294 371.303C342.294 371.303 342.294 371.264 342.294 371.245L342.322 371.058V370.977C342.322 370.915 342.322 370.852 342.361 370.785C342.359 370.769 342.359 370.753 342.361 370.737C342.409 370.517 342.466 370.258 342.528 370.047V369.995L342.6 369.765C342.672 369.52 342.754 369.285 342.84 369.027V368.979C342.84 368.902 342.893 368.825 342.921 368.753V368.725C343.008 368.49 343.099 368.245 343.185 368.044L343.209 367.982L343.285 367.79L343.309 367.733L343.492 367.306L344.895 371.643C344.895 371.643 345.672 374.873 345.255 375.635C344.838 376.397 345.734 379.569 346.323 379.627L345.772 383.619C345.474 385.82 345.297 388.035 345.24 390.256C345.202 390.51 345.164 390.735 345.135 390.888C344.752 392.935 345.672 396.107 345.672 396.107C350.367 401.661 355.963 396.538 355.963 396.538C355.963 396.538 356.615 393.601 355.963 393.016C355.311 392.432 355.604 390.313 355.604 390.313C355.604 390.313 355.901 385.085 355.958 381.271C356.016 377.456 352.839 374.082 352.839 374.082L352.662 374.24C352.082 372.745 351.421 371.001 351.56 370.22C351.799 368.868 350.904 354.602 350.904 354.602C351.235 350.778 351.305 346.935 351.114 343.101C351.191 342.454 351.263 341.817 351.335 341.184C351.694 338.117 351.986 335.496 352.101 334.12V333.957C352.13 333.588 352.144 333.325 352.14 333.2C352.14 332.721 352.14 332.175 352.188 331.576C352.298 329.927 352.556 328.092 352.556 328.092L353.802 320.515C353.802 320.515 354.76 316.816 356.126 314.765L356.289 314.506C356.342 314.415 356.394 314.314 356.452 314.209L356.476 314.166C356.528 314.065 356.586 313.96 356.639 313.849L356.663 313.806C356.854 313.428 357.06 312.992 357.276 312.512C357.276 312.474 357.309 312.44 357.324 312.402L357.487 312.038C357.487 311.99 357.525 311.942 357.549 311.894C357.573 311.846 357.65 311.65 357.702 311.53C357.726 311.482 357.747 311.432 357.765 311.381C357.827 311.238 357.894 311.089 357.956 310.936L358.047 310.715C358.09 310.605 358.138 310.495 358.186 310.385L358.301 310.092C358.335 310.02 358.363 309.949 358.392 309.877L358.522 309.546C358.522 309.498 358.565 309.445 358.584 309.397C358.924 308.549 359.25 307.711 359.542 306.949C359.633 306.709 359.724 306.469 359.806 306.259C362.853 306.445 364.923 306.613 364.923 306.613C364.923 306.613 365.881 299.746 365.574 295.227C365.373 292.141 365.948 288.259 366.326 286.122C366.37 285.887 366.408 285.676 366.446 285.484L366.528 285.552C368.018 286.726 369.086 282.849 369.086 282.849C369.086 282.849 368.684 279.231 368.128 274.846L368.07 274.41C368.929 274.593 369.798 274.726 370.672 274.807C370.672 274.807 371.151 274.764 371.808 274.683C373.623 275.734 375.54 276.601 377.528 277.271L380.695 271.424C381.29 270.212 381.988 269.053 382.78 267.959C383.738 266.785 387.12 263.028 387.063 262.324C387.005 261.619 388.194 257.565 389.382 255.744C390.57 253.923 391.044 250.262 390.987 249.97ZM377.782 254.431C376.532 254.958 375.344 257.896 375.286 258.778C375.229 259.659 373.916 263.531 372.55 264.001C371.29 264.432 368.885 266.646 368.502 267.001C368.109 267.035 367.663 267.087 367.198 267.164C366.676 263.46 366.159 260.393 365.828 259.774C364.87 258.011 366.877 252.375 366.877 252.375C366.877 252.375 367.074 246.682 368.315 245.331C369.556 243.979 369.273 240.572 369.273 240.572C369.273 240.572 369.57 239.163 369.69 238.521C369.81 237.879 371.458 238.521 371.472 238.521C371.472 238.521 374.682 240.28 375.161 242.92C375.641 245.561 379.148 250.142 379.148 250.142C379.148 250.142 378.611 251.728 379.148 252.538C379.684 253.348 379.033 253.904 377.782 254.431Z" fill="url(#paint0_linear)"/>
<path d="M291.766 204.252C292.742 202.641 294.172 201.353 295.877 200.551C297.581 199.748 299.484 199.465 301.348 199.738V206.596H297.184L293.926 205.771L291.766 204.252Z" fill="#4C4981"/>
<path opacity="0.1" d="M291.766 204.252C292.742 202.641 294.172 201.353 295.877 200.551C297.581 199.748 299.484 199.465 301.348 199.738V206.596H297.184L293.926 205.771L291.766 204.252Z" fill="black"/>
<path d="M301.66 201.554L296.557 205.129C296.557 205.129 296.514 204.415 296.385 203.438C296.131 201.588 295.56 198.813 294.329 198.276C292.456 197.452 271.6 189.603 278.997 186.962C286.395 184.322 297.745 192.976 297.745 192.976C297.745 192.976 298.33 193.178 299.264 195.109C299.743 196.125 300.4 197.855 300.893 199.268C301.348 200.543 301.66 201.554 301.66 201.554Z" fill="#FFB0B1"/>
<path d="M342.424 207.06L343.003 206.787L344.632 208.647L343.3 211.488L341.029 210.578L341.556 208.306L342.424 207.06Z" fill="#4C4981"/>
<path d="M334.705 373.498C334.705 373.498 333.239 373.325 332.654 375.611C332.07 377.897 331.188 384.237 331.188 384.237C331.188 384.237 330.839 388.104 330.134 388.986C329.43 389.868 328.73 395.374 333.708 396.074C338.687 396.773 340.857 393.395 340.857 393.395L340.68 378.026L334.705 373.498Z" fill="#444053"/>
<path d="M352.078 374.188C352.078 374.188 355.211 377.542 355.154 381.347C355.096 385.152 354.799 390.371 354.799 390.371C354.799 390.371 354.512 392.484 355.154 393.069C355.796 393.654 355.154 396.586 355.154 396.586C355.154 396.586 349.644 401.7 345.015 396.155C345.015 396.155 344.115 392.987 344.488 390.946C344.862 388.905 345.906 379.728 345.906 379.728L352.078 374.188Z" fill="#444053"/>
<path d="M359.84 304.112C359.84 304.112 356.678 312.958 355.327 315.009C353.976 317.06 353.046 320.76 353.046 320.76L351.815 328.317C351.574 330.007 351.437 331.709 351.403 333.416C351.46 335.117 348.356 359.902 348.356 359.902L343.435 366.175C343.435 366.175 341.269 370.57 341.619 372.405C341.969 374.24 341.384 377.154 340.661 378.031C340.661 378.031 340.546 383.782 340.369 385.061C340.191 386.341 341.015 389.987 340.369 390.63C339.722 391.272 331.112 390.984 330.877 389.925C330.642 388.866 331.931 383.772 331.931 383.772L332.693 378.85C332.693 378.85 334.217 376.157 333.867 375.275C333.517 374.394 334.509 372.347 334.566 372.17C334.624 371.993 336.21 369.122 335.918 368.011C335.625 366.899 337.762 343.254 337.762 343.254L343.794 300.886L359.84 304.112Z" fill="#FFB0B1"/>
<path opacity="0.1" d="M359.84 304.112C359.84 304.112 359.361 305.444 358.705 307.193C357.66 309.953 356.156 313.754 355.327 315.009C353.98 317.06 353.041 320.76 353.041 320.76L351.81 328.322C351.572 330.012 351.436 331.714 351.403 333.421C351.403 334.092 350.952 338.371 350.377 343.302C349.491 350.84 348.356 359.907 348.356 359.907L343.435 366.18C343.435 366.18 343.186 366.659 342.874 367.416C342.256 368.854 341.384 371.188 341.619 372.391C341.969 374.207 341.384 377.135 340.661 378.017C340.661 378.017 340.541 383.767 340.369 385.047C340.196 386.326 341.015 389.968 340.369 390.615C339.722 391.262 331.112 390.97 330.877 389.916C330.642 388.861 331.931 383.763 331.931 383.763L332.693 378.836C332.693 378.836 334.217 376.143 333.862 375.261C333.508 374.379 334.509 372.333 334.566 372.156C334.624 371.979 336.21 369.108 335.918 367.996C335.692 367.148 336.876 353.265 337.427 346.681C337.614 344.61 337.733 343.264 337.733 343.264L342.922 306.814L343.344 303.877L343.766 300.896L359.84 304.112Z" fill="black"/>
<path d="M354.569 392.245C354.622 392.892 346.304 393.831 345.116 393.126C343.928 392.422 345.116 383.691 345.116 383.691L345.658 379.708C345.078 379.646 344.196 376.483 344.604 375.721C345.011 374.959 344.254 371.739 344.254 371.739L342.874 367.426L342.031 364.785C340.66 361.762 338.677 353.136 337.446 346.695C336.669 342.65 336.176 339.464 336.286 339.056C336.578 338.002 335.807 330.325 335.807 330.325C335.807 330.325 334.849 322.528 333.584 320.07C332.726 318.44 331.054 312.321 330.019 308.372C329.492 306.345 329.128 304.888 329.128 304.888C329.128 304.888 337.982 304.145 343.353 303.887C345.821 303.767 347.555 303.752 347.354 303.954C347.153 304.155 347.1 305.228 347.109 306.781C347.133 310.802 347.694 317.875 348.288 319.777C349.107 322.413 349.927 330.32 349.577 331.087C349.227 331.854 349.342 336.948 349.342 336.948C349.946 339.017 350.293 341.153 350.377 343.307C350.564 347.123 350.497 350.948 350.176 354.755C350.176 354.755 351.053 368.998 350.818 370.344C350.583 371.691 352.691 375.913 352.691 376.732C352.691 377.552 353.276 383.12 353.276 383.12C353.276 383.12 354.531 391.603 354.569 392.245Z" fill="#FFB0B1"/>
<path d="M359.193 221.068L358.187 222.156L357.531 222.865L353.698 226.986L343.794 228.103L338.524 226.694L337.221 226.344C337.221 226.344 337.221 223.699 337.455 220.527C337.791 216.458 338.591 211.517 340.503 210.171C341.46 209.421 342.224 208.453 342.731 207.348C343.113 206.586 343.433 205.794 343.689 204.981C343.727 204.875 343.756 204.775 343.789 204.669C344.221 203.249 344.532 201.795 344.719 200.323C344.719 200.323 345.984 199.623 347.742 198.808C352.327 196.666 360.247 193.71 357.492 200.323C357.087 201.291 356.742 202.283 356.457 203.294C356.414 203.442 356.376 203.591 356.342 203.735C355.423 207.415 356.031 209.648 356.716 210.88C356.832 211.093 356.965 211.297 357.114 211.489C357.301 211.746 357.525 211.973 357.78 212.164L358.92 219.405L359.016 220.004L359.193 221.068Z" fill="#FFB0B1"/>
<path opacity="0.1" d="M357.497 200.677C356.975 201.933 357.751 199.652 357.497 200.677C355.408 202.163 350.487 206.394 347.723 206.394C345.854 206.394 345.294 206.054 343.693 205.33C344.178 203.814 344.522 202.256 344.723 200.677C344.723 200.677 361.306 191.534 357.497 200.677Z" fill="black"/>
<path d="M361.718 192.976C361.715 196.132 360.546 199.176 358.434 201.521C356.323 203.867 353.419 205.348 350.281 205.68C349.84 205.723 349.395 205.752 348.944 205.752C346.418 205.752 343.948 205.003 341.848 203.599C339.747 202.195 338.11 200.2 337.143 197.865C336.176 195.531 335.923 192.962 336.416 190.484C336.909 188.006 338.126 185.729 339.912 183.942C341.699 182.156 343.975 180.939 346.452 180.446C348.93 179.953 351.498 180.206 353.832 181.173C356.166 182.14 358.161 183.777 359.565 185.878C360.968 187.979 361.718 190.449 361.718 192.976Z" fill="#FFB0B1"/>
<path opacity="0.1" d="M363.534 249.61L361.713 254.359C361.713 254.359 360.232 254.422 357.923 254.493C350.128 254.743 332.951 255.059 332.185 253.056C332.013 252.548 331.922 252.016 331.916 251.479C331.816 248.427 333.239 243.74 333.239 243.74C333.239 243.74 334.058 234.362 334.058 233.954C334.058 233.547 333.354 226.977 333.354 226.977L334.762 221.705L338.686 218.95C338.686 218.95 340.445 221.648 341.499 221.878C342.553 222.108 343.961 223.407 343.961 223.407C343.961 223.407 347.416 225.515 348.532 224.341C349.649 223.167 358.316 218.011 358.316 218.011L362.887 223.052L363.534 249.61Z" fill="black"/>
<path d="M363.534 250.339L361.713 255.083C361.713 255.083 360.233 255.15 357.923 255.222H357.698C356.701 255.255 355.561 255.289 354.344 255.313C348.149 255.457 339.616 255.495 335.155 254.834C333.478 254.594 332.381 254.249 332.199 253.779C332.098 253.497 332.028 253.205 331.988 252.907C331.96 252.687 331.94 252.428 331.931 252.203C331.83 249.15 333.253 244.463 333.253 244.463C333.253 244.463 334.073 235.085 334.073 234.678C334.073 234.27 333.368 227.7 333.368 227.7L334.777 222.429L337.474 220.541L338.701 219.678C339.113 220.296 339.563 220.888 340.047 221.451C340.425 221.959 340.931 222.358 341.513 222.606C342.572 222.841 343.976 224.135 343.976 224.135C343.976 224.135 347.43 226.244 348.547 225.069C349.395 224.173 354.665 220.948 357.099 219.477C357.847 219.022 358.33 218.739 358.33 218.739L358.944 219.42L362.901 223.78L363.534 250.339Z" fill="white"/>
<path opacity="0.1" d="M301.66 201.554L296.557 205.129C296.557 205.129 296.514 204.415 296.385 203.438C298.905 202.374 300.438 200.021 300.879 199.268C301.348 200.543 301.66 201.554 301.66 201.554Z" fill="black"/>
<path d="M319.589 213.688L318.477 213.391C318.477 213.391 316.656 215.308 315.602 215.562C314.548 215.816 312.325 217.258 312.325 217.258L309.743 219.309C309.743 219.309 307.826 219.606 308.396 218.255C308.967 216.904 307.342 215.207 307.342 215.207C307.342 215.207 304.06 208.469 304.06 207.06C304.06 205.652 301.348 199.738 301.348 199.738C301.348 199.738 297.947 206.361 291.737 204.252C291.737 204.252 296.251 214.388 296.366 216.908C296.481 219.429 299.47 226.459 299.47 226.459C299.47 226.459 300.587 231.678 306.619 231.386C306.619 231.386 314.941 232.933 316.757 231.386C318.573 229.838 320.211 228.62 321.069 228.443C321.927 228.266 322.708 227.274 322.708 227.274V220.306L319.589 213.688Z" fill="#4C4981"/>
<path opacity="0.1" d="M309.158 220.306C309.158 220.306 310.624 225.76 309.685 226.344L309.158 220.306Z" fill="black"/>
<path opacity="0.1" d="M357.924 255.198C350.128 255.447 332.952 255.759 332.185 253.76C332.013 253.252 331.923 252.72 331.917 252.184L357.382 253.525L357.924 255.198Z" fill="black"/>
<path opacity="0.1" d="M359.84 304.112C359.84 304.112 359.361 305.444 358.704 307.193C355.47 306.996 351.187 306.79 347.119 306.762C345.682 306.762 344.273 306.762 342.941 306.81C340.114 306.896 337.671 307.126 336.114 307.567C334.145 308.173 332.087 308.439 330.029 308.353C329.502 306.326 329.138 304.869 329.138 304.869C329.138 304.869 337.992 304.126 343.363 303.867L343.784 300.886L359.84 304.112Z" fill="black"/>
<path d="M366.696 282.662L365.699 284.77C365.699 284.77 365.56 285.398 365.383 286.395C365.009 288.542 364.425 292.414 364.645 295.5C364.937 300.014 363.998 306.867 363.998 306.867C363.998 306.867 342.438 305.051 336.113 306.867C329.789 308.683 326.675 306.867 326.675 306.867C326.675 306.867 327.441 300.072 325.563 296.554C324.284 294.158 323.383 283.462 323.354 276.427C323.354 273.183 323.517 270.725 323.925 270.226C325.213 268.645 330.719 252.821 330.719 252.821L331.974 252.888L335.328 253.065L354.397 254.072L357.391 254.23L357.708 255.188L366.696 282.662Z" fill="#444053"/>
<path d="M376.188 275.627L376.365 277.506C376.365 277.506 366.921 274.429 367.4 270.648C367.88 266.867 367.4 267.294 367.4 267.294L374.99 267.936L376.188 275.627Z" fill="#4C4981"/>
<path opacity="0.1" d="M376.188 275.627L376.365 277.506C376.365 277.506 366.921 274.429 367.4 270.648C367.88 266.867 367.4 267.294 367.4 267.294L374.99 267.936L376.188 275.627Z" fill="black"/>
<path opacity="0.1" d="M315.459 221.82C316.423 222.64 317.56 223.231 318.784 223.55C318.43 223.473 318.1 223.309 317.826 223.071C317.15 222.592 316.508 222.07 315.857 221.562C315.33 221.15 314.673 220.464 314.026 220.297C314.45 220.853 314.93 221.363 315.459 221.82Z" fill="black"/>
<path opacity="0.1" d="M315.602 224.288C315.906 224.631 316.152 225.022 316.33 225.443C316.633 226.636 316.614 227.888 316.278 229.071L314.764 225.419C314.5 224.796 314.237 224.173 313.92 223.579C313.781 223.325 312.909 222.266 313.01 222.046C313.278 221.423 315.319 223.939 315.602 224.288Z" fill="black"/>
<path opacity="0.1" d="M357.847 244.511C358.879 244.386 359.844 243.935 360.602 243.222C359.045 243.419 357.569 244.032 356.036 244.353C354.612 244.684 353.12 244.546 351.781 243.96C353.544 244.823 355.969 244.852 357.847 244.511Z" fill="black"/>
<path opacity="0.1" d="M353.444 233.782C353.165 233.823 352.881 233.753 352.653 233.585C351.484 232.914 350.331 232.215 349.194 231.486C348.087 230.772 346.751 230.049 345.807 229.148C348.13 231.247 350.296 233.02 353.444 233.782Z" fill="black"/>
<path opacity="0.1" d="M356.692 246.213C357.306 246.24 357.921 246.19 358.522 246.064C359.131 245.937 359.668 245.585 360.027 245.077C359.809 245.027 359.581 245.063 359.39 245.177C357.533 245.959 355.494 246.203 353.506 245.882C354.459 246.289 355.681 246.208 356.692 246.213Z" fill="black"/>
<path opacity="0.1" d="M345.596 273.423C344.376 273.79 343.122 274.036 341.854 274.156C340.866 274.201 339.877 274.182 338.893 274.098L334.101 273.796L331.706 273.643C331.423 273.643 330.269 273.643 330.839 273.073C331.126 272.795 332.726 272.972 333.138 272.958C333.934 272.932 334.732 272.918 335.534 272.915C337.12 272.915 338.711 272.915 340.297 273.01C342.074 273.097 343.823 273.231 345.596 273.423Z" fill="black"/>
<path opacity="0.1" d="M340.043 275.795C339.229 275.761 338.179 276.245 337.341 276.351C336.403 276.461 335.458 276.498 334.514 276.461C332.647 276.416 330.802 276.039 329.066 275.349C332.722 275.536 336.387 275.646 340.043 275.795Z" fill="black"/>
<path opacity="0.1" d="M329.78 278.306C330.134 278.377 330.483 278.474 330.824 278.593C332.846 279.168 334.997 278.66 337.053 278.152C336.54 278.924 335.615 279.255 334.691 279.466C333.187 279.847 331.619 279.904 330.091 279.633C329.612 279.537 328.409 279.365 328.175 278.867C327.782 278.133 329.329 278.234 329.78 278.306Z" fill="black"/>
<path opacity="0.1" d="M341.115 282.087C341.721 282.211 342.32 282.371 342.907 282.566C345.183 283.131 347.545 282.355 349.83 281.833C352.578 281.209 355.395 280.948 358.21 281.056C357.707 281.056 356.907 281.497 356.414 281.646C355.767 281.842 355.11 282.024 354.454 282.187C353.165 282.504 351.857 282.762 350.54 282.949C347.88 283.334 345.188 283.451 342.505 283.299C341.278 283.232 339.151 283.357 338.102 282.739C339.009 282.199 340.067 281.971 341.115 282.087Z" fill="black"/>
<path opacity="0.1" d="M341.973 209.811C341.973 209.811 342.088 215.207 341.211 217.67C340.933 218.437 340.502 219.851 340.033 221.437C339.52 223.196 338.959 225.165 338.528 226.708C338.097 228.252 337.81 229.287 337.81 229.287C337.81 229.287 335.831 245.408 335.318 253.089C335.318 253.224 335.318 253.363 335.289 253.492C335.261 253.923 335.213 254.374 335.141 254.839C334.001 262.468 327.422 274.233 325.213 275.172C324.525 275.488 323.896 275.921 323.354 276.451C323.354 273.207 323.517 270.749 323.925 270.25C325.213 268.669 330.719 252.845 330.719 252.845L331.974 252.912C331.945 252.692 331.926 252.433 331.916 252.208C331.816 249.155 333.239 244.468 333.239 244.468C333.239 244.468 334.058 235.09 334.058 234.683C334.058 234.275 333.354 227.705 333.354 227.705L334.762 222.434L337.46 220.546C337.795 216.477 338.595 211.536 340.507 210.19C341.464 209.44 342.228 208.472 342.735 207.367C343.113 207.42 342.424 207.084 342.424 207.084L341.973 209.811Z" fill="black"/>
<path d="M343.003 206.787C342.515 206.62 341.996 206.564 341.483 206.622C340.97 206.68 340.476 206.851 340.038 207.123C338.686 208.081 336.051 208 335.347 207.827C334.643 207.655 327.322 206.711 326.723 206.945C326.124 207.18 324.964 206.126 324.203 207.535C323.441 208.944 323.091 209.701 322.329 210.051C321.567 210.401 320.216 211.517 320.413 211.752C320.609 211.987 318.496 213.391 318.496 213.391L322.77 227.288C322.77 227.288 320.015 244.866 318.669 246.39C317.322 247.914 305.368 267.662 309.647 271.18C313.034 273.844 316.619 276.247 320.37 278.368C320.849 278.603 322.535 275.44 324.878 274.443C327.221 273.446 334.489 260.258 334.94 252.759C335.39 245.259 337.46 228.558 337.46 228.558C337.46 228.558 339.98 219.415 340.857 216.951C341.734 214.488 341.619 209.092 341.619 209.092L343.003 206.787Z" fill="#4C4981"/>
<path opacity="0.1" d="M366.696 282.662L365.699 284.77C365.699 284.77 365.561 285.398 365.383 286.395C365.206 286.373 365.039 286.298 364.904 286.179C363.438 285.005 354.843 276.159 354.416 268.305C354.114 262.511 354.258 257.517 354.354 255.294C354.383 254.594 354.411 254.172 354.411 254.081C354.411 254.081 361.09 245.992 360.328 243.126C359.567 240.261 357.808 224.916 357.808 224.916L357.55 222.903L357.104 219.501L356.04 211.268L357.142 211.527C357.33 211.784 357.554 212.012 357.808 212.203L358.949 219.444L362.906 223.804L363.553 250.353L361.732 255.097C361.732 255.097 360.252 255.164 357.942 255.236H357.717L366.696 282.662Z" fill="black"/>
<path d="M370.385 238.837C370.385 238.837 368.746 238.191 368.631 238.837C368.516 239.484 368.219 240.884 368.219 240.884C368.219 240.884 368.511 244.286 367.261 245.633C366.01 246.979 365.823 252.663 365.823 252.663C365.823 252.663 363.849 258.289 364.784 260.048C365.124 260.685 365.651 263.881 366.178 267.715C366.513 270.111 366.844 272.742 367.136 275.148C367.668 279.518 368.066 283.136 368.066 283.136C368.066 283.136 367.007 287.004 365.541 285.83C364.074 284.655 355.479 275.809 355.057 267.955C354.77 262.439 354.885 257.647 354.981 255.284C355.019 254.283 355.057 253.717 355.057 253.717C355.057 253.717 361.736 245.628 360.975 242.757C360.213 239.887 358.454 224.547 358.454 224.547L358.148 222.175L357.817 219.626L357.741 219.065L356.682 210.918C356.869 210.961 363.442 212.447 364.309 213.314C365.176 214.182 370.538 215.423 370.538 215.423C371.346 215.642 372.081 216.075 372.666 216.675C373.251 217.275 373.664 218.021 373.863 218.835C373.916 218.998 373.954 219.17 373.992 219.348C374.697 222.75 374.471 223.157 374.951 223.747C375.43 224.336 370.385 238.837 370.385 238.837Z" fill="#4C4981"/>
<path opacity="0.1" d="M367.175 275.143C364.78 274.664 361.225 273.557 361.306 271.113C361.378 268.827 364.128 268.003 366.212 267.71C366.548 270.097 366.878 272.737 367.175 275.143Z" fill="black"/>
<path d="M374.606 273.926C374.51 274.132 374.127 274.309 373.581 274.467C372.299 274.772 370.998 274.985 369.686 275.105C369.686 275.105 361.541 274.458 361.656 270.763C361.742 268.113 365.421 267.408 367.486 267.25C367.943 267.208 368.402 267.188 368.861 267.193C368.861 267.193 374.956 273.169 374.606 273.926Z" fill="#AE6E79"/>
<path opacity="0.1" d="M374.606 273.926C374.511 274.132 374.127 274.309 373.581 274.467C371.459 271.626 368.498 267.979 367.046 267.658L367.487 267.25C367.944 267.208 368.403 267.188 368.862 267.193C368.862 267.193 374.956 273.169 374.606 273.926Z" fill="black"/>
<path d="M372.556 223.354L374.951 223.708C375.816 225.232 376.776 226.7 377.826 228.103C378.47 228.903 378.839 229.889 378.88 230.916C378.88 230.916 382.397 236.13 383.508 236.714C384.62 237.299 386.321 241.286 386.321 241.286C386.321 241.286 389.076 243.102 389.076 245.154C389.125 246.864 389.301 248.568 389.603 250.252C389.665 250.545 389.196 254.182 388.022 256.003C386.848 257.824 385.674 261.84 385.736 262.559C385.799 263.278 382.454 267.015 381.52 268.185C380.74 269.278 380.054 270.436 379.469 271.645L376.365 277.506C376.365 277.506 369.801 267.835 367.4 267.308C367.4 267.308 370.093 264.73 371.439 264.26C372.786 263.79 374.079 259.947 374.137 259.046C374.194 258.145 375.368 255.236 376.595 254.733C377.821 254.23 378.473 253.679 377.946 252.855C377.419 252.03 377.946 250.458 377.946 250.458C377.946 250.458 374.487 245.887 374.017 243.27C373.548 240.654 370.385 238.876 370.385 238.876L368.569 234.419L372.556 223.354Z" fill="#4C4981"/>
<path opacity="0.1" d="M381.27 245.23C382.596 244.111 384.265 243.478 385.999 243.438C384.888 243.63 383.719 243.874 382.904 244.65C382.584 244.986 382.297 245.352 382.046 245.743C381.769 246.141 379.507 249.016 379.172 248.561C378.611 247.895 380.815 245.618 381.27 245.23Z" fill="black"/>
<path opacity="0.1" d="M375.962 242.456C376.321 242.425 376.665 242.299 376.959 242.091C377.252 241.883 377.486 241.6 377.634 241.272C377.92 240.612 378.096 239.909 378.156 239.192C378.328 237.992 378.569 236.803 378.88 235.632C378.973 235.4 379.012 235.15 378.995 234.901C378.977 234.652 378.904 234.41 378.779 234.194C378.651 233.819 378.477 233.462 378.262 233.13C377.83 233.609 377.706 234.726 377.529 235.368C377.308 236.163 377.107 236.964 376.915 237.764C376.815 238.147 376.019 242.456 375.962 242.456Z" fill="black"/>
<path opacity="0.1" d="M373.888 218.797C373.651 219.105 373.38 219.385 373.078 219.63C372.12 220.392 370.85 221.035 370.73 222.237C370.764 222.628 370.715 223.022 370.586 223.392C370.28 223.919 369.528 223.871 368.929 223.771C368.423 223.725 367.939 223.547 367.525 223.253C366.897 222.717 366.84 221.758 366.361 221.082C366.069 220.734 365.702 220.457 365.286 220.273C364.871 220.089 364.419 220.004 363.965 220.023C363.069 219.995 362.178 220.196 361.282 220.234C360.706 220.263 360.129 220.225 359.562 220.119C359.375 220.091 359.189 220.052 359.006 220.004C358.606 219.906 358.215 219.773 357.837 219.606C357.642 219.529 357.451 219.439 357.267 219.338C356.667 219.03 356.111 218.643 355.614 218.188C354.737 217.383 354.009 216.271 354.081 215.078C354.124 214.345 354.454 213.669 354.56 212.945C354.919 210.875 353.544 208.92 352.054 207.439C351.46 206.85 350.827 206.279 350.233 205.68C349.308 204.827 348.578 203.784 348.092 202.623C347.692 201.387 347.561 200.08 347.708 198.789C347.843 197.481 347.88 196.164 347.819 194.85C347.378 190.192 343.401 186.622 339.424 184.681L339.247 184.59C340.427 183.236 341.879 182.146 343.508 181.391C345.138 180.636 346.908 180.234 348.704 180.21C350.5 180.186 352.28 180.541 353.929 181.253C355.578 181.964 357.059 183.015 358.274 184.337C359.489 185.66 360.412 187.223 360.982 188.927C361.552 190.63 361.757 192.434 361.582 194.222C361.407 196.01 360.858 197.74 359.969 199.301C359.08 200.862 357.872 202.217 356.424 203.28C356.38 203.428 356.342 203.577 356.309 203.72C355.389 207.401 355.997 209.634 356.682 210.866C356.869 210.909 363.443 212.394 364.31 213.262C365.177 214.129 370.539 215.37 370.539 215.37C371.353 215.587 372.095 216.02 372.684 216.623C373.273 217.226 373.689 217.977 373.888 218.797Z" fill="black"/>
<path d="M338.404 181.212C338.668 180.91 339.065 180.756 339.334 180.464C340.163 179.563 339.334 178.092 339.636 176.903C339.961 175.586 341.581 175.01 342.932 175.149C344.283 175.288 345.548 175.911 346.899 176.065C348.998 176.3 351.029 175.389 353.075 174.857C355.121 174.325 357.593 174.296 359.002 175.863C360.41 177.43 360.314 180.1 362.068 181.235C362.878 181.758 363.898 181.815 364.775 182.194C365.735 182.686 366.53 183.447 367.065 184.384C368.453 186.564 369.064 189.15 368.8 191.721C368.651 193.111 368.249 194.462 368.086 195.852C367.92 197.295 368.018 198.756 368.373 200.165C368.742 201.602 369.542 203.155 370.975 203.615C371.306 203.688 371.628 203.799 371.933 203.946C372.762 204.463 372.652 205.68 372.441 206.629L371.588 210.564C372.407 211.187 373.682 210.918 374.463 211.575C374.776 211.861 375.007 212.224 375.134 212.629C375.519 213.729 375.561 214.921 375.254 216.045C374.946 217.17 374.305 218.174 373.414 218.926C372.455 219.688 371.186 220.33 371.066 221.528C371.102 221.919 371.053 222.313 370.922 222.683C370.62 223.21 369.863 223.162 369.264 223.062C368.761 223.015 368.278 222.837 367.865 222.544C367.233 222.007 367.18 221.049 366.701 220.373C366.41 220.025 366.042 219.748 365.627 219.565C365.211 219.381 364.759 219.295 364.306 219.314C363.405 219.285 362.518 219.487 361.618 219.53C359.54 219.615 357.512 218.882 355.969 217.488C355.087 216.678 354.364 215.571 354.431 214.373C354.474 213.645 354.805 212.965 354.91 212.241C355.265 210.175 353.894 208.215 352.404 206.735C350.914 205.254 349.165 203.888 348.437 201.919C347.527 199.479 348.408 196.757 348.164 194.17C347.723 189.507 343.751 185.941 339.77 183.996C338.883 183.541 337.374 182.386 338.404 181.212Z" fill="#444053"/>
<path opacity="0.1" d="M369.738 221.456C369.106 220.915 369.053 219.961 368.574 219.285C368.283 218.937 367.915 218.66 367.5 218.475C367.085 218.291 366.633 218.204 366.179 218.222C365.278 218.193 364.387 218.394 363.491 218.437C361.406 218.529 359.369 217.793 357.823 216.391C356.941 215.586 356.222 214.474 356.289 213.281C356.333 212.548 356.663 211.867 356.769 211.148C357.128 209.078 355.753 207.118 354.263 205.637C352.773 204.156 351.029 202.791 350.296 200.821C349.39 198.387 350.296 195.665 350.027 193.072C349.582 188.409 345.61 184.844 341.633 182.898C340.704 182.443 339.194 181.288 340.225 180.114C340.483 179.812 340.881 179.659 341.149 179.367C341.978 178.47 341.149 176.994 341.456 175.811C341.515 175.575 341.617 175.352 341.758 175.154C340.756 175.341 339.841 175.907 339.597 176.865C339.305 178.053 340.124 179.525 339.295 180.426C339.027 180.718 338.629 180.871 338.366 181.168C337.335 182.342 338.845 183.502 339.774 183.953C343.756 185.898 347.728 189.468 348.168 194.126C348.413 196.719 347.531 199.441 348.441 201.88C349.17 203.845 350.919 205.235 352.409 206.696C353.899 208.158 355.283 210.132 354.914 212.203C354.712 212.903 354.552 213.615 354.435 214.335C354.368 215.528 355.092 216.64 355.973 217.445C357.517 218.848 359.553 219.584 361.636 219.491C362.537 219.448 363.424 219.252 364.324 219.276C364.778 219.259 365.23 219.346 365.645 219.53C366.061 219.715 366.428 219.991 366.72 220.34C367.199 221.015 367.252 221.974 367.884 222.511C368.297 222.801 368.78 222.978 369.283 223.023C369.882 223.133 370.639 223.172 370.941 222.649C371.049 222.436 371.095 222.197 371.075 221.959C370.593 221.912 370.132 221.739 369.738 221.456Z" fill="black"/>
<path d="M299.993 192.976H266.852V160.313H300.017L299.993 192.976ZM299.514 143.727H267.331C267.331 92.9683 315.569 95.9346 315.569 63.8222C315.569 46.1343 301.095 31.9638 283.41 31.9638C265.726 31.9638 251.256 47.2413 251.256 64.3254H219.098C219.083 55.874 220.737 47.5028 223.964 39.692C227.191 31.8811 231.927 24.7841 237.902 18.8081C243.877 12.832 250.972 8.0944 258.782 4.86688C266.591 1.63937 274.961 -0.014546 283.41 -2.73071e-05C318.932 -2.73071e-05 347.723 28.3457 347.723 63.8222C347.723 103.976 299.49 108.548 299.49 143.727H299.514Z" fill="#6397FF"/>
<path opacity="0.1" d="M134.7 183.248H126.153V174.804H134.7V183.248ZM134.571 170.549H126.282C126.282 157.466 138.715 158.228 138.715 149.943C138.711 148.858 138.493 147.786 138.074 146.786C137.655 145.786 137.043 144.879 136.274 144.115C135.504 143.352 134.591 142.748 133.588 142.338C132.585 141.927 131.51 141.719 130.427 141.724C128.238 141.774 126.153 142.671 124.612 144.226C123.07 145.781 122.19 147.873 122.157 150.062H113.868C113.923 145.711 115.685 141.556 118.775 138.493C121.865 135.43 126.034 133.703 130.385 133.686C134.735 133.669 138.918 135.363 142.031 138.402C145.145 141.441 146.939 145.583 147.028 149.933C147.004 160.284 134.571 161.463 134.571 170.53V170.549Z" fill="#6397FF"/>
<path opacity="0.1" d="M199.42 241.909H190.873V233.489H199.42V241.909ZM199.296 229.215H191.007C191.007 216.127 203.44 216.894 203.44 208.608C203.436 207.525 203.218 206.452 202.799 205.453C202.38 204.453 201.768 203.546 200.998 202.783C200.228 202.02 199.316 201.417 198.312 201.007C197.309 200.597 196.235 200.389 195.151 200.395C192.953 200.434 190.857 201.328 189.305 202.885C187.754 204.443 186.869 206.544 186.839 208.743H178.55C178.605 204.392 180.367 200.237 183.457 197.173C186.546 194.11 190.716 192.384 195.066 192.367C199.417 192.35 203.599 194.043 206.713 197.083C209.826 200.122 211.621 204.263 211.71 208.613C211.724 218.964 199.296 220.148 199.296 229.215Z" fill="#6397FF"/>
<path opacity="0.1" d="M238.776 138.063H232.581V131.972H238.776V138.063ZM238.685 128.857H232.676C232.676 119.378 241.689 119.929 241.689 113.929C241.685 113.144 241.527 112.367 241.223 111.643C240.919 110.919 240.475 110.261 239.917 109.709C239.359 109.156 238.698 108.719 237.971 108.422C237.244 108.125 236.466 107.974 235.681 107.977C234.091 108.01 232.575 108.658 231.454 109.787C230.333 110.915 229.694 112.435 229.672 114.025H223.664C223.651 110.838 224.905 107.776 227.15 105.513C229.394 103.25 232.446 101.971 235.633 101.958C238.82 101.946 241.881 103.2 244.144 105.445C246.406 107.69 247.684 110.742 247.697 113.929C247.687 121.429 238.685 122.287 238.685 128.857Z" fill="#6397FF"/>
<path opacity="0.1" d="M344.584 146.66H341.082V143.209H344.584V146.66ZM344.532 141.46H341.116C341.116 136.103 346.209 136.414 346.209 133.021C346.209 132.578 346.121 132.138 345.95 131.729C345.779 131.319 345.528 130.948 345.213 130.636C344.897 130.324 344.523 130.077 344.112 129.911C343.7 129.745 343.26 129.662 342.816 129.667C341.918 129.685 341.062 130.052 340.428 130.689C339.795 131.326 339.433 132.185 339.419 133.084H336.022C336.062 131.313 336.792 129.627 338.055 128.386C339.319 127.146 341.017 126.447 342.788 126.44C344.559 126.434 346.263 127.119 347.536 128.35C348.81 129.581 349.552 131.26 349.606 133.031C349.625 137.243 344.532 137.746 344.532 141.46Z" fill="#6397FF"/>
<path opacity="0.1" d="M398.132 303.589H394.629V300.139H398.132V303.589ZM398.079 298.39H394.682C394.682 293.027 399.78 293.344 399.78 289.951C399.773 289.056 399.412 288.2 398.775 287.571C398.138 286.942 397.278 286.591 396.383 286.596C395.484 286.614 394.627 286.98 393.993 287.617C393.359 288.255 392.998 289.114 392.986 290.013H389.589C389.629 288.242 390.358 286.557 391.622 285.316C392.886 284.075 394.584 283.377 396.355 283.37C398.126 283.363 399.829 284.048 401.103 285.279C402.376 286.51 403.119 288.19 403.172 289.96C403.191 294.192 398.098 294.676 398.098 298.39H398.079Z" fill="#6397FF"/>
</g>
<defs>
<linearGradient id="paint0_linear" x1="334.043" y1="398.733" x2="334.043" y2="174.1" gradientUnits="userSpaceOnUse">
<stop stop-color="#808080" stop-opacity="0.25"/>
<stop offset="0.54" stop-color="#808080" stop-opacity="0.12"/>
<stop offset="1" stop-color="#808080" stop-opacity="0.1"/>
</linearGradient>
<clipPath id="clip0">
<rect width="481" height="401" fill="white"/>
</clipPath>
</defs>
</svg>
