<svg width="342" height="254" viewBox="0 0 342 254" fill="none" xmlns="http://www.w3.org/2000/svg">
<g clip-path="url(#clip0)">
<path opacity="0.1" d="M321.543 140.591C309.52 157.074 313.488 180.601 320.438 199.344C322.766 205.619 325.41 212.255 324.203 219.082C322.729 227.428 315.801 233.681 308.599 237.086C295.47 243.293 279.961 242.302 268.217 234.481C258.082 227.731 250.948 216.514 240.617 210.086C223.327 199.332 200.88 204.137 181.637 212.347C168.023 218.155 153.109 225.636 139.842 220.273C130.506 216.499 124.22 206.892 120.912 196.623C119.315 191.665 118.197 186.283 115.016 182.402C113.124 180.094 110.624 178.487 108.053 177.143C84.5933 164.87 54.4167 172.54 31.6722 158.847C16.3167 149.599 6.75947 131.653 2.78855 112.787C-1.18238 93.9205 -0.199628 74.0047 1.38198 54.4295C2.50601 40.5183 4.28417 25.6528 12.656 14.7207C21.5099 3.1628 36.3495 -1.43031 49.6196 0.37993C62.8898 2.19017 74.7873 9.55388 85.1952 18.3443C98.2136 29.3101 110.191 43.0772 126.382 47.2407C137.41 50.0758 149.126 48.0691 160.591 47.1824C179.754 45.7036 198.85 47.4064 217.83 49.3302C235.998 51.1711 254.293 53.2268 271.5 59.262C283.677 63.5329 293.329 71.6054 304.794 77.122C312.266 80.718 320.487 81.5525 327.52 86.1978C336.199 91.92 344.042 102.057 341.496 114.223C339.092 125.787 327.931 131.844 321.543 140.591Z" fill="#F25929"/>
<g opacity="0.5">
<path opacity="0.5" d="M262.576 215.769C262.576 215.769 263.589 185.774 279.832 168.825C286.65 161.713 291.128 152.68 292.313 142.905C292.867 138.266 292.995 133.586 292.694 128.923" stroke="#535461" stroke-width="2" stroke-miterlimit="10"/>
<path opacity="0.5" d="M302.868 118.187C301.757 121.538 292.463 129.233 292.463 129.233C292.463 129.233 289.617 117.509 290.728 114.162C290.993 113.366 291.411 112.629 291.961 111.994C292.51 111.36 293.179 110.839 293.93 110.463C294.68 110.087 295.498 109.862 296.335 109.801C297.173 109.74 298.014 109.845 298.811 110.109C299.609 110.373 300.346 110.791 300.981 111.34C301.616 111.889 302.137 112.557 302.514 113.307C302.891 114.057 303.116 114.874 303.177 115.711C303.237 116.547 303.133 117.388 302.868 118.184V118.187Z" fill="#F25929"/>
<path opacity="0.5" d="M306.741 140.064C303.977 142.273 292 143.69 292 143.69C292 143.69 295.992 132.304 298.756 130.098C299.406 129.533 300.164 129.105 300.984 128.839C301.804 128.574 302.669 128.477 303.527 128.554C304.385 128.631 305.219 128.881 305.979 129.289C306.738 129.696 307.407 130.252 307.946 130.925C308.484 131.597 308.881 132.371 309.113 133.2C309.344 134.029 309.406 134.897 309.293 135.751C309.181 136.604 308.897 137.426 308.458 138.168C308.019 138.909 307.435 139.554 306.741 140.064Z" fill="#F25929"/>
<path opacity="0.5" d="M295.783 171.617C292.288 172.133 281.223 167.322 281.223 167.322C281.223 167.322 290.418 159.504 293.913 158.989C294.744 158.866 295.591 158.908 296.405 159.112C297.22 159.316 297.986 159.679 298.66 160.179C299.335 160.679 299.904 161.307 300.335 162.027C300.766 162.747 301.052 163.545 301.175 164.375C301.297 165.205 301.255 166.051 301.051 166.865C300.846 167.678 300.483 168.444 299.983 169.118C299.482 169.791 298.854 170.36 298.133 170.791C297.412 171.222 296.614 171.507 295.783 171.63V171.617Z" fill="#F25929"/>
<path opacity="0.5" d="M282.108 193.629C278.751 194.727 267.029 191.843 267.029 191.843C267.029 191.843 274.771 182.586 278.128 181.488C279.739 180.959 281.495 181.091 283.009 181.856C284.523 182.62 285.671 183.954 286.2 185.564C286.73 187.174 286.597 188.928 285.832 190.441C285.067 191.953 283.732 193.1 282.12 193.629H282.108Z" fill="#F25929"/>
<path opacity="0.5" d="M279.037 140.116C280.667 143.246 291.079 149.373 291.079 149.373C291.079 149.373 292.024 137.348 290.394 134.216C290.006 133.472 289.476 132.811 288.832 132.272C288.189 131.732 287.446 131.325 286.645 131.072C285.845 130.82 285.002 130.727 284.165 130.8C283.329 130.873 282.515 131.11 281.77 131.497C281.025 131.885 280.364 132.415 279.824 133.057C279.284 133.7 278.876 134.442 278.623 135.242C278.371 136.042 278.278 136.884 278.351 137.72C278.424 138.556 278.661 139.369 279.049 140.113L279.037 140.116Z" fill="#F25929"/>
<path opacity="0.5" d="M263.371 166.058C265.864 168.558 277.621 171.295 277.621 171.295C277.621 171.295 274.921 159.538 272.43 157.037C271.234 155.837 269.608 155.161 267.913 155.158C266.217 155.154 264.589 155.824 263.388 157.02C262.186 158.216 261.51 159.84 261.506 161.534C261.503 163.228 262.174 164.854 263.371 166.055V166.058Z" fill="#F25929"/>
<path opacity="0.5" d="M251.609 193.362C253.642 196.246 264.768 200.931 264.768 200.931C264.768 200.931 264.099 188.888 262.063 186.001C261.592 185.285 260.981 184.671 260.268 184.196C259.555 183.721 258.753 183.394 257.91 183.234C257.068 183.075 256.202 183.086 255.364 183.268C254.526 183.45 253.733 183.798 253.033 184.292C252.332 184.786 251.738 185.416 251.287 186.144C250.835 186.872 250.534 187.683 250.402 188.529C250.27 189.376 250.31 190.24 250.52 191.071C250.729 191.902 251.104 192.682 251.621 193.365L251.609 193.362Z" fill="#F25929"/>
<path opacity="0.5" d="M266.144 203.355C266.144 203.355 256.931 189.965 258.546 177.367C259.258 172.087 258.236 166.719 255.635 162.069C254.382 159.871 252.931 157.792 251.298 155.859" stroke="#535461" stroke-width="2" stroke-miterlimit="10"/>
<path opacity="0.5" d="M252.272 147.912C252.865 149.729 251.298 156.068 251.298 156.068C251.298 156.068 246.283 151.876 245.691 150.063C245.406 149.191 245.479 148.242 245.894 147.424C246.31 146.606 247.034 145.986 247.906 145.702C248.779 145.417 249.729 145.49 250.548 145.905C251.367 146.32 251.987 147.043 252.272 147.915V147.912Z" fill="#F25929"/>
<path opacity="0.5" d="M261.003 156.193C260.515 158.034 255.749 162.511 255.749 162.511C255.749 162.511 253.82 156.27 254.308 154.423C254.543 153.536 255.121 152.779 255.915 152.317C256.709 151.856 257.654 151.729 258.542 151.964C259.43 152.199 260.188 152.776 260.649 153.569C261.111 154.362 261.238 155.306 261.003 156.193Z" fill="#F25929"/>
<path opacity="0.5" d="M266.39 173.455C265.036 174.802 258.663 176.259 258.663 176.259C258.663 176.259 260.149 169.899 261.507 168.552C261.83 168.232 262.212 167.978 262.633 167.805C263.054 167.633 263.504 167.545 263.959 167.546C264.414 167.548 264.864 167.639 265.284 167.814C265.704 167.989 266.085 168.245 266.405 168.567C266.726 168.89 266.98 169.272 267.153 169.692C267.325 170.113 267.414 170.563 267.412 171.017C267.411 171.472 267.32 171.922 267.144 172.341C266.969 172.76 266.713 173.141 266.39 173.461V173.455Z" fill="#F25929"/>
<path opacity="0.5" d="M267.523 187.437C266.415 188.993 260.368 191.499 260.368 191.499C260.368 191.499 260.758 184.979 261.866 183.424C262.13 183.054 262.464 182.739 262.849 182.497C263.234 182.256 263.663 182.093 264.111 182.017C264.559 181.941 265.018 181.954 265.461 182.056C265.905 182.157 266.323 182.345 266.694 182.608C267.065 182.871 267.38 183.204 267.622 183.589C267.863 183.974 268.027 184.402 268.102 184.85C268.178 185.298 268.165 185.757 268.064 186.199C267.962 186.642 267.774 187.061 267.511 187.431L267.523 187.437Z" fill="#F25929"/>
<path opacity="0.5" d="M248.955 165.113C250.672 165.953 257.173 165.278 257.173 165.278C257.173 165.278 253.712 159.737 251.996 158.899C251.171 158.497 250.22 158.438 249.352 158.735C248.483 159.033 247.769 159.663 247.366 160.487C246.963 161.311 246.904 162.261 247.202 163.129C247.5 163.996 248.13 164.71 248.955 165.113Z" fill="#F25929"/>
<path opacity="0.5" d="M250.488 181.451C252.38 181.739 258.381 179.153 258.381 179.153C258.381 179.153 253.418 174.9 251.529 174.624C250.621 174.486 249.696 174.714 248.956 175.258C248.217 175.802 247.724 176.617 247.586 177.524C247.448 178.431 247.676 179.355 248.22 180.094C248.764 180.833 249.58 181.325 250.488 181.463V181.451Z" fill="#F25929"/>
<path opacity="0.5" d="M254.155 197.12C255.97 197.734 262.324 196.2 262.324 196.2C262.324 196.2 258.153 191.171 256.338 190.567C255.467 190.277 254.516 190.346 253.695 190.757C252.874 191.168 252.25 191.888 251.96 192.759C251.671 193.63 251.739 194.579 252.151 195.4C252.562 196.22 253.283 196.843 254.155 197.133V197.12Z" fill="#F25929"/>
<path opacity="0.5" d="M252.272 147.912C252.865 149.729 251.298 156.068 251.298 156.068C251.298 156.068 246.283 151.876 245.691 150.063C245.406 149.191 245.479 148.242 245.894 147.424C246.31 146.606 247.034 145.986 247.906 145.702C248.779 145.417 249.729 145.49 250.548 145.905C251.367 146.32 251.987 147.043 252.272 147.915V147.912Z" fill="white"/>
<path opacity="0.5" d="M261.003 156.193C260.515 158.034 255.749 162.511 255.749 162.511C255.749 162.511 253.82 156.27 254.308 154.423C254.543 153.536 255.121 152.779 255.915 152.317C256.709 151.856 257.654 151.729 258.542 151.964C259.43 152.199 260.188 152.776 260.649 153.569C261.111 154.362 261.238 155.306 261.003 156.193Z" fill="white"/>
<path opacity="0.5" d="M266.39 173.455C265.036 174.802 258.663 176.259 258.663 176.259C258.663 176.259 260.149 169.899 261.507 168.552C261.83 168.232 262.212 167.978 262.633 167.805C263.054 167.633 263.504 167.545 263.959 167.546C264.414 167.548 264.864 167.639 265.284 167.814C265.704 167.989 266.085 168.245 266.405 168.567C266.726 168.89 266.98 169.272 267.153 169.692C267.325 170.113 267.414 170.563 267.412 171.017C267.411 171.472 267.32 171.922 267.144 172.341C266.969 172.76 266.713 173.141 266.39 173.461V173.455Z" fill="white"/>
<path opacity="0.5" d="M267.523 187.437C266.415 188.993 260.368 191.499 260.368 191.499C260.368 191.499 260.758 184.979 261.866 183.424C262.13 183.054 262.464 182.739 262.849 182.497C263.234 182.256 263.663 182.093 264.111 182.017C264.559 181.941 265.018 181.954 265.461 182.056C265.905 182.157 266.323 182.345 266.694 182.608C267.065 182.871 267.38 183.204 267.622 183.589C267.863 183.974 268.027 184.402 268.102 184.85C268.178 185.298 268.165 185.757 268.064 186.199C267.962 186.642 267.774 187.061 267.511 187.431L267.523 187.437Z" fill="white"/>
<path opacity="0.5" d="M248.955 165.113C250.672 165.953 257.173 165.278 257.173 165.278C257.173 165.278 253.712 159.737 251.996 158.899C251.171 158.497 250.22 158.438 249.352 158.735C248.483 159.033 247.769 159.663 247.366 160.487C246.963 161.311 246.904 162.261 247.202 163.129C247.5 163.996 248.13 164.71 248.955 165.113Z" fill="white"/>
<path opacity="0.5" d="M250.488 181.451C252.38 181.739 258.381 179.153 258.381 179.153C258.381 179.153 253.418 174.9 251.529 174.624C250.621 174.486 249.696 174.714 248.956 175.258C248.217 175.802 247.724 176.617 247.586 177.524C247.448 178.431 247.676 179.355 248.22 180.094C248.764 180.833 249.58 181.325 250.488 181.463V181.451Z" fill="white"/>
<path opacity="0.5" d="M254.155 197.12C255.97 197.734 262.324 196.2 262.324 196.2C262.324 196.2 258.153 191.171 256.338 190.567C255.467 190.277 254.516 190.346 253.695 190.757C252.874 191.168 252.25 191.888 251.96 192.759C251.671 193.63 251.739 194.579 252.151 195.4C252.562 196.22 253.283 196.843 254.155 197.133V197.12Z" fill="white"/>
<path opacity="0.5" d="M249.097 239.661H275.302L281.856 199.734H242.546L249.097 239.661Z" fill="#474059"/>
<path opacity="0.1" d="M247.561 199.734L253.682 237.044H275.732L275.302 239.661H249.097L242.546 199.734H247.561Z" fill="black"/>
</g>
<path d="M254.065 12.0549H61.8149V243.797H254.065V12.0549Z" fill="url(#paint0_linear)"/>
<path d="M251.609 15.0188H64.272V240.839H251.609V15.0188Z" fill="white"/>
<path d="M212.606 40.485H137.057V44.1668H212.606V40.485Z" fill="#C0BCCF"/>
<path d="M212.606 52.1443H137.057V55.8261H212.606V52.1443Z" fill="#C0BCCF"/>
<path d="M194.486 63.8035H155.176V67.4853H194.486V63.8035Z" fill="#026FC2"/>
<path opacity="0.5" d="M212.606 114.429H137.057V118.111H212.606V114.429Z" fill="#C0BCCF"/>
<path opacity="0.5" d="M212.606 126.088H137.057V129.77H212.606V126.088Z" fill="#C0BCCF"/>
<path opacity="0.5" d="M194.486 137.747H155.176V141.429H194.486V137.747Z" fill="#026FC2"/>
<path opacity="0.5" d="M212.606 188.373H137.057V192.055H212.606V188.373Z" fill="#C0BCCF"/>
<path opacity="0.5" d="M212.606 200.032H137.057V203.714H212.606V200.032Z" fill="#C0BCCF"/>
<path opacity="0.5" d="M194.486 215.373V211.691H174.831H155.176V215.373H194.486Z" fill="#026FC2"/>
<g opacity="0.5">
<path opacity="0.5" d="M110.458 134.964L108.873 134.253C108.897 134.012 108.908 133.77 108.904 133.528C108.915 133.324 108.915 133.119 108.904 132.915C108.747 131.301 107.718 129.896 106.99 128.42C106.324 127.073 105.901 125.619 105.741 124.124C105.547 122.283 105.741 120.375 105.065 118.645C104.515 117.249 103.428 116.083 102.264 115.052C100.958 113.827 99.431 112.86 97.7649 112.201C96.0635 111.588 94.1073 111.431 92.4059 112.057C90.8703 112.622 89.6879 113.748 88.5455 114.843C87.7159 115.573 86.9832 116.406 86.365 117.322C85.6679 118.464 85.37 119.777 85.1366 121.072C84.7699 123.145 84.5177 125.236 84.3811 127.337C84.2613 129.089 84.074 131.077 82.5753 132.151C81.8444 132.676 80.8156 132.97 80.4808 133.765C80.386 134.003 80.3481 134.261 80.3702 134.516C80.361 134.729 80.3765 134.942 80.4163 135.152C80.4378 135.274 80.4624 135.394 80.4931 135.517C80.063 136.585 79.7019 137.679 79.4121 138.794C79.1879 139.622 78.9821 140.435 78.7979 141.224H79.2954H79.5595L82.4217 141.291H82.4617L85.5328 141.362H85.5481L88.4104 141.429H88.481L89.3071 141.487H89.5774L101.023 141.751H101.085L101.846 141.77H102.114L104.405 141.822L107.783 141.899H107.807L110.35 141.96H110.621H111.143L111.007 139.297C111.566 135.219 110.458 134.964 110.458 134.964ZM97.5991 134.639C97.5991 136.897 95.1791 139.662 95.1791 139.662L92.7437 136.348L92.8328 136.219L95.1791 139.41C95.1791 139.41 97.5991 136.649 97.5991 134.388C97.6555 134.273 97.7202 134.162 97.7926 134.056L97.8478 134.228C97.7549 134.359 97.6718 134.496 97.5991 134.639ZM101.321 143.5C101.321 143.387 101.321 143.27 101.3 143.157C101.278 143.043 101.281 142.942 101.266 142.831C101.251 142.721 101.238 142.613 101.223 142.503C101.208 142.393 101.186 142.285 101.165 142.175C101.143 142.064 101.122 141.957 101.097 141.846C101.097 141.81 101.082 141.776 101.072 141.736C101.039 141.592 101.002 141.448 100.962 141.303C100.922 141.159 100.897 141.07 100.861 140.957C100.861 140.904 100.83 140.852 100.811 140.803C100.793 140.754 100.759 140.638 100.732 140.555L100.676 140.395C100.652 140.325 100.627 140.251 100.6 140.18C100.553 140.051 100.504 139.926 100.455 139.797C100.406 139.668 100.354 139.542 100.302 139.416C100.197 139.159 100.084 138.904 99.97 138.646C99.5247 137.652 99.0241 136.673 98.5634 135.704C98.3164 135.197 98.097 134.676 97.9062 134.145L97.8478 134.222C97.7548 134.354 97.6716 134.492 97.5991 134.636C97.5991 136.894 95.1791 139.659 95.1791 139.659L92.7437 136.345L90.6123 139.413C90.3052 139.567 89.9981 140.088 89.7586 140.831C89.691 141.03 89.6265 141.251 89.5651 141.481C89.5221 141.638 89.4822 141.788 89.4453 141.963C89.4238 142.046 89.4054 142.129 89.387 142.215L89.3317 142.475V142.515C89.2948 142.693 89.258 142.877 89.2242 143.064C89.1904 143.252 89.1505 143.466 89.1167 143.678C89.0922 143.811 89.0707 143.943 89.0522 144.074C89.0092 144.329 88.9724 144.586 88.9355 144.844C88.914 144.994 88.8925 145.151 88.8741 145.289L88.8004 145.86C88.957 146.329 89.1321 146.78 89.3133 147.253C89.4285 147.501 89.4962 147.768 89.5129 148.041C93.2909 149.047 97.2669 149.047 101.045 148.041C101.044 148.032 101.044 148.023 101.045 148.013C100.988 147.757 100.963 147.494 100.971 147.231C101.033 146.494 101.136 145.76 101.278 145.034C101.324 144.676 101.343 144.315 101.337 143.954V143.825C101.327 143.709 101.324 143.604 101.321 143.503V143.5ZM101.321 143.5C101.321 143.387 101.321 143.27 101.3 143.157C101.278 143.043 101.281 142.942 101.266 142.831C101.251 142.721 101.238 142.613 101.223 142.503C101.208 142.393 101.186 142.285 101.165 142.175C101.143 142.064 101.122 141.957 101.097 141.846C101.097 141.81 101.082 141.776 101.072 141.736C101.039 141.592 101.002 141.448 100.962 141.303C100.922 141.159 100.897 141.07 100.861 140.957C100.861 140.904 100.83 140.852 100.811 140.803C100.793 140.754 100.759 140.638 100.732 140.555L100.676 140.395C100.652 140.325 100.627 140.251 100.6 140.18C100.553 140.051 100.504 139.926 100.455 139.797C100.406 139.668 100.354 139.542 100.302 139.416C100.197 139.159 100.084 138.904 99.97 138.646C99.5247 137.652 99.0241 136.673 98.5634 135.704C98.3164 135.197 98.097 134.676 97.9062 134.145L97.8478 134.222C97.7548 134.354 97.6716 134.492 97.5991 134.636C97.5991 136.894 95.1791 139.659 95.1791 139.659L92.7437 136.345L90.6123 139.413C90.3052 139.567 89.9981 140.088 89.7586 140.831C89.691 141.03 89.6265 141.251 89.5651 141.481C89.5221 141.638 89.4822 141.788 89.4453 141.963C89.4238 142.046 89.4054 142.129 89.387 142.215L89.3317 142.475V142.515C89.2948 142.693 89.258 142.877 89.2242 143.064C89.1904 143.252 89.1505 143.466 89.1167 143.678C89.0922 143.811 89.0707 143.943 89.0522 144.074C89.0092 144.329 88.9724 144.586 88.9355 144.844C88.914 144.994 88.8925 145.151 88.8741 145.289L88.8004 145.86C88.957 146.329 89.1321 146.78 89.3133 147.253C89.4285 147.501 89.4962 147.768 89.5129 148.041C93.2909 149.047 97.2669 149.047 101.045 148.041C101.044 148.032 101.044 148.023 101.045 148.013C100.988 147.757 100.963 147.494 100.971 147.231C101.033 146.494 101.136 145.76 101.278 145.034C101.324 144.676 101.343 144.315 101.337 143.954V143.825C101.327 143.709 101.324 143.604 101.321 143.503V143.5ZM101.321 143.5C101.321 143.387 101.321 143.27 101.3 143.157C101.278 143.043 101.281 142.942 101.266 142.831C101.251 142.721 101.238 142.613 101.223 142.503C101.208 142.393 101.186 142.285 101.165 142.175C101.143 142.064 101.122 141.957 101.097 141.846C101.097 141.81 101.082 141.776 101.072 141.736C101.039 141.592 101.002 141.448 100.962 141.303C100.922 141.159 100.897 141.07 100.861 140.957C100.861 140.904 100.83 140.852 100.811 140.803C100.793 140.754 100.759 140.638 100.732 140.555L100.676 140.395C100.652 140.325 100.627 140.251 100.6 140.18C100.553 140.051 100.504 139.926 100.455 139.797C100.406 139.668 100.354 139.542 100.302 139.416C100.197 139.159 100.084 138.904 99.97 138.646C99.5247 137.652 99.0241 136.673 98.5634 135.704C98.3164 135.197 98.097 134.676 97.9062 134.145L97.8478 134.222C97.7548 134.354 97.6716 134.492 97.5991 134.636C97.5991 136.894 95.1791 139.659 95.1791 139.659L92.7437 136.345L90.6123 139.413C90.3052 139.567 89.9981 140.088 89.7586 140.831C89.691 141.03 89.6265 141.251 89.5651 141.481C89.5221 141.638 89.4822 141.788 89.4453 141.963C89.4238 142.046 89.4054 142.129 89.387 142.215L89.3317 142.475V142.515C89.2948 142.693 89.258 142.877 89.2242 143.064C89.1904 143.252 89.1505 143.466 89.1167 143.678C89.0922 143.811 89.0707 143.943 89.0522 144.074C89.0092 144.329 88.9724 144.586 88.9355 144.844C88.914 144.994 88.8925 145.151 88.8741 145.289L88.8004 145.86C88.957 146.329 89.1321 146.78 89.3133 147.253C89.4285 147.501 89.4962 147.768 89.5129 148.041C93.2909 149.047 97.2669 149.047 101.045 148.041C101.044 148.032 101.044 148.023 101.045 148.013C100.988 147.757 100.963 147.494 100.971 147.231C101.033 146.494 101.136 145.76 101.278 145.034C101.324 144.676 101.343 144.315 101.337 143.954V143.825C101.327 143.709 101.324 143.604 101.321 143.503V143.5ZM101.321 143.5C101.321 143.387 101.321 143.27 101.3 143.157C101.278 143.043 101.281 142.942 101.266 142.831C101.251 142.721 101.238 142.613 101.223 142.503C101.208 142.393 101.186 142.285 101.165 142.175C101.143 142.064 101.122 141.957 101.097 141.846C101.097 141.81 101.082 141.776 101.072 141.736C101.039 141.592 101.002 141.448 100.962 141.303C100.922 141.159 100.897 141.07 100.861 140.957C100.861 140.904 100.83 140.852 100.811 140.803C100.793 140.754 100.759 140.638 100.732 140.555L100.676 140.395C100.652 140.325 100.627 140.251 100.6 140.18C100.553 140.051 100.504 139.926 100.455 139.797C100.406 139.668 100.354 139.542 100.302 139.416C100.197 139.159 100.084 138.904 99.97 138.646C99.5247 137.652 99.0241 136.673 98.5634 135.704C98.3164 135.197 98.097 134.676 97.9062 134.145L97.8478 134.222C97.7548 134.354 97.6716 134.492 97.5991 134.636C97.5991 136.894 95.1791 139.659 95.1791 139.659L92.7437 136.345L90.6123 139.413C90.3052 139.567 89.9981 140.088 89.7586 140.831C89.691 141.03 89.6265 141.251 89.5651 141.481C89.5221 141.638 89.4822 141.788 89.4453 141.963C89.4238 142.046 89.4054 142.129 89.387 142.215L89.3317 142.475V142.515C89.2948 142.693 89.258 142.877 89.2242 143.064C89.1904 143.252 89.1505 143.466 89.1167 143.678C89.0922 143.811 89.0707 143.943 89.0522 144.074C89.0092 144.329 88.9724 144.586 88.9355 144.844C88.914 144.994 88.8925 145.151 88.8741 145.289L88.8004 145.86C88.957 146.329 89.1321 146.78 89.3133 147.253C89.4285 147.501 89.4962 147.768 89.5129 148.041C93.2909 149.047 97.2669 149.047 101.045 148.041C101.044 148.032 101.044 148.023 101.045 148.013C100.988 147.757 100.963 147.494 100.971 147.231C101.033 146.494 101.136 145.76 101.278 145.034C101.324 144.676 101.343 144.315 101.337 143.954V143.825C101.327 143.709 101.324 143.604 101.321 143.503V143.5Z" fill="url(#paint1_linear)"/>
<path opacity="0.5" d="M101.432 122.099H87.3047V131.611H101.432V122.099Z" fill="#493545"/>
<path opacity="0.5" d="M103.778 132.59L97.8665 140.911L91.6875 140.374C91.6875 140.374 83.6259 140.908 89.0003 134.737C91.5831 131.77 92.4276 129.297 92.6088 127.533C92.8054 125.625 92.2249 124.539 92.2249 124.539L98.9414 123.735C98.6383 124.639 98.6 125.611 98.8309 126.536C99.6723 130.022 103.778 132.59 103.778 132.59Z" fill="#C77485"/>
<path opacity="0.1" d="M98.8276 126.527C97.9516 127.19 96.9262 127.627 95.8414 127.802C94.7565 127.976 93.6454 127.882 92.6056 127.527C92.8021 125.619 92.2217 124.533 92.2217 124.533L98.9382 123.729C98.6357 124.632 98.5973 125.603 98.8276 126.527Z" fill="black"/>
<path opacity="0.5" d="M94.7765 127.619C98.486 127.619 101.493 124.615 101.493 120.909C101.493 117.203 98.486 114.199 94.7765 114.199C91.0671 114.199 88.0601 117.203 88.0601 120.909C88.0601 124.615 91.0671 127.619 94.7765 127.619Z" fill="#C77485"/>
<path opacity="0.1" d="M103.532 132.933L103.376 132.32L103.241 131.78L103.041 130.982L103.004 130.835L102.974 130.712C102.974 130.712 103.133 130.23 102.08 130.387L101.883 130.42C101.717 130.454 101.524 130.5 101.303 130.561L101.103 130.623L100.839 130.706C100.003 130.978 99.2403 131.437 98.6095 132.05C98.3264 132.32 98.0759 132.623 97.8633 132.952C97.8418 132.982 97.8264 133.01 97.808 133.034C97.7352 133.148 97.6706 133.267 97.6145 133.39C97.6145 135.808 95.1945 138.76 95.1945 138.76L92.8328 135.351L92.7867 135.283L92.2247 134.467L92.0251 134.203L91.9575 134.111L90.7291 132.464L90.422 132.053L90.3206 131.915L90.1702 131.715L89.817 131.246L88.435 132.053L86.5923 133.126L85.5175 140.107V140.3L85.5512 140.877L85.7754 144.669V144.721L85.3823 146.292L85.4407 146.323C86.3682 146.823 87.3334 147.249 88.3275 147.599L88.5885 147.691C88.8957 147.793 89.1843 147.885 89.4853 147.974C89.4965 148.019 89.5047 148.065 89.5099 148.112C89.5099 148.069 89.5099 148.023 89.5099 147.98C93.2784 149.056 97.2733 149.056 101.042 147.98L101.112 147.958C101.288 147.909 101.466 147.857 101.638 147.799L101.917 147.71C102.675 147.456 103.417 147.159 104.141 146.82L104.399 141.328L104.583 137.367V137.14L103.532 132.933Z" fill="black"/>
<path opacity="0.5" d="M101.321 143.135C101.321 143.012 101.321 142.889 101.3 142.767C101.278 142.644 101.281 142.537 101.266 142.42C101.25 142.303 101.238 142.187 101.223 142.07C101.207 141.954 101.186 141.837 101.164 141.72C101.143 141.604 101.122 141.487 101.097 141.371C101.097 141.331 101.082 141.294 101.072 141.254C101.039 141.101 101.002 140.947 100.962 140.791C100.922 140.634 100.897 140.542 100.86 140.42C100.86 140.364 100.83 140.309 100.811 140.257C100.793 140.205 100.759 140.079 100.731 139.99L100.676 139.818C100.652 139.741 100.627 139.665 100.599 139.588C100.553 139.45 100.504 139.315 100.455 139.177C100.406 139.039 100.354 138.904 100.302 138.769C100.197 138.493 100.083 138.22 99.9698 137.947C99.5245 136.885 99.0239 135.839 98.5633 134.802C98.3157 134.258 98.0963 133.702 97.9061 133.136L97.8477 133.218C97.7543 133.36 97.6712 133.507 97.599 133.66C97.599 136.075 95.1789 139.03 95.1789 139.03L92.7436 135.486L90.6122 138.76C90.3051 138.922 89.998 139.481 89.7585 140.275C89.6909 140.49 89.6264 140.723 89.565 140.972C89.522 141.138 89.4821 141.312 89.4452 141.487C89.4237 141.576 89.4053 141.665 89.3869 141.757L89.3316 142.037V142.079C89.2947 142.27 89.2579 142.466 89.2241 142.665C89.1903 142.865 89.1504 143.095 89.1166 143.313C89.092 143.454 89.0705 143.595 89.0521 143.736C89.0091 144.009 88.9723 144.286 88.9354 144.559C88.9139 144.718 88.8924 144.865 88.874 145.034L88.8003 145.648C88.9569 146.151 89.1319 146.648 89.3131 147.136C89.4289 147.403 89.4965 147.689 89.5128 147.98C93.2813 149.056 97.2762 149.056 101.045 147.98C101.043 147.969 101.043 147.959 101.045 147.949C100.988 147.674 100.963 147.392 100.971 147.111C101.033 146.324 101.136 145.541 101.278 144.764C101.323 144.381 101.343 143.996 101.336 143.611V143.472C101.327 143.356 101.324 143.245 101.321 143.135ZM101.321 143.135C101.321 143.012 101.321 142.889 101.3 142.767C101.278 142.644 101.281 142.537 101.266 142.42C101.25 142.303 101.238 142.187 101.223 142.07C101.207 141.954 101.186 141.837 101.164 141.72C101.143 141.604 101.122 141.487 101.097 141.371C101.097 141.331 101.082 141.294 101.072 141.254C101.039 141.101 101.002 140.947 100.962 140.791C100.922 140.634 100.897 140.542 100.86 140.42C100.86 140.364 100.83 140.309 100.811 140.257C100.793 140.205 100.759 140.079 100.731 139.99L100.676 139.818C100.652 139.741 100.627 139.665 100.599 139.588C100.553 139.45 100.504 139.315 100.455 139.177C100.406 139.039 100.354 138.904 100.302 138.769C100.197 138.493 100.083 138.22 99.9698 137.947C99.5245 136.885 99.0239 135.839 98.5633 134.802C98.3157 134.258 98.0963 133.702 97.9061 133.136L97.8477 133.218C97.7543 133.36 97.6712 133.507 97.599 133.66C97.599 136.075 95.1789 139.03 95.1789 139.03L92.7436 135.486L90.6122 138.76C90.3051 138.922 89.998 139.481 89.7585 140.275C89.6909 140.49 89.6264 140.723 89.565 140.972C89.522 141.138 89.4821 141.312 89.4452 141.487C89.4237 141.576 89.4053 141.665 89.3869 141.757L89.3316 142.037V142.079C89.2947 142.27 89.2579 142.466 89.2241 142.665C89.1903 142.865 89.1504 143.095 89.1166 143.313C89.092 143.454 89.0705 143.595 89.0521 143.736C89.0091 144.009 88.9723 144.286 88.9354 144.559C88.9139 144.718 88.8924 144.865 88.874 145.034L88.8003 145.648C88.9569 146.151 89.1319 146.648 89.3131 147.136C89.4289 147.403 89.4965 147.689 89.5128 147.98C93.2813 149.056 97.2762 149.056 101.045 147.98C101.043 147.969 101.043 147.959 101.045 147.949C100.988 147.674 100.963 147.392 100.971 147.111C101.033 146.324 101.136 145.541 101.278 144.764C101.323 144.381 101.343 143.996 101.336 143.611V143.472C101.327 143.356 101.324 143.245 101.321 143.135ZM101.321 143.135C101.321 143.012 101.321 142.889 101.3 142.767C101.278 142.644 101.281 142.537 101.266 142.42C101.25 142.303 101.238 142.187 101.223 142.07C101.207 141.954 101.186 141.837 101.164 141.72C101.143 141.604 101.122 141.487 101.097 141.371C101.097 141.331 101.082 141.294 101.072 141.254C101.039 141.101 101.002 140.947 100.962 140.791C100.922 140.634 100.897 140.542 100.86 140.42C100.86 140.364 100.83 140.309 100.811 140.257C100.793 140.205 100.759 140.079 100.731 139.99L100.676 139.818C100.652 139.741 100.627 139.665 100.599 139.588C100.553 139.45 100.504 139.315 100.455 139.177C100.406 139.039 100.354 138.904 100.302 138.769C100.197 138.493 100.083 138.22 99.9698 137.947C99.5245 136.885 99.0239 135.839 98.5633 134.802C98.3157 134.258 98.0963 133.702 97.9061 133.136L97.8477 133.218C97.7543 133.36 97.6712 133.507 97.599 133.66C97.599 136.075 95.1789 139.03 95.1789 139.03L92.7436 135.486L90.6122 138.76C90.3051 138.922 89.998 139.481 89.7585 140.275C89.6909 140.49 89.6264 140.723 89.565 140.972C89.522 141.138 89.4821 141.312 89.4452 141.487C89.4237 141.576 89.4053 141.665 89.3869 141.757L89.3316 142.037V142.079C89.2947 142.27 89.2579 142.466 89.2241 142.665C89.1903 142.865 89.1504 143.095 89.1166 143.313C89.092 143.454 89.0705 143.595 89.0521 143.736C89.0091 144.009 88.9723 144.286 88.9354 144.559C88.9139 144.718 88.8924 144.865 88.874 145.034L88.8003 145.648C88.9569 146.151 89.1319 146.648 89.3131 147.136C89.4289 147.403 89.4965 147.689 89.5128 147.98C93.2813 149.056 97.2762 149.056 101.045 147.98C101.043 147.969 101.043 147.959 101.045 147.949C100.988 147.674 100.963 147.392 100.971 147.111C101.033 146.324 101.136 145.541 101.278 144.764C101.323 144.381 101.343 143.996 101.336 143.611V143.472C101.327 143.356 101.324 143.245 101.321 143.135ZM104.576 137.376L103.48 133.004L103.293 132.255L103.241 132.049L102.973 130.982C102.974 130.973 102.974 130.963 102.973 130.954C102.98 130.907 102.972 130.859 102.952 130.816C102.912 130.736 102.811 130.653 102.574 130.632C102.484 130.626 102.394 130.626 102.304 130.632C102.037 130.658 101.773 130.708 101.515 130.779C101.389 130.813 101.254 130.85 101.109 130.896L100.845 130.979H100.821C100.113 131.211 99.4565 131.575 98.8857 132.053C98.5087 132.367 98.1778 132.732 97.903 133.139L97.8446 133.222C97.7513 133.363 97.6681 133.51 97.5959 133.663C97.5959 136.078 95.1759 139.033 95.1759 139.033L92.7405 135.489L92.6023 135.29L92.5777 135.256L92.2245 134.737L91.9574 134.381L91.8867 134.289L90.6276 132.611L90.2283 132.068V132.049L90.0901 131.862L89.826 131.513L88.9047 132.049L86.6014 133.39L85.5388 140.297V140.37L85.5695 140.874L85.7967 144.718V144.936L85.4497 146.32C86.3773 146.82 87.3425 147.246 88.3365 147.596L88.5976 147.688C88.9047 147.789 89.1934 147.881 89.4943 147.97C89.5055 148.016 89.5137 148.062 89.5189 148.108C89.5189 148.066 89.5189 148.02 89.5189 147.977C93.2875 149.052 97.2823 149.052 101.051 147.977L101.122 147.955C101.297 147.906 101.475 147.854 101.647 147.796L101.926 147.707C102.684 147.453 103.426 147.156 104.15 146.817L104.405 141.331L104.589 137.413L104.576 137.376ZM89.4728 147.97C89.484 148.016 89.4922 148.062 89.4974 148.108C89.4974 148.066 89.4974 148.02 89.4974 147.977L89.4728 147.97ZM101.321 143.135C101.321 143.012 101.321 142.889 101.3 142.767C101.278 142.644 101.281 142.537 101.266 142.42C101.25 142.303 101.238 142.187 101.223 142.07C101.207 141.954 101.186 141.837 101.164 141.72C101.143 141.604 101.122 141.487 101.097 141.371C101.097 141.331 101.082 141.294 101.072 141.254C101.039 141.101 101.002 140.947 100.962 140.791C100.922 140.634 100.897 140.542 100.86 140.42C100.86 140.364 100.83 140.309 100.811 140.257C100.793 140.205 100.759 140.079 100.731 139.99L100.676 139.818C100.652 139.741 100.627 139.665 100.599 139.588C100.553 139.45 100.504 139.315 100.455 139.177C100.406 139.039 100.354 138.904 100.302 138.769C100.197 138.493 100.083 138.22 99.9698 137.947C99.5245 136.885 99.0239 135.839 98.5633 134.802C98.3157 134.258 98.0963 133.702 97.9061 133.136L97.8477 133.218C97.7543 133.36 97.6712 133.507 97.599 133.66C97.599 136.075 95.1789 139.03 95.1789 139.03L92.7436 135.486L90.6122 138.76C90.3051 138.922 89.998 139.481 89.7585 140.275C89.6909 140.49 89.6264 140.723 89.565 140.972C89.522 141.138 89.4821 141.312 89.4452 141.487C89.4237 141.576 89.4053 141.665 89.3869 141.757L89.3316 142.037V142.079C89.2947 142.27 89.2579 142.466 89.2241 142.665C89.1903 142.865 89.1504 143.095 89.1166 143.313C89.092 143.454 89.0705 143.595 89.0521 143.736C89.0091 144.009 88.9723 144.286 88.9354 144.559C88.9139 144.718 88.8924 144.865 88.874 145.034L88.8003 145.648C88.9569 146.151 89.1319 146.648 89.3131 147.136C89.4289 147.403 89.4965 147.689 89.5128 147.98C93.2813 149.056 97.2762 149.056 101.045 147.98C101.043 147.969 101.043 147.959 101.045 147.949C100.988 147.674 100.963 147.392 100.971 147.111C101.033 146.324 101.136 145.541 101.278 144.764C101.323 144.381 101.343 143.996 101.336 143.611V143.472C101.327 143.356 101.324 143.245 101.321 143.135ZM101.321 143.135C101.321 143.012 101.321 142.889 101.3 142.767C101.278 142.644 101.281 142.537 101.266 142.42C101.25 142.303 101.238 142.187 101.223 142.07C101.207 141.954 101.186 141.837 101.164 141.72C101.143 141.604 101.122 141.487 101.097 141.371C101.097 141.331 101.082 141.294 101.072 141.254C101.039 141.101 101.002 140.947 100.962 140.791C100.922 140.634 100.897 140.542 100.86 140.42C100.86 140.364 100.83 140.309 100.811 140.257C100.793 140.205 100.759 140.079 100.731 139.99L100.676 139.818C100.652 139.741 100.627 139.665 100.599 139.588C100.553 139.45 100.504 139.315 100.455 139.177C100.406 139.039 100.354 138.904 100.302 138.769C100.197 138.493 100.083 138.22 99.9698 137.947C99.5245 136.885 99.0239 135.839 98.5633 134.802C98.3157 134.258 98.0963 133.702 97.9061 133.136L97.8477 133.218C97.7543 133.36 97.6712 133.507 97.599 133.66C97.599 136.075 95.1789 139.03 95.1789 139.03L92.7436 135.486L90.6122 138.76C90.3051 138.922 89.998 139.481 89.7585 140.275C89.6909 140.49 89.6264 140.723 89.565 140.972C89.522 141.138 89.4821 141.312 89.4452 141.487C89.4237 141.576 89.4053 141.665 89.3869 141.757L89.3316 142.037V142.079C89.2947 142.27 89.2579 142.466 89.2241 142.665C89.1903 142.865 89.1504 143.095 89.1166 143.313C89.092 143.454 89.0705 143.595 89.0521 143.736C89.0091 144.009 88.9723 144.286 88.9354 144.559C88.9139 144.718 88.8924 144.865 88.874 145.034L88.8003 145.648C88.9569 146.151 89.1319 146.648 89.3131 147.136C89.4289 147.403 89.4965 147.689 89.5128 147.98C93.2813 149.056 97.2762 149.056 101.045 147.98C101.043 147.969 101.043 147.959 101.045 147.949C100.988 147.674 100.963 147.392 100.971 147.111C101.033 146.324 101.136 145.541 101.278 144.764C101.323 144.381 101.343 143.996 101.336 143.611V143.472C101.327 143.356 101.324 143.245 101.321 143.135ZM101.321 143.135C101.321 143.012 101.321 142.889 101.3 142.767C101.278 142.644 101.281 142.537 101.266 142.42C101.25 142.303 101.238 142.187 101.223 142.07C101.207 141.954 101.186 141.837 101.164 141.72C101.143 141.604 101.122 141.487 101.097 141.371C101.097 141.331 101.082 141.294 101.072 141.254C101.039 141.101 101.002 140.947 100.962 140.791C100.922 140.634 100.897 140.542 100.86 140.42C100.86 140.364 100.83 140.309 100.811 140.257C100.793 140.205 100.759 140.079 100.731 139.99L100.676 139.818C100.652 139.741 100.627 139.665 100.599 139.588C100.553 139.45 100.504 139.315 100.455 139.177C100.406 139.039 100.354 138.904 100.302 138.769C100.197 138.493 100.083 138.22 99.9698 137.947C99.5245 136.885 99.0239 135.839 98.5633 134.802C98.3157 134.258 98.0963 133.702 97.9061 133.136L97.8477 133.218C97.7543 133.36 97.6712 133.507 97.599 133.66C97.599 136.075 95.1789 139.03 95.1789 139.03L92.7436 135.486L90.6122 138.76C90.3051 138.922 89.998 139.481 89.7585 140.275C89.6909 140.49 89.6264 140.723 89.565 140.972C89.522 141.138 89.4821 141.312 89.4452 141.487C89.4237 141.576 89.4053 141.665 89.3869 141.757L89.3316 142.037V142.079C89.2947 142.27 89.2579 142.466 89.2241 142.665C89.1903 142.865 89.1504 143.095 89.1166 143.313C89.092 143.454 89.0705 143.595 89.0521 143.736C89.0091 144.009 88.9723 144.286 88.9354 144.559C88.9139 144.718 88.8924 144.865 88.874 145.034L88.8003 145.648C88.9569 146.151 89.1319 146.648 89.3131 147.136C89.4289 147.403 89.4965 147.689 89.5128 147.98C93.2813 149.056 97.2762 149.056 101.045 147.98C101.043 147.969 101.043 147.959 101.045 147.949C100.988 147.674 100.963 147.392 100.971 147.111C101.033 146.324 101.136 145.541 101.278 144.764C101.323 144.381 101.343 143.996 101.336 143.611V143.472C101.327 143.356 101.324 143.245 101.321 143.135ZM101.321 143.135C101.321 143.012 101.321 142.889 101.3 142.767C101.278 142.644 101.281 142.537 101.266 142.42C101.25 142.303 101.238 142.187 101.223 142.07C101.207 141.954 101.186 141.837 101.164 141.72C101.143 141.604 101.122 141.487 101.097 141.371C101.097 141.331 101.082 141.294 101.072 141.254C101.039 141.101 101.002 140.947 100.962 140.791C100.922 140.634 100.897 140.542 100.86 140.42C100.86 140.364 100.83 140.309 100.811 140.257C100.793 140.205 100.759 140.079 100.731 139.99L100.676 139.818C100.652 139.741 100.627 139.665 100.599 139.588C100.553 139.45 100.504 139.315 100.455 139.177C100.406 139.039 100.354 138.904 100.302 138.769C100.197 138.493 100.083 138.22 99.9698 137.947C99.5245 136.885 99.0239 135.839 98.5633 134.802C98.3157 134.258 98.0963 133.702 97.9061 133.136L97.8477 133.218C97.7543 133.36 97.6712 133.507 97.599 133.66C97.599 136.075 95.1789 139.03 95.1789 139.03L92.7436 135.486L90.6122 138.76C90.3051 138.922 89.998 139.481 89.7585 140.275C89.6909 140.49 89.6264 140.723 89.565 140.972C89.522 141.138 89.4821 141.312 89.4452 141.487C89.4237 141.576 89.4053 141.665 89.3869 141.757L89.3316 142.037V142.079C89.2947 142.27 89.2579 142.466 89.2241 142.665C89.1903 142.865 89.1504 143.095 89.1166 143.313C89.092 143.454 89.0705 143.595 89.0521 143.736C89.0091 144.009 88.9723 144.286 88.9354 144.559C88.9139 144.718 88.8924 144.865 88.874 145.034L88.8003 145.648C88.9569 146.151 89.1319 146.648 89.3131 147.136C89.4289 147.403 89.4965 147.689 89.5128 147.98C93.2813 149.056 97.2762 149.056 101.045 147.98C101.043 147.969 101.043 147.959 101.045 147.949C100.988 147.674 100.963 147.392 100.971 147.111C101.033 146.324 101.136 145.541 101.278 144.764C101.323 144.381 101.343 143.996 101.336 143.611V143.472C101.327 143.356 101.324 143.245 101.321 143.135ZM101.321 143.135C101.321 143.012 101.321 142.889 101.3 142.767C101.278 142.644 101.281 142.537 101.266 142.42C101.25 142.303 101.238 142.187 101.223 142.07C101.207 141.954 101.186 141.837 101.164 141.72C101.143 141.604 101.122 141.487 101.097 141.371C101.097 141.331 101.082 141.294 101.072 141.254C101.039 141.101 101.002 140.947 100.962 140.791C100.922 140.634 100.897 140.542 100.86 140.42C100.86 140.364 100.83 140.309 100.811 140.257C100.793 140.205 100.759 140.079 100.731 139.99L100.676 139.818C100.652 139.741 100.627 139.665 100.599 139.588C100.553 139.45 100.504 139.315 100.455 139.177C100.406 139.039 100.354 138.904 100.302 138.769C100.197 138.493 100.083 138.22 99.9698 137.947C99.5245 136.885 99.0239 135.839 98.5633 134.802C98.3157 134.258 98.0963 133.702 97.9061 133.136L97.8477 133.218C97.7543 133.36 97.6712 133.507 97.599 133.66C97.599 136.075 95.1789 139.03 95.1789 139.03L92.7436 135.486L90.6122 138.76C90.3051 138.922 89.998 139.481 89.7585 140.275C89.6909 140.49 89.6264 140.723 89.565 140.972C89.522 141.138 89.4821 141.312 89.4452 141.487C89.4237 141.576 89.4053 141.665 89.3869 141.757L89.3316 142.037V142.079C89.2947 142.27 89.2579 142.466 89.2241 142.665C89.1903 142.865 89.1504 143.095 89.1166 143.313C89.092 143.454 89.0705 143.595 89.0521 143.736C89.0091 144.009 88.9723 144.286 88.9354 144.559C88.9139 144.718 88.8924 144.865 88.874 145.034L88.8003 145.648C88.9569 146.151 89.1319 146.648 89.3131 147.136C89.4289 147.403 89.4965 147.689 89.5128 147.98C93.2813 149.056 97.2762 149.056 101.045 147.98C101.043 147.969 101.043 147.959 101.045 147.949C100.988 147.674 100.963 147.392 100.971 147.111C101.033 146.324 101.136 145.541 101.278 144.764C101.323 144.381 101.343 143.996 101.336 143.611V143.472C101.327 143.356 101.324 143.245 101.321 143.135ZM101.321 143.135C101.321 143.012 101.321 142.889 101.3 142.767C101.278 142.644 101.281 142.537 101.266 142.42C101.25 142.303 101.238 142.187 101.223 142.07C101.207 141.954 101.186 141.837 101.164 141.72C101.143 141.604 101.122 141.487 101.097 141.371C101.097 141.331 101.082 141.294 101.072 141.254C101.039 141.101 101.002 140.947 100.962 140.791C100.922 140.634 100.897 140.542 100.86 140.42C100.86 140.364 100.83 140.309 100.811 140.257C100.793 140.205 100.759 140.079 100.731 139.99L100.676 139.818C100.652 139.741 100.627 139.665 100.599 139.588C100.553 139.45 100.504 139.315 100.455 139.177C100.406 139.039 100.354 138.904 100.302 138.769C100.197 138.493 100.083 138.22 99.9698 137.947C99.5245 136.885 99.0239 135.839 98.5633 134.802C98.3157 134.258 98.0963 133.702 97.9061 133.136L97.8477 133.218C97.7543 133.36 97.6712 133.507 97.599 133.66C97.599 136.075 95.1789 139.03 95.1789 139.03L92.7436 135.486L90.6122 138.76C90.3051 138.922 89.998 139.481 89.7585 140.275C89.6909 140.49 89.6264 140.723 89.565 140.972C89.522 141.138 89.4821 141.312 89.4452 141.487C89.4237 141.576 89.4053 141.665 89.3869 141.757L89.3316 142.037V142.079C89.2947 142.27 89.2579 142.466 89.2241 142.665C89.1903 142.865 89.1504 143.095 89.1166 143.313C89.092 143.454 89.0705 143.595 89.0521 143.736C89.0091 144.009 88.9723 144.286 88.9354 144.559C88.9139 144.718 88.8924 144.865 88.874 145.034L88.8003 145.648C88.9569 146.151 89.1319 146.648 89.3131 147.136C89.4289 147.403 89.4965 147.689 89.5128 147.98C93.2813 149.056 97.2762 149.056 101.045 147.98C101.043 147.969 101.043 147.959 101.045 147.949C100.988 147.674 100.963 147.392 100.971 147.111C101.033 146.324 101.136 145.541 101.278 144.764C101.323 144.381 101.343 143.996 101.336 143.611V143.472C101.327 143.356 101.324 143.245 101.321 143.135ZM101.321 143.135C101.321 143.012 101.321 142.889 101.3 142.767C101.278 142.644 101.281 142.537 101.266 142.42C101.25 142.303 101.238 142.187 101.223 142.07C101.207 141.954 101.186 141.837 101.164 141.72C101.143 141.604 101.122 141.487 101.097 141.371C101.097 141.331 101.082 141.294 101.072 141.254C101.039 141.101 101.002 140.947 100.962 140.791C100.922 140.634 100.897 140.542 100.86 140.42C100.86 140.364 100.83 140.309 100.811 140.257C100.793 140.205 100.759 140.079 100.731 139.99L100.676 139.818C100.652 139.741 100.627 139.665 100.599 139.588C100.553 139.45 100.504 139.315 100.455 139.177C100.406 139.039 100.354 138.904 100.302 138.769C100.197 138.493 100.083 138.22 99.9698 137.947C99.5245 136.885 99.0239 135.839 98.5633 134.802C98.3157 134.258 98.0963 133.702 97.9061 133.136L97.8477 133.218C97.7543 133.36 97.6712 133.507 97.599 133.66C97.599 136.075 95.1789 139.03 95.1789 139.03L92.7436 135.486L90.6122 138.76C90.3051 138.922 89.998 139.481 89.7585 140.275C89.6909 140.49 89.6264 140.723 89.565 140.972C89.522 141.138 89.4821 141.312 89.4452 141.487C89.4237 141.576 89.4053 141.665 89.3869 141.757L89.3316 142.037V142.079C89.2947 142.27 89.2579 142.466 89.2241 142.665C89.1903 142.865 89.1504 143.095 89.1166 143.313C89.092 143.454 89.0705 143.595 89.0521 143.736C89.0091 144.009 88.9723 144.286 88.9354 144.559C88.9139 144.718 88.8924 144.865 88.874 145.034L88.8003 145.648C88.9569 146.151 89.1319 146.648 89.3131 147.136C89.4289 147.403 89.4965 147.689 89.5128 147.98C93.2813 149.056 97.2762 149.056 101.045 147.98C101.043 147.969 101.043 147.959 101.045 147.949C100.988 147.674 100.963 147.392 100.971 147.111C101.033 146.324 101.136 145.541 101.278 144.764C101.323 144.381 101.343 143.996 101.336 143.611V143.472C101.327 143.356 101.324 143.245 101.321 143.135ZM101.321 143.135C101.321 143.012 101.321 142.889 101.3 142.767C101.278 142.644 101.281 142.537 101.266 142.42C101.25 142.303 101.238 142.187 101.223 142.07C101.207 141.954 101.186 141.837 101.164 141.72C101.143 141.604 101.122 141.487 101.097 141.371C101.097 141.331 101.082 141.294 101.072 141.254C101.039 141.101 101.002 140.947 100.962 140.791C100.922 140.634 100.897 140.542 100.86 140.42C100.86 140.364 100.83 140.309 100.811 140.257C100.793 140.205 100.759 140.079 100.731 139.99L100.676 139.818C100.652 139.741 100.627 139.665 100.599 139.588C100.553 139.45 100.504 139.315 100.455 139.177C100.406 139.039 100.354 138.904 100.302 138.769C100.197 138.493 100.083 138.22 99.9698 137.947C99.5245 136.885 99.0239 135.839 98.5633 134.802C98.3157 134.258 98.0963 133.702 97.9061 133.136L97.8477 133.218C97.7543 133.36 97.6712 133.507 97.599 133.66C97.599 136.075 95.1789 139.03 95.1789 139.03L92.7436 135.486L90.6122 138.76C90.3051 138.922 89.998 139.481 89.7585 140.275C89.6909 140.49 89.6264 140.723 89.565 140.972C89.522 141.138 89.4821 141.312 89.4452 141.487C89.4237 141.576 89.4053 141.665 89.3869 141.757L89.3316 142.037V142.079C89.2947 142.27 89.2579 142.466 89.2241 142.665C89.1903 142.865 89.1504 143.095 89.1166 143.313C89.092 143.454 89.0705 143.595 89.0521 143.736C89.0091 144.009 88.9723 144.286 88.9354 144.559C88.9139 144.718 88.8924 144.865 88.874 145.034L88.8003 145.648C88.9569 146.151 89.1319 146.648 89.3131 147.136C89.4289 147.403 89.4965 147.689 89.5128 147.98C93.2813 149.056 97.2762 149.056 101.045 147.98C101.043 147.969 101.043 147.959 101.045 147.949C100.988 147.674 100.963 147.392 100.971 147.111C101.033 146.324 101.136 145.541 101.278 144.764C101.323 144.381 101.343 143.996 101.336 143.611V143.472C101.327 143.356 101.324 143.245 101.321 143.135Z" fill="white"/>
<path opacity="0.1" d="M92.7866 135.28L92.5808 135.253C92.2702 135.211 91.9624 135.149 91.6595 135.069L91.5459 135.038C90.7965 134.826 89.9765 134.446 89.7923 133.777C89.7374 133.562 89.7438 133.335 89.8107 133.123C89.9138 132.758 90.0537 132.405 90.2284 132.068V132.05C90.2515 132.002 90.2771 131.956 90.3051 131.912C90.5586 131.417 90.9417 131 91.4138 130.706L91.0453 130.764L87.9251 131.27L83.0881 132.05C83.0881 132.05 82.2282 131.878 81.0581 135.099C81.0581 135.139 81.0304 135.176 81.0182 135.219C80.7356 136.008 80.4377 136.992 80.1306 138.223C79.9187 139.076 79.7252 139.913 79.5471 140.726C79.4949 140.972 79.4427 141.214 79.3936 141.454C79.9473 142.106 80.5433 142.721 81.1779 143.295L81.2792 143.39C82.522 144.514 83.8954 145.485 85.3699 146.283L85.4283 146.314C86.3558 146.814 87.321 147.24 88.3151 147.59L88.5761 147.682C88.6314 147.114 88.6928 146.486 88.7665 145.841C88.7665 145.777 88.7665 145.712 88.7911 145.648L88.8648 145.034C88.8832 144.878 88.9047 144.727 88.9262 144.559C88.9631 144.286 88.9999 144.009 89.0429 143.736C89.0614 143.595 89.0829 143.454 89.1074 143.313C89.1412 143.095 89.1781 142.877 89.2149 142.666C89.2518 142.454 89.2855 142.27 89.3224 142.08V142.037L89.3777 141.757C89.3961 141.665 89.4145 141.576 89.436 141.487C89.4729 141.313 89.5128 141.138 89.5558 140.972C89.6172 140.723 89.6817 140.49 89.7493 140.275C89.995 139.481 90.2806 138.922 90.603 138.76L92.7344 135.486L92.8234 135.348L92.8634 135.287L92.7866 135.28Z" fill="black"/>
<path opacity="0.1" d="M88.9078 113.548C88.6007 113.972 88.6253 114.555 88.4871 115.083C88.1585 116.282 86.8563 117.034 86.5584 118.243C86.3834 118.949 86.5861 119.697 86.4663 120.415C86.2482 121.738 85.0382 122.633 84.3626 123.79C84.0201 124.386 83.817 125.052 83.7686 125.737C83.7202 126.423 83.8277 127.11 84.0831 127.748C84.2412 128.07 84.3717 128.405 84.4732 128.748C84.5506 129.261 84.5182 129.784 84.378 130.282C84.1476 131.375 83.9111 132.578 84.4394 133.562C84.8847 134.394 85.8091 134.882 86.7396 135.035C87.6793 135.141 88.6298 135.098 89.5558 134.906C90.5723 134.75 91.6135 134.569 92.4979 134.047L89.1719 126.027C88.8372 125.217 88.4932 124.379 88.4963 123.502C88.5234 122.854 88.6637 122.217 88.9109 121.618C89.5548 119.882 90.4895 118.269 91.6749 116.847C92.157 117.405 92.1202 118.255 92.5225 118.875C92.878 119.333 93.3514 119.686 93.8922 119.897C95.4681 120.665 97.0872 121.341 98.7415 121.922C98.8452 121.935 98.9442 121.973 99.0296 122.033C99.115 122.094 99.1841 122.174 99.2309 122.268C99.2777 122.361 99.3006 122.465 99.2978 122.569C99.2949 122.674 99.2663 122.776 99.2144 122.867L97.9614 128.033C97.685 129.172 97.4424 130.488 98.1518 131.409C98.8612 132.329 100.461 132.765 100.47 133.952C100.457 134.14 100.457 134.329 100.47 134.517C100.553 135.072 101.214 135.339 101.776 135.367C102.698 135.385 103.597 135.075 104.312 134.492C105.027 133.909 105.512 133.091 105.679 132.185C105.986 130.154 104.641 128.282 104.079 126.303C103.133 122.974 104.386 119.068 102.528 116.144C101.023 113.772 98.2808 113.128 95.6765 112.834C93.8492 112.619 90.1946 111.852 88.9078 113.548Z" fill="black"/>
<path opacity="0.5" d="M88.9078 113.241C88.6007 113.665 88.6253 114.248 88.4871 114.776C88.1585 115.975 86.8563 116.727 86.5584 117.936C86.3834 118.641 86.5861 119.39 86.4663 120.108C86.2482 121.431 85.0382 122.326 84.3626 123.483C84.0201 124.079 83.817 124.745 83.7686 125.43C83.7202 126.116 83.8277 126.803 84.0831 127.441C84.2412 127.763 84.3717 128.098 84.4732 128.441C84.5506 128.954 84.5182 129.477 84.378 129.975C84.1476 131.068 83.9111 132.271 84.4394 133.255C84.8847 134.087 85.8091 134.575 86.7396 134.728C87.6793 134.834 88.6298 134.791 89.5558 134.599C90.5723 134.443 91.6135 134.262 92.4979 133.74L89.1719 125.72C88.8372 124.91 88.4932 124.072 88.4963 123.195C88.5234 122.547 88.6637 121.91 88.9109 121.311C89.5548 119.575 90.4895 117.962 91.6749 116.54C92.157 117.098 92.1202 117.948 92.5225 118.568C92.878 119.026 93.3514 119.379 93.8922 119.59C95.4681 120.358 97.0872 121.034 98.7415 121.615C98.8452 121.628 98.9442 121.666 99.0296 121.726C99.115 121.787 99.1841 121.867 99.2309 121.961C99.2777 122.054 99.3006 122.158 99.2978 122.262C99.2949 122.367 99.2663 122.469 99.2144 122.56L97.9614 127.726C97.685 128.865 97.4424 130.181 98.1518 131.102C98.8612 132.022 100.461 132.458 100.47 133.645C100.457 133.833 100.457 134.022 100.47 134.21C100.553 134.765 101.214 135.032 101.776 135.06C102.698 135.078 103.597 134.768 104.312 134.185C105.027 133.602 105.512 132.784 105.679 131.878C105.986 129.847 104.641 127.975 104.079 125.996C103.133 122.667 104.386 118.761 102.528 115.837C101.023 113.465 98.2808 112.821 95.6765 112.527C93.8492 112.312 90.1946 111.545 88.9078 113.241Z" fill="#493545"/>
</g>
<g opacity="0.5">
<path opacity="0.5" d="M87.0195 195.424C87.0471 196.451 86.3469 197.329 85.7911 198.185C85.2352 199.041 84.8237 200.21 85.3949 201.066C85.5822 201.348 85.8648 201.566 86.0337 201.861C86.6264 202.889 85.6406 204.07 85.2813 205.199C84.8667 206.503 85.3488 207.96 86.221 209.019C87.0932 210.077 88.2971 210.792 89.5132 211.421C92.0703 212.783 94.8148 213.759 97.6578 214.318C99.1442 214.591 100.729 214.713 102.123 214.118C103.091 213.675 103.881 212.92 104.367 211.974C104.853 211.028 105.007 209.946 104.804 208.902C104.451 207.288 103.269 205.991 102.654 204.466C102.511 204.166 102.442 203.837 102.452 203.505C102.504 202.925 102.949 202.471 103.296 202.002C104.167 200.724 104.522 199.164 104.291 197.636C104.049 196.107 103.463 194.653 102.578 193.383C102.261 192.857 101.844 192.398 101.349 192.033C100.68 191.582 99.8505 191.453 99.0521 191.34C95.7168 190.873 92.2619 190.364 88.899 190.192C87.8364 190.137 87.0564 190.346 86.5312 191.34C85.7296 192.822 86.9796 193.936 87.0195 195.424Z" fill="#444176"/>
<path opacity="0.5" d="M104.196 205.858L97.8666 214.851L91.6876 214.314C91.6876 214.314 91.4849 216.462 89.0004 208.678C87.6123 204.324 90.4346 205.837 90.9905 204.631C91.5463 203.425 92.526 202.361 92.6089 201.471C92.8055 199.562 92.225 198.476 92.225 198.476L98.9415 197.672C98.6385 198.577 98.6001 199.548 98.831 200.474C99.6725 203.965 104.196 205.858 104.196 205.858Z" fill="#C77485"/>
<path opacity="0.5" d="M94.6758 198.191C99.0857 198.191 102.661 195.375 102.661 191.901C102.661 188.427 99.0857 185.611 94.6758 185.611C90.2659 185.611 86.6909 188.427 86.6909 191.901C86.6909 195.375 90.2659 198.191 94.6758 198.191Z" fill="#444176"/>
<path opacity="0.1" d="M98.8281 200.471C97.9521 201.133 96.9267 201.571 95.8419 201.745C94.757 201.92 93.6459 201.826 92.6061 201.471C92.8026 199.562 92.2222 198.476 92.2222 198.476L98.9386 197.672C98.6362 198.576 98.5978 199.546 98.8281 200.471Z" fill="black"/>
<path opacity="0.5" d="M94.777 201.563C98.4864 201.563 101.494 198.559 101.494 194.853C101.494 191.147 98.4864 188.143 94.777 188.143C91.0676 188.143 88.0605 191.147 88.0605 194.853C88.0605 198.559 91.0676 201.563 94.777 201.563Z" fill="#C77485"/>
<path opacity="0.1" d="M103.533 206.877L103.376 206.263L103.241 205.723L103.042 204.926L103.005 204.778L102.974 204.656C102.974 204.656 103.134 204.174 102.08 204.33L101.884 204.364C101.718 204.398 101.524 204.444 101.303 204.505L101.104 204.567L100.84 204.65C100.003 204.922 99.2408 205.381 98.61 205.993C98.3269 206.264 98.0764 206.567 97.8637 206.895C97.8422 206.926 97.8269 206.954 97.8085 206.978C97.7357 207.092 97.6711 207.211 97.615 207.334C97.615 209.752 95.195 212.704 95.195 212.704L92.8333 209.295L92.7872 209.227L92.2252 208.411L92.0256 208.147L91.958 208.055L90.7296 206.408L90.4225 205.997L90.3211 205.858L90.1706 205.659L89.8175 205.19L88.4355 205.997L86.5928 207.07L85.5179 214.051V214.244L85.5517 214.821L85.7759 218.613V218.665L85.3828 220.236L85.4412 220.267C86.3687 220.767 87.3339 221.193 88.328 221.543L88.589 221.635C88.8961 221.736 89.1848 221.828 89.4858 221.917C89.4969 221.963 89.5052 222.009 89.5104 222.056C89.5104 222.013 89.5104 221.967 89.5104 221.924C93.2789 223 97.2738 223 101.042 221.924L101.113 221.902C101.288 221.853 101.466 221.801 101.638 221.743L101.918 221.654C102.675 221.4 103.418 221.103 104.141 220.764L104.399 215.272L104.583 211.311V211.084L103.533 206.877Z" fill="black"/>
<path opacity="0.5" d="M101.322 217.079C101.322 216.956 101.322 216.834 101.3 216.711C101.279 216.588 101.282 216.481 101.266 216.364C101.251 216.247 101.239 216.131 101.223 216.014C101.208 215.898 101.186 215.781 101.165 215.665C101.143 215.548 101.122 215.431 101.097 215.315C101.097 215.275 101.082 215.238 101.073 215.198C101.039 215.045 101.002 214.891 100.962 214.735C100.922 214.578 100.898 214.486 100.861 214.364C100.861 214.308 100.83 214.253 100.812 214.201C100.793 214.149 100.76 214.023 100.732 213.934L100.677 213.762C100.652 213.686 100.628 213.609 100.6 213.532C100.554 213.394 100.505 213.259 100.456 213.121C100.406 212.983 100.354 212.848 100.302 212.713C100.198 212.437 100.084 212.164 99.9703 211.891C99.525 210.829 99.0244 209.783 98.5638 208.746C98.3162 208.202 98.0968 207.646 97.9066 207.08L97.8482 207.163C97.7548 207.304 97.6717 207.451 97.5994 207.604C97.5994 210.019 95.1794 212.974 95.1794 212.974L92.744 209.43L90.6127 212.704C90.3056 212.866 89.9985 213.425 89.7589 214.219C89.6914 214.434 89.6269 214.667 89.5655 214.916C89.5225 215.082 89.4825 215.256 89.4457 215.431C89.4242 215.52 89.4058 215.609 89.3873 215.701L89.3321 215.981V216.024C89.2952 216.214 89.2584 216.41 89.2246 216.61C89.1908 216.809 89.1509 217.039 89.1171 217.257C89.0925 217.398 89.071 217.539 89.0526 217.68C89.0096 217.953 88.9727 218.23 88.9359 218.503C88.9144 218.662 88.8929 218.809 88.8745 218.978L88.8008 219.592C88.9574 220.095 89.1324 220.592 89.3136 221.08C89.4294 221.347 89.497 221.633 89.5133 221.924C93.2818 223 97.2767 223 101.045 221.924C101.044 221.913 101.044 221.903 101.045 221.893C100.988 221.618 100.964 221.336 100.972 221.055C101.034 220.268 101.136 219.485 101.279 218.708C101.324 218.325 101.343 217.94 101.337 217.555V217.416C101.328 217.3 101.325 217.189 101.322 217.079ZM101.322 217.079C101.322 216.956 101.322 216.834 101.3 216.711C101.279 216.588 101.282 216.481 101.266 216.364C101.251 216.247 101.239 216.131 101.223 216.014C101.208 215.898 101.186 215.781 101.165 215.665C101.143 215.548 101.122 215.431 101.097 215.315C101.097 215.275 101.082 215.238 101.073 215.198C101.039 215.045 101.002 214.891 100.962 214.735C100.922 214.578 100.898 214.486 100.861 214.364C100.861 214.308 100.83 214.253 100.812 214.201C100.793 214.149 100.76 214.023 100.732 213.934L100.677 213.762C100.652 213.686 100.628 213.609 100.6 213.532C100.554 213.394 100.505 213.259 100.456 213.121C100.406 212.983 100.354 212.848 100.302 212.713C100.198 212.437 100.084 212.164 99.9703 211.891C99.525 210.829 99.0244 209.783 98.5638 208.746C98.3162 208.202 98.0968 207.646 97.9066 207.08L97.8482 207.163C97.7548 207.304 97.6717 207.451 97.5994 207.604C97.5994 210.019 95.1794 212.974 95.1794 212.974L92.744 209.43L90.6127 212.704C90.3056 212.866 89.9985 213.425 89.7589 214.219C89.6914 214.434 89.6269 214.667 89.5655 214.916C89.5225 215.082 89.4825 215.256 89.4457 215.431C89.4242 215.52 89.4058 215.609 89.3873 215.701L89.3321 215.981V216.024C89.2952 216.214 89.2584 216.41 89.2246 216.61C89.1908 216.809 89.1509 217.039 89.1171 217.257C89.0925 217.398 89.071 217.539 89.0526 217.68C89.0096 217.953 88.9727 218.23 88.9359 218.503C88.9144 218.662 88.8929 218.809 88.8745 218.978L88.8008 219.592C88.9574 220.095 89.1324 220.592 89.3136 221.08C89.4294 221.347 89.497 221.633 89.5133 221.924C93.2818 223 97.2767 223 101.045 221.924C101.044 221.913 101.044 221.903 101.045 221.893C100.988 221.618 100.964 221.336 100.972 221.055C101.034 220.268 101.136 219.485 101.279 218.708C101.324 218.325 101.343 217.94 101.337 217.555V217.416C101.328 217.3 101.325 217.189 101.322 217.079ZM101.322 217.079C101.322 216.956 101.322 216.834 101.3 216.711C101.279 216.588 101.282 216.481 101.266 216.364C101.251 216.247 101.239 216.131 101.223 216.014C101.208 215.898 101.186 215.781 101.165 215.665C101.143 215.548 101.122 215.431 101.097 215.315C101.097 215.275 101.082 215.238 101.073 215.198C101.039 215.045 101.002 214.891 100.962 214.735C100.922 214.578 100.898 214.486 100.861 214.364C100.861 214.308 100.83 214.253 100.812 214.201C100.793 214.149 100.76 214.023 100.732 213.934L100.677 213.762C100.652 213.686 100.628 213.609 100.6 213.532C100.554 213.394 100.505 213.259 100.456 213.121C100.406 212.983 100.354 212.848 100.302 212.713C100.198 212.437 100.084 212.164 99.9703 211.891C99.525 210.829 99.0244 209.783 98.5638 208.746C98.3162 208.202 98.0968 207.646 97.9066 207.08L97.8482 207.163C97.7548 207.304 97.6717 207.451 97.5994 207.604C97.5994 210.019 95.1794 212.974 95.1794 212.974L92.744 209.43L90.6127 212.704C90.3056 212.866 89.9985 213.425 89.7589 214.219C89.6914 214.434 89.6269 214.667 89.5655 214.916C89.5225 215.082 89.4825 215.256 89.4457 215.431C89.4242 215.52 89.4058 215.609 89.3873 215.701L89.3321 215.981V216.024C89.2952 216.214 89.2584 216.41 89.2246 216.61C89.1908 216.809 89.1509 217.039 89.1171 217.257C89.0925 217.398 89.071 217.539 89.0526 217.68C89.0096 217.953 88.9727 218.23 88.9359 218.503C88.9144 218.662 88.8929 218.809 88.8745 218.978L88.8008 219.592C88.9574 220.095 89.1324 220.592 89.3136 221.08C89.4294 221.347 89.497 221.633 89.5133 221.924C93.2818 223 97.2767 223 101.045 221.924C101.044 221.913 101.044 221.903 101.045 221.893C100.988 221.618 100.964 221.336 100.972 221.055C101.034 220.268 101.136 219.485 101.279 218.708C101.324 218.325 101.343 217.94 101.337 217.555V217.416C101.328 217.3 101.325 217.189 101.322 217.079ZM104.577 211.32L103.481 206.948L103.293 206.199L103.241 205.994L102.974 204.926C102.974 204.917 102.974 204.907 102.974 204.898C102.98 204.851 102.973 204.803 102.952 204.76C102.912 204.68 102.811 204.597 102.575 204.576C102.485 204.57 102.394 204.57 102.304 204.576C102.038 204.602 101.773 204.652 101.515 204.723C101.389 204.757 101.254 204.794 101.11 204.84L100.846 204.923H100.821C100.114 205.155 99.457 205.519 98.8862 205.997C98.5092 206.311 98.1783 206.676 97.9035 207.083L97.8451 207.166C97.7518 207.307 97.6686 207.454 97.5964 207.607C97.5964 210.022 95.1763 212.977 95.1763 212.977L92.741 209.433L92.6028 209.234L92.5782 209.2L92.225 208.681L91.9578 208.325L91.8872 208.233L90.6281 206.555L90.2288 206.012V205.994L90.0906 205.806L89.8265 205.457L88.9052 205.994L86.6019 207.334L85.5393 214.241V214.315L85.57 214.818L85.7972 218.662V218.88L85.4502 220.264C86.3778 220.764 87.343 221.19 88.337 221.54L88.5981 221.632C88.9052 221.733 89.1939 221.825 89.4948 221.914C89.506 221.96 89.5142 222.006 89.5194 222.053C89.5194 222.01 89.5194 221.964 89.5194 221.921C93.288 222.997 97.2828 222.997 101.051 221.921L101.122 221.899C101.297 221.85 101.475 221.798 101.647 221.74L101.927 221.651C102.684 221.397 103.427 221.1 104.15 220.761L104.405 215.275L104.589 211.357L104.577 211.32ZM89.4733 221.914C89.4845 221.96 89.4927 222.006 89.4979 222.053C89.4979 222.01 89.4979 221.964 89.4979 221.921L89.4733 221.914ZM101.322 217.079C101.322 216.956 101.322 216.834 101.3 216.711C101.279 216.588 101.282 216.481 101.266 216.364C101.251 216.247 101.239 216.131 101.223 216.014C101.208 215.898 101.186 215.781 101.165 215.665C101.143 215.548 101.122 215.431 101.097 215.315C101.097 215.275 101.082 215.238 101.073 215.198C101.039 215.045 101.002 214.891 100.962 214.735C100.922 214.578 100.898 214.486 100.861 214.364C100.861 214.308 100.83 214.253 100.812 214.201C100.793 214.149 100.76 214.023 100.732 213.934L100.677 213.762C100.652 213.686 100.628 213.609 100.6 213.532C100.554 213.394 100.505 213.259 100.456 213.121C100.406 212.983 100.354 212.848 100.302 212.713C100.198 212.437 100.084 212.164 99.9703 211.891C99.525 210.829 99.0244 209.783 98.5638 208.746C98.3162 208.202 98.0968 207.646 97.9066 207.08L97.8482 207.163C97.7548 207.304 97.6717 207.451 97.5994 207.604C97.5994 210.019 95.1794 212.974 95.1794 212.974L92.744 209.43L90.6127 212.704C90.3056 212.866 89.9985 213.425 89.7589 214.219C89.6914 214.434 89.6269 214.667 89.5655 214.916C89.5225 215.082 89.4825 215.256 89.4457 215.431C89.4242 215.52 89.4058 215.609 89.3873 215.701L89.3321 215.981V216.024C89.2952 216.214 89.2584 216.41 89.2246 216.61C89.1908 216.809 89.1509 217.039 89.1171 217.257C89.0925 217.398 89.071 217.539 89.0526 217.68C89.0096 217.953 88.9727 218.23 88.9359 218.503C88.9144 218.662 88.8929 218.809 88.8745 218.978L88.8008 219.592C88.9574 220.095 89.1324 220.592 89.3136 221.08C89.4294 221.347 89.497 221.633 89.5133 221.924C93.2818 223 97.2767 223 101.045 221.924C101.044 221.913 101.044 221.903 101.045 221.893C100.988 221.618 100.964 221.336 100.972 221.055C101.034 220.268 101.136 219.485 101.279 218.708C101.324 218.325 101.343 217.94 101.337 217.555V217.416C101.328 217.3 101.325 217.189 101.322 217.079ZM101.322 217.079C101.322 216.956 101.322 216.834 101.3 216.711C101.279 216.588 101.282 216.481 101.266 216.364C101.251 216.247 101.239 216.131 101.223 216.014C101.208 215.898 101.186 215.781 101.165 215.665C101.143 215.548 101.122 215.431 101.097 215.315C101.097 215.275 101.082 215.238 101.073 215.198C101.039 215.045 101.002 214.891 100.962 214.735C100.922 214.578 100.898 214.486 100.861 214.364C100.861 214.308 100.83 214.253 100.812 214.201C100.793 214.149 100.76 214.023 100.732 213.934L100.677 213.762C100.652 213.686 100.628 213.609 100.6 213.532C100.554 213.394 100.505 213.259 100.456 213.121C100.406 212.983 100.354 212.848 100.302 212.713C100.198 212.437 100.084 212.164 99.9703 211.891C99.525 210.829 99.0244 209.783 98.5638 208.746C98.3162 208.202 98.0968 207.646 97.9066 207.08L97.8482 207.163C97.7548 207.304 97.6717 207.451 97.5994 207.604C97.5994 210.019 95.1794 212.974 95.1794 212.974L92.744 209.43L90.6127 212.704C90.3056 212.866 89.9985 213.425 89.7589 214.219C89.6914 214.434 89.6269 214.667 89.5655 214.916C89.5225 215.082 89.4825 215.256 89.4457 215.431C89.4242 215.52 89.4058 215.609 89.3873 215.701L89.3321 215.981V216.024C89.2952 216.214 89.2584 216.41 89.2246 216.61C89.1908 216.809 89.1509 217.039 89.1171 217.257C89.0925 217.398 89.071 217.539 89.0526 217.68C89.0096 217.953 88.9727 218.23 88.9359 218.503C88.9144 218.662 88.8929 218.809 88.8745 218.978L88.8008 219.592C88.9574 220.095 89.1324 220.592 89.3136 221.08C89.4294 221.347 89.497 221.633 89.5133 221.924C93.2818 223 97.2767 223 101.045 221.924C101.044 221.913 101.044 221.903 101.045 221.893C100.988 221.618 100.964 221.336 100.972 221.055C101.034 220.268 101.136 219.485 101.279 218.708C101.324 218.325 101.343 217.94 101.337 217.555V217.416C101.328 217.3 101.325 217.189 101.322 217.079ZM101.322 217.079C101.322 216.956 101.322 216.834 101.3 216.711C101.279 216.588 101.282 216.481 101.266 216.364C101.251 216.247 101.239 216.131 101.223 216.014C101.208 215.898 101.186 215.781 101.165 215.665C101.143 215.548 101.122 215.431 101.097 215.315C101.097 215.275 101.082 215.238 101.073 215.198C101.039 215.045 101.002 214.891 100.962 214.735C100.922 214.578 100.898 214.486 100.861 214.364C100.861 214.308 100.83 214.253 100.812 214.201C100.793 214.149 100.76 214.023 100.732 213.934L100.677 213.762C100.652 213.686 100.628 213.609 100.6 213.532C100.554 213.394 100.505 213.259 100.456 213.121C100.406 212.983 100.354 212.848 100.302 212.713C100.198 212.437 100.084 212.164 99.9703 211.891C99.525 210.829 99.0244 209.783 98.5638 208.746C98.3162 208.202 98.0968 207.646 97.9066 207.08L97.8482 207.163C97.7548 207.304 97.6717 207.451 97.5994 207.604C97.5994 210.019 95.1794 212.974 95.1794 212.974L92.744 209.43L90.6127 212.704C90.3056 212.866 89.9985 213.425 89.7589 214.219C89.6914 214.434 89.6269 214.667 89.5655 214.916C89.5225 215.082 89.4825 215.256 89.4457 215.431C89.4242 215.52 89.4058 215.609 89.3873 215.701L89.3321 215.981V216.024C89.2952 216.214 89.2584 216.41 89.2246 216.61C89.1908 216.809 89.1509 217.039 89.1171 217.257C89.0925 217.398 89.071 217.539 89.0526 217.68C89.0096 217.953 88.9727 218.23 88.9359 218.503C88.9144 218.662 88.8929 218.809 88.8745 218.978L88.8008 219.592C88.9574 220.095 89.1324 220.592 89.3136 221.08C89.4294 221.347 89.497 221.633 89.5133 221.924C93.2818 223 97.2767 223 101.045 221.924C101.044 221.913 101.044 221.903 101.045 221.893C100.988 221.618 100.964 221.336 100.972 221.055C101.034 220.268 101.136 219.485 101.279 218.708C101.324 218.325 101.343 217.94 101.337 217.555V217.416C101.328 217.3 101.325 217.189 101.322 217.079ZM101.322 217.079C101.322 216.956 101.322 216.834 101.3 216.711C101.279 216.588 101.282 216.481 101.266 216.364C101.251 216.247 101.239 216.131 101.223 216.014C101.208 215.898 101.186 215.781 101.165 215.665C101.143 215.548 101.122 215.431 101.097 215.315C101.097 215.275 101.082 215.238 101.073 215.198C101.039 215.045 101.002 214.891 100.962 214.735C100.922 214.578 100.898 214.486 100.861 214.364C100.861 214.308 100.83 214.253 100.812 214.201C100.793 214.149 100.76 214.023 100.732 213.934L100.677 213.762C100.652 213.686 100.628 213.609 100.6 213.532C100.554 213.394 100.505 213.259 100.456 213.121C100.406 212.983 100.354 212.848 100.302 212.713C100.198 212.437 100.084 212.164 99.9703 211.891C99.525 210.829 99.0244 209.783 98.5638 208.746C98.3162 208.202 98.0968 207.646 97.9066 207.08L97.8482 207.163C97.7548 207.304 97.6717 207.451 97.5994 207.604C97.5994 210.019 95.1794 212.974 95.1794 212.974L92.744 209.43L90.6127 212.704C90.3056 212.866 89.9985 213.425 89.7589 214.219C89.6914 214.434 89.6269 214.667 89.5655 214.916C89.5225 215.082 89.4825 215.256 89.4457 215.431C89.4242 215.52 89.4058 215.609 89.3873 215.701L89.3321 215.981V216.024C89.2952 216.214 89.2584 216.41 89.2246 216.61C89.1908 216.809 89.1509 217.039 89.1171 217.257C89.0925 217.398 89.071 217.539 89.0526 217.68C89.0096 217.953 88.9727 218.23 88.9359 218.503C88.9144 218.662 88.8929 218.809 88.8745 218.978L88.8008 219.592C88.9574 220.095 89.1324 220.592 89.3136 221.08C89.4294 221.347 89.497 221.633 89.5133 221.924C93.2818 223 97.2767 223 101.045 221.924C101.044 221.913 101.044 221.903 101.045 221.893C100.988 221.618 100.964 221.336 100.972 221.055C101.034 220.268 101.136 219.485 101.279 218.708C101.324 218.325 101.343 217.94 101.337 217.555V217.416C101.328 217.3 101.325 217.189 101.322 217.079ZM101.322 217.079C101.322 216.956 101.322 216.834 101.3 216.711C101.279 216.588 101.282 216.481 101.266 216.364C101.251 216.247 101.239 216.131 101.223 216.014C101.208 215.898 101.186 215.781 101.165 215.665C101.143 215.548 101.122 215.431 101.097 215.315C101.097 215.275 101.082 215.238 101.073 215.198C101.039 215.045 101.002 214.891 100.962 214.735C100.922 214.578 100.898 214.486 100.861 214.364C100.861 214.308 100.83 214.253 100.812 214.201C100.793 214.149 100.76 214.023 100.732 213.934L100.677 213.762C100.652 213.686 100.628 213.609 100.6 213.532C100.554 213.394 100.505 213.259 100.456 213.121C100.406 212.983 100.354 212.848 100.302 212.713C100.198 212.437 100.084 212.164 99.9703 211.891C99.525 210.829 99.0244 209.783 98.5638 208.746C98.3162 208.202 98.0968 207.646 97.9066 207.08L97.8482 207.163C97.7548 207.304 97.6717 207.451 97.5994 207.604C97.5994 210.019 95.1794 212.974 95.1794 212.974L92.744 209.43L90.6127 212.704C90.3056 212.866 89.9985 213.425 89.7589 214.219C89.6914 214.434 89.6269 214.667 89.5655 214.916C89.5225 215.082 89.4825 215.256 89.4457 215.431C89.4242 215.52 89.4058 215.609 89.3873 215.701L89.3321 215.981V216.024C89.2952 216.214 89.2584 216.41 89.2246 216.61C89.1908 216.809 89.1509 217.039 89.1171 217.257C89.0925 217.398 89.071 217.539 89.0526 217.68C89.0096 217.953 88.9727 218.23 88.9359 218.503C88.9144 218.662 88.8929 218.809 88.8745 218.978L88.8008 219.592C88.9574 220.095 89.1324 220.592 89.3136 221.08C89.4294 221.347 89.497 221.633 89.5133 221.924C93.2818 223 97.2767 223 101.045 221.924C101.044 221.913 101.044 221.903 101.045 221.893C100.988 221.618 100.964 221.336 100.972 221.055C101.034 220.268 101.136 219.485 101.279 218.708C101.324 218.325 101.343 217.94 101.337 217.555V217.416C101.328 217.3 101.325 217.189 101.322 217.079ZM101.322 217.079C101.322 216.956 101.322 216.834 101.3 216.711C101.279 216.588 101.282 216.481 101.266 216.364C101.251 216.247 101.239 216.131 101.223 216.014C101.208 215.898 101.186 215.781 101.165 215.665C101.143 215.548 101.122 215.431 101.097 215.315C101.097 215.275 101.082 215.238 101.073 215.198C101.039 215.045 101.002 214.891 100.962 214.735C100.922 214.578 100.898 214.486 100.861 214.364C100.861 214.308 100.83 214.253 100.812 214.201C100.793 214.149 100.76 214.023 100.732 213.934L100.677 213.762C100.652 213.686 100.628 213.609 100.6 213.532C100.554 213.394 100.505 213.259 100.456 213.121C100.406 212.983 100.354 212.848 100.302 212.713C100.198 212.437 100.084 212.164 99.9703 211.891C99.525 210.829 99.0244 209.783 98.5638 208.746C98.3162 208.202 98.0968 207.646 97.9066 207.08L97.8482 207.163C97.7548 207.304 97.6717 207.451 97.5994 207.604C97.5994 210.019 95.1794 212.974 95.1794 212.974L92.744 209.43L90.6127 212.704C90.3056 212.866 89.9985 213.425 89.7589 214.219C89.6914 214.434 89.6269 214.667 89.5655 214.916C89.5225 215.082 89.4825 215.256 89.4457 215.431C89.4242 215.52 89.4058 215.609 89.3873 215.701L89.3321 215.981V216.024C89.2952 216.214 89.2584 216.41 89.2246 216.61C89.1908 216.809 89.1509 217.039 89.1171 217.257C89.0925 217.398 89.071 217.539 89.0526 217.68C89.0096 217.953 88.9727 218.23 88.9359 218.503C88.9144 218.662 88.8929 218.809 88.8745 218.978L88.8008 219.592C88.9574 220.095 89.1324 220.592 89.3136 221.08C89.4294 221.347 89.497 221.633 89.5133 221.924C93.2818 223 97.2767 223 101.045 221.924C101.044 221.913 101.044 221.903 101.045 221.893C100.988 221.618 100.964 221.336 100.972 221.055C101.034 220.268 101.136 219.485 101.279 218.708C101.324 218.325 101.343 217.94 101.337 217.555V217.416C101.328 217.3 101.325 217.189 101.322 217.079ZM101.322 217.079C101.322 216.956 101.322 216.834 101.3 216.711C101.279 216.588 101.282 216.481 101.266 216.364C101.251 216.247 101.239 216.131 101.223 216.014C101.208 215.898 101.186 215.781 101.165 215.665C101.143 215.548 101.122 215.431 101.097 215.315C101.097 215.275 101.082 215.238 101.073 215.198C101.039 215.045 101.002 214.891 100.962 214.735C100.922 214.578 100.898 214.486 100.861 214.364C100.861 214.308 100.83 214.253 100.812 214.201C100.793 214.149 100.76 214.023 100.732 213.934L100.677 213.762C100.652 213.686 100.628 213.609 100.6 213.532C100.554 213.394 100.505 213.259 100.456 213.121C100.406 212.983 100.354 212.848 100.302 212.713C100.198 212.437 100.084 212.164 99.9703 211.891C99.525 210.829 99.0244 209.783 98.5638 208.746C98.3162 208.202 98.0968 207.646 97.9066 207.08L97.8482 207.163C97.7548 207.304 97.6717 207.451 97.5994 207.604C97.5994 210.019 95.1794 212.974 95.1794 212.974L92.744 209.43L90.6127 212.704C90.3056 212.866 89.9985 213.425 89.7589 214.219C89.6914 214.434 89.6269 214.667 89.5655 214.916C89.5225 215.082 89.4825 215.256 89.4457 215.431C89.4242 215.52 89.4058 215.609 89.3873 215.701L89.3321 215.981V216.024C89.2952 216.214 89.2584 216.41 89.2246 216.61C89.1908 216.809 89.1509 217.039 89.1171 217.257C89.0925 217.398 89.071 217.539 89.0526 217.68C89.0096 217.953 88.9727 218.23 88.9359 218.503C88.9144 218.662 88.8929 218.809 88.8745 218.978L88.8008 219.592C88.9574 220.095 89.1324 220.592 89.3136 221.08C89.4294 221.347 89.497 221.633 89.5133 221.924C93.2818 223 97.2767 223 101.045 221.924C101.044 221.913 101.044 221.903 101.045 221.893C100.988 221.618 100.964 221.336 100.972 221.055C101.034 220.268 101.136 219.485 101.279 218.708C101.324 218.325 101.343 217.94 101.337 217.555V217.416C101.328 217.3 101.325 217.189 101.322 217.079ZM101.322 217.079C101.322 216.956 101.322 216.834 101.3 216.711C101.279 216.588 101.282 216.481 101.266 216.364C101.251 216.247 101.239 216.131 101.223 216.014C101.208 215.898 101.186 215.781 101.165 215.665C101.143 215.548 101.122 215.431 101.097 215.315C101.097 215.275 101.082 215.238 101.073 215.198C101.039 215.045 101.002 214.891 100.962 214.735C100.922 214.578 100.898 214.486 100.861 214.364C100.861 214.308 100.83 214.253 100.812 214.201C100.793 214.149 100.76 214.023 100.732 213.934L100.677 213.762C100.652 213.686 100.628 213.609 100.6 213.532C100.554 213.394 100.505 213.259 100.456 213.121C100.406 212.983 100.354 212.848 100.302 212.713C100.198 212.437 100.084 212.164 99.9703 211.891C99.525 210.829 99.0244 209.783 98.5638 208.746C98.3162 208.202 98.0968 207.646 97.9066 207.08L97.8482 207.163C97.7548 207.304 97.6717 207.451 97.5994 207.604C97.5994 210.019 95.1794 212.974 95.1794 212.974L92.744 209.43L90.6127 212.704C90.3056 212.866 89.9985 213.425 89.7589 214.219C89.6914 214.434 89.6269 214.667 89.5655 214.916C89.5225 215.082 89.4825 215.256 89.4457 215.431C89.4242 215.52 89.4058 215.609 89.3873 215.701L89.3321 215.981V216.024C89.2952 216.214 89.2584 216.41 89.2246 216.61C89.1908 216.809 89.1509 217.039 89.1171 217.257C89.0925 217.398 89.071 217.539 89.0526 217.68C89.0096 217.953 88.9727 218.23 88.9359 218.503C88.9144 218.662 88.8929 218.809 88.8745 218.978L88.8008 219.592C88.9574 220.095 89.1324 220.592 89.3136 221.08C89.4294 221.347 89.497 221.633 89.5133 221.924C93.2818 223 97.2767 223 101.045 221.924C101.044 221.913 101.044 221.903 101.045 221.893C100.988 221.618 100.964 221.336 100.972 221.055C101.034 220.268 101.136 219.485 101.279 218.708C101.324 218.325 101.343 217.94 101.337 217.555V217.416C101.328 217.3 101.325 217.189 101.322 217.079Z" fill="#444176"/>
<path opacity="0.1" d="M92.7871 209.224L92.5813 209.197C92.2707 209.155 91.9629 209.093 91.66 209.013L91.5464 208.982C90.797 208.77 89.977 208.39 89.7928 207.721C89.7379 207.506 89.7443 207.279 89.8112 207.067C89.9143 206.702 90.0542 206.349 90.2289 206.012V205.993C90.252 205.946 90.2776 205.9 90.3056 205.855C90.559 205.361 90.9422 204.944 91.4143 204.65L91.0458 204.708L87.9255 205.214L83.0886 205.993C83.0886 205.993 82.2287 205.822 81.0586 209.043C81.0586 209.083 81.0309 209.12 81.0187 209.163C80.7361 209.951 80.4382 210.936 80.1311 212.167C79.9192 213.02 79.7257 213.857 79.5476 214.67C79.4954 214.916 79.4432 215.158 79.394 215.398C79.9478 216.05 80.5438 216.665 81.1783 217.238L81.2797 217.334C82.5225 218.458 83.8959 219.429 85.3704 220.227L85.4287 220.258C86.3563 220.757 87.3215 221.184 88.3156 221.534L88.5766 221.626C88.6319 221.058 88.6933 220.429 88.767 219.785C88.767 219.721 88.767 219.656 88.7916 219.592L88.8653 218.978C88.8837 218.822 88.9052 218.671 88.9267 218.503C88.9636 218.23 89.0004 217.953 89.0434 217.68C89.0619 217.539 89.0833 217.398 89.1079 217.257C89.1417 217.039 89.1786 216.821 89.2154 216.61C89.2523 216.398 89.286 216.214 89.3229 216.023V215.981L89.3782 215.701C89.3966 215.609 89.415 215.52 89.4365 215.431C89.4734 215.256 89.5133 215.082 89.5563 214.916C89.6177 214.667 89.6822 214.434 89.7498 214.219C89.9955 213.425 90.2811 212.866 90.6035 212.704L92.7349 209.43L92.8239 209.292L92.8639 209.23L92.7871 209.224Z" fill="black"/>
<path opacity="0.1" d="M93.2999 192.889C94.2581 192.727 95.2224 192.377 96.1744 192.583C96.9729 192.748 97.6394 193.279 98.3703 193.647C99.076 194.002 99.8479 194.206 100.637 194.245C100.924 194.283 101.217 194.226 101.469 194.083C101.85 193.819 101.905 193.279 101.841 192.819C101.656 191.512 100.839 190.389 99.998 189.37C99.6621 188.935 99.2743 188.542 98.8432 188.201C97.7407 187.388 96.2819 187.25 94.9153 187.311C93.3552 187.382 91.7705 187.683 90.4162 188.465C89.4948 188.993 87.3819 190.656 88.1159 191.858C88.8868 193.116 92.093 193.095 93.2999 192.889Z" fill="black"/>
<path opacity="0.5" d="M93.2999 192.582C94.2581 192.42 95.2224 192.07 96.1744 192.276C96.9729 192.441 97.6394 192.972 98.3703 193.34C99.076 193.695 99.8479 193.899 100.637 193.939C100.924 193.976 101.217 193.919 101.469 193.776C101.85 193.512 101.905 192.972 101.841 192.512C101.656 191.205 100.839 190.082 99.998 189.063C99.6621 188.628 99.2743 188.235 98.8432 187.894C97.7407 187.081 96.2819 186.943 94.9153 187.004C93.3552 187.075 91.7705 187.376 90.4162 188.158C89.4948 188.686 87.3819 190.349 88.1159 191.551C88.8868 192.809 92.093 192.788 93.2999 192.582Z" fill="#444176"/>
</g>
<path d="M177.635 177.557H177.681C177.749 179.613 178.04 181.472 178.602 181.988C179.941 183.215 185.494 180.761 185.113 179.276C185.036 178.969 184.907 178.466 184.745 177.83C186.243 177.643 187.524 177.217 188.034 176.339L188.998 179.309L189.066 179.521H189.084H189.139C189.775 185.541 191.215 198.041 192.367 199.716C193.903 201.934 195.668 211.547 195.668 211.547L198.97 231.266C198.97 231.266 200.241 242.619 201.003 243.846C201.225 244.08 201.519 244.233 201.838 244.279C201.393 245.61 200.754 247.166 199.996 248.034C198.46 249.759 196.439 253.21 194.661 252.965C192.883 252.719 192.376 256.417 195.678 256.907C197.505 257.181 200.419 256.849 202.658 256.499C202.658 257.487 203.346 258.623 205.075 258.88C208.377 259.374 215.234 257.895 215.234 257.895C215.234 257.895 221.07 255.441 221.331 253.704C221.515 252.446 220.621 247.396 220.124 244.748C221.045 243.272 220.062 230.536 220.062 230.536L218.284 206.135C218.284 206.135 219.301 192.579 218.284 190.113C217.648 188.578 217.412 181.522 217.323 176.474L218.551 176.554C218.621 176.47 218.685 176.381 218.742 176.287L219.049 176.309C219.049 176.309 220.584 174.584 219.304 171.872C218.361 169.856 218.539 160.756 218.689 156.224L218.871 154.076C218.938 154.011 218.989 153.931 219.021 153.843C221.403 153.522 223.718 152.822 225.879 151.769C226.531 151.498 227.138 151.13 227.678 150.677C228.95 149.45 228.185 142.049 225.645 130.957C223.106 119.866 220.821 120.851 220.821 120.851C220.821 120.851 214.725 120.357 211.93 116.66C209.135 112.962 207.259 113.011 207.259 113.011C207.188 112.527 207.139 112.069 207.105 111.643C207.105 111.483 207.081 111.336 207.071 111.177C208.022 110.294 208.746 109.197 209.184 107.976C209.756 107.67 210.459 107.568 211.006 107.182C211.145 107.081 211.272 106.963 211.383 106.832C211.931 106.327 212.279 105.642 212.363 104.902C212.45 104.094 212.412 103.278 212.249 102.481C212.056 101.303 211.77 100.097 211.082 99.1707C210.394 98.2441 209.366 97.6857 208.374 97.1672C205.687 95.7579 202.994 94.3628 200.294 92.9821C199.766 92.6601 199.177 92.4511 198.565 92.3685C197.484 92.3071 196.513 93.0466 195.641 93.7492C195.293 94.0228 194.96 94.3147 194.643 94.6236C194.373 94.8623 194.127 95.1264 193.909 95.4122C192.889 96.7775 192.456 99.3487 192.905 101.055C193.046 101.595 193.35 101.751 193.724 101.745C193.168 102.849 192.879 104.068 192.88 105.304C192.886 106.657 193.233 107.987 193.888 109.172C194.543 110.356 195.486 111.357 196.63 112.082C196.63 112.254 196.63 112.422 196.645 112.585C196.658 113.215 196.637 113.844 196.584 114.472C196.584 114.472 189.827 118.12 189.069 119.844C188.31 121.569 185.512 122.802 185.512 122.802C185.512 122.802 180.178 125.514 180.178 135.127L177.383 148.682L176.876 174.563C176.876 174.563 177.227 174.256 177.798 173.82C177.779 173.992 177.764 174.17 177.749 174.351C177.673 175.34 177.647 176.333 177.672 177.324L177.635 177.557ZM211.755 244.54C211.65 244.935 211.497 245.46 211.303 246.074C211.217 245.564 211.131 245.061 211.045 244.582C211.267 244.561 211.503 244.549 211.755 244.54Z" fill="url(#paint2_linear)"/>
<path d="M202.53 241.361C202.53 241.361 201.55 245.761 200.073 247.47C198.595 249.179 196.661 252.603 194.953 252.357C193.246 252.112 192.751 255.778 195.933 256.266C199.114 256.754 205.702 255.291 205.702 255.291C205.702 255.291 211.328 252.836 211.571 251.136C211.813 249.436 210.103 240.628 210.103 240.628L202.53 241.361Z" fill="#53526B"/>
<path opacity="0.05" d="M202.53 241.361C202.53 241.361 201.55 245.761 200.073 247.47C198.595 249.179 196.661 252.603 194.953 252.357C193.246 252.112 192.751 255.778 195.933 256.266C199.114 256.754 205.702 255.291 205.702 255.291C205.702 255.291 211.328 252.836 211.571 251.136C211.813 249.436 210.103 240.628 210.103 240.628L202.53 241.361Z" fill="black"/>
<path d="M211.58 243.315C211.58 243.315 210.6 247.715 209.123 249.424C207.646 251.133 205.702 254.557 203.997 254.312C202.293 254.066 201.795 257.733 204.977 258.221C208.159 258.708 214.762 257.242 214.762 257.242C214.762 257.242 220.388 254.787 220.63 253.088C220.873 251.388 219.162 242.579 219.162 242.579L211.58 243.315Z" fill="#53526B"/>
<path d="M189.321 176.364C189.321 176.364 191.277 197.378 192.745 199.578C194.213 201.778 195.924 211.308 195.924 211.308L199.102 230.855C199.102 230.855 200.331 242.097 201.059 243.318C201.786 244.54 210.865 244.015 210.865 244.015L205.22 179.294L189.321 176.364Z" fill="#5F5D7E"/>
<path opacity="0.05" d="M189.321 176.364C189.321 176.364 191.277 197.378 192.745 199.578C194.213 201.778 195.924 211.308 195.924 211.308L199.102 230.855C199.102 230.855 200.331 242.097 201.059 243.318C201.786 244.54 210.865 244.015 210.865 244.015L205.22 179.294L189.321 176.364Z" fill="black"/>
<path d="M185.408 166.34L186.047 168.368L189.502 179.325L189.57 179.533H189.588C190.052 179.638 199.842 181.887 201.955 182.577C202.069 182.612 202.181 182.654 202.29 182.703C203.27 183.191 204.492 200.784 204.492 200.784C204.492 200.784 205.226 217.401 205.72 218.622C206.215 219.844 208.177 245.009 209.39 244.279C210.603 243.549 219.417 244.279 219.417 244.279C220.397 243.3 219.417 230.107 219.417 230.107L217.679 205.92C217.679 205.92 218.659 192.481 217.679 190.036C216.7 187.591 216.7 171.222 216.7 171.222L196.679 168.095L194.744 167.788L185.408 166.34Z" fill="#5F5D7E"/>
<path opacity="0.02" d="M186.047 168.371L189.502 179.328L189.585 179.543C190.049 179.647 199.839 181.896 201.952 182.586H202.164L196.694 168.098L196.538 167.681L194.76 167.794L186.047 168.371Z" fill="black"/>
<path opacity="0.1" d="M208.89 117.472C208.89 117.472 199.839 127.248 194.213 119.181L188.832 122.848L189.812 128.469L186.63 170.985C186.63 170.985 194.947 170.74 200.816 172.694C202.45 173.273 204.216 173.374 205.906 172.984C207.596 172.595 209.14 171.731 210.355 170.494L209.387 133.111L211.589 121.627L208.89 117.472Z" fill="black"/>
<path d="M208.89 116.739C208.89 116.739 199.839 126.515 194.213 118.448L188.832 122.115L189.812 127.736L186.63 170.252C186.63 170.252 194.947 170.006 200.816 171.961C202.45 172.54 204.216 172.641 205.906 172.251C207.596 171.861 209.14 170.997 210.355 169.761L209.387 132.378L211.589 120.894L208.89 116.739Z" fill="#53526B"/>
<path d="M190.822 160.271V161.811H190.331V160.786H188.535V161.811H188.04V160.274L190.822 160.271Z" fill="#E82127"/>
<path d="M190.383 159.774H188.485C188.361 159.744 188.247 159.681 188.156 159.591C188.065 159.501 188 159.389 187.969 159.265H190.896C190.864 159.388 190.8 159.501 190.709 159.591C190.618 159.681 190.504 159.744 190.38 159.774" fill="#E82127"/>
<path d="M207.544 159.283C207.512 159.406 207.447 159.517 207.357 159.606C207.267 159.695 207.154 159.759 207.031 159.789H206.233L206.193 159.805V161.817H205.702V159.805L205.656 159.789H204.857C204.735 159.758 204.623 159.694 204.533 159.605C204.442 159.516 204.378 159.405 204.344 159.283H207.544Z" fill="#E82127"/>
<path d="M190.055 167.322C190.055 167.322 190.055 173.676 188.587 176.364C187.119 179.052 178.56 177.591 178.56 177.591L180.27 168.549L190.055 167.322Z" fill="#D6DBE6"/>
<path d="M179.49 181.988C180.78 183.215 186.127 180.761 185.758 179.3C185.5 178.266 184.597 174.566 184.084 172.467L183.728 170.991C183.728 170.991 180.596 170.013 179.49 170.991C179.088 171.347 178.805 172.75 178.673 174.443C178.446 177.386 178.676 181.209 179.49 181.988Z" fill="#FDC2CC"/>
<path d="M191.268 121.136L199.827 127.733C199.827 127.733 212.544 126.999 209.366 120.891C207.981 118.204 207.146 115.269 206.909 112.257C206.805 111.145 206.805 110.027 206.909 108.915C206.909 108.915 195.168 98.1765 196.636 110.382C196.752 111.319 196.819 112.261 196.839 113.205C197.014 122.366 191.268 121.136 191.268 121.136Z" fill="#FDC2CC"/>
<path opacity="0.1" d="M196.661 110.385C196.776 111.322 196.844 112.264 196.863 113.208C198.181 114.08 199.727 114.543 201.307 114.539C203.497 114.539 205.109 112.41 206.565 110.996C206.402 108.968 206.93 108.918 206.93 108.918C206.93 108.918 195.193 98.1675 196.661 110.385Z" fill="black"/>
<path d="M201.307 114.051C205.765 114.051 209.378 110.441 209.378 105.988C209.378 101.535 205.765 97.9249 201.307 97.9249C196.85 97.9249 193.236 101.535 193.236 105.988C193.236 110.441 196.85 114.051 201.307 114.051Z" fill="#FDC2CC"/>
<path opacity="0.1" d="M207.053 113.683C207.053 113.683 208.398 113.806 211.089 117.469C213.779 121.133 219.648 121.624 219.648 121.624C219.648 121.624 221.85 120.645 224.294 131.642C226.739 142.638 227.473 149.968 226.251 151.189C225.028 152.41 220.136 154.125 217.679 154.125C217.679 154.125 216.945 169.519 218.167 172.206C219.39 174.894 217.922 176.606 217.922 176.606L207.173 175.873C207.173 175.873 203.503 171.231 202.769 163.167C202.035 155.104 199.59 132.132 200.813 129.445C202.035 126.757 207.416 119.915 207.173 119.182C206.93 118.448 207.053 113.683 207.053 113.683Z" fill="black"/>
<path d="M207.081 113.61C207.081 113.61 208.89 113.561 211.58 117.227C214.27 120.894 220.136 121.382 220.136 121.382C220.136 121.382 222.338 120.403 224.783 131.399C227.227 142.396 227.961 149.726 226.739 150.947C225.517 152.168 220.624 153.88 218.18 153.88C218.18 153.88 217.446 169.273 218.668 171.961C219.89 174.649 218.422 176.361 218.422 176.361L207.674 175.628C207.674 175.628 204.004 170.985 203.27 162.922C202.536 154.859 200.085 131.89 201.307 129.215C202.53 126.539 207.91 119.685 207.667 118.952C207.425 118.218 207.081 113.61 207.081 113.61Z" fill="#D6DBE6"/>
<path opacity="0.1" d="M178.676 174.44C179.846 173.547 182.054 172.157 184.088 172.464L183.731 170.988C183.731 170.988 180.599 170.01 179.493 170.988C179.085 171.344 178.805 172.744 178.676 174.44Z" fill="black"/>
<path opacity="0.1" d="M196.795 115.15C196.795 115.15 190.558 119.182 189.824 120.894C189.09 122.606 186.4 123.827 186.4 123.827C186.4 123.827 181.265 126.515 181.265 136.044L178.575 149.483L190.804 166.589C190.804 166.589 192.272 149.483 193.006 145.329C193.74 141.175 194.716 133.363 194.716 133.363C194.716 133.363 198.386 128.721 197.895 127.5C197.404 126.278 196.795 115.15 196.795 115.15Z" fill="black"/>
<path d="M196.796 115.076C196.796 115.076 190.291 118.694 189.56 120.403C188.829 122.112 186.136 123.336 186.136 123.336C186.136 123.336 181.001 126.024 181.001 135.554L178.311 148.992L177.822 174.649C177.822 174.649 182.226 170.494 185.405 172.449C188.583 174.403 190.54 166.095 190.54 166.095C190.54 166.095 192.008 148.989 192.742 144.835C193.476 140.681 194.452 132.869 194.452 132.869C194.452 132.869 198.122 128.227 197.631 127.006C197.139 125.784 196.796 115.076 196.796 115.076Z" fill="#D6DBE6"/>
<path opacity="0.1" d="M194.222 96.1793C194.636 95.653 195.115 95.1808 195.647 94.774C196.489 94.0745 197.419 93.3442 198.463 93.4056C199.054 93.4842 199.621 93.687 200.128 94.0008C202.728 95.3693 205.321 96.752 207.907 98.149C208.862 98.6645 209.848 99.2107 210.514 100.137C211.181 101.064 211.451 102.254 211.638 103.42C211.795 104.21 211.832 105.019 211.749 105.82C211.673 106.605 211.291 107.329 210.686 107.835C209.989 108.342 209.034 108.345 208.451 109.007C208.113 109.391 207.965 109.928 207.726 110.394C207.486 110.861 207.072 111.315 206.599 111.232C206.126 111.149 205.84 110.649 205.773 110.143C205.743 109.63 205.772 109.115 205.862 108.609C205.954 107.688 205.837 106.712 205.303 106.028C204.934 105.562 204.406 105.28 204.05 104.801C203.196 103.647 203.586 101.733 202.649 100.65C202.377 100.367 202.035 100.161 201.657 100.053C201.28 99.945 200.88 99.9392 200.5 100.036C199.741 100.196 199.047 100.607 198.35 100.956C197.408 101.431 196.421 101.811 195.405 102.092C194.551 102.325 193.562 102.883 193.27 101.748C192.825 100.082 193.239 97.5323 194.222 96.1793Z" fill="black"/>
<path d="M194.468 95.9368C194.882 95.4105 195.361 94.9383 195.893 94.5315C196.734 93.832 197.665 93.1017 198.709 93.1631C199.3 93.2417 199.867 93.4446 200.373 93.7583C202.972 95.1268 205.131 93.832 208.152 97.9066C208.797 98.7779 210.093 98.9682 210.76 99.8948C211.426 100.821 211.697 102.012 211.884 103.178C212.041 103.967 212.078 104.776 211.994 105.577C211.918 106.362 211.537 107.086 210.932 107.593C210.235 108.099 209.28 108.102 208.696 108.765C208.358 109.148 208.211 109.685 207.971 110.152C207.732 110.618 207.317 111.072 206.844 110.989C206.371 110.907 206.086 110.406 206.018 109.9C205.988 109.387 206.018 108.872 206.107 108.366C206.199 107.446 206.083 106.47 205.548 105.786C205.18 105.319 204.651 105.037 204.295 104.558C203.441 103.405 203.831 101.49 202.895 100.407C202.623 100.124 202.281 99.9181 201.903 99.8103C201.525 99.7025 201.126 99.6967 200.745 99.7935C199.986 99.953 199.292 100.364 198.595 100.714C197.653 101.189 196.667 101.569 195.65 101.849C194.796 102.082 193.807 102.641 193.516 101.506C193.067 99.8395 193.485 97.2868 194.468 95.9368Z" fill="#865A61"/>
<path opacity="0.1" d="M216.512 133.231C216.512 133.231 219.773 141.54 217.326 144.961L211.945 143.734C211.945 143.734 216.838 145.2 216.104 142.267C215.37 139.334 216.512 133.231 216.512 133.231Z" fill="black"/>
<path opacity="0.1" d="M218.293 153.76C218.293 153.76 211.199 154.248 209.243 152.781C211.819 154.746 214.861 156.009 218.072 156.448L218.293 153.76Z" fill="black"/>
<path opacity="0.1" d="M187.733 138.112C187.733 138.112 184.063 149.354 184.309 151.063C184.554 152.772 185.043 171.59 185.043 171.59L185.777 171.344L185.531 150.818L187.733 138.112Z" fill="black"/>
<path d="M219.156 151.852L135.315 84.3513C134.827 83.864 134.248 83.4776 133.61 83.2144C132.973 82.9511 132.289 82.8162 131.599 82.8172H128.037C135.156 73.7027 138.527 62.2185 137.463 50.7063C136.399 39.1941 130.98 28.5209 122.311 20.8628C113.642 13.2047 102.376 9.13845 90.8089 9.49321C79.2424 9.84797 68.2468 14.597 60.0641 22.772C51.8815 30.9469 47.128 41.9322 46.7729 53.4879C46.4178 65.0436 50.4878 76.2995 58.1531 84.9606C65.8184 93.6216 76.5017 99.0356 88.0247 100.099C99.5477 101.161 111.043 97.7934 120.166 90.681V94.2371C120.165 94.9264 120.3 95.6091 120.563 96.2461C120.827 96.8832 121.214 97.4621 121.701 97.9496L205.542 165.45C206.027 165.939 206.605 166.327 207.241 166.592C207.877 166.857 208.56 166.993 209.249 166.993C209.938 166.993 210.621 166.857 211.257 166.592C211.893 166.327 212.47 165.939 212.956 165.45L219.135 159.283C220.121 158.299 220.676 156.964 220.68 155.572C220.685 154.179 220.137 152.842 219.156 151.852ZM92.1758 82.8172C86.6399 82.8172 81.2283 81.1771 76.6254 78.1044C72.0225 75.0318 68.4349 70.6644 66.3165 65.5547C64.198 60.445 63.6437 54.8225 64.7237 49.398C65.8037 43.9736 68.4694 38.991 72.3839 35.0802C76.2984 31.1694 81.2857 28.5061 86.7152 27.4271C92.1447 26.3481 97.7726 26.9019 102.887 29.0184C108.002 31.1349 112.373 34.7191 115.449 39.3177C118.524 43.9163 120.166 49.3228 120.166 54.8535C120.169 58.5268 119.447 62.1647 118.041 65.559C116.635 68.9533 114.574 72.0375 111.974 74.6353C109.375 77.233 106.288 79.2933 102.891 80.6982C99.4937 82.1032 95.8526 82.8253 92.1758 82.8233V82.8172Z" fill="url(#paint3_linear)"/>
<path d="M219.771 151.238L135.93 83.7376C135.442 83.2503 134.862 82.864 134.225 82.6007C133.587 82.3375 132.904 82.2025 132.214 82.2035H128.651C135.77 73.089 139.142 61.6049 138.078 50.0927C137.014 38.5805 131.595 27.9072 122.925 20.2491C114.256 12.591 102.99 8.5248 91.4232 8.87956C79.8566 9.23432 68.861 13.9833 60.6784 22.1583C52.4957 30.3333 47.7422 41.3186 47.3871 52.8743C47.0321 64.43 51.1021 75.6859 58.7674 84.3469C66.4327 93.008 77.116 98.4219 88.639 99.4849C100.162 100.548 111.657 97.1797 120.78 90.0674V93.6234C120.779 94.3127 120.914 94.9955 121.178 95.6325C121.441 96.2696 121.828 96.8484 122.316 97.3359L206.156 164.837C206.642 165.325 207.219 165.714 207.855 165.978C208.492 166.243 209.174 166.379 209.863 166.379C210.552 166.379 211.235 166.243 211.871 165.978C212.507 165.714 213.085 165.325 213.57 164.837L219.749 158.669C220.735 157.685 221.291 156.351 221.295 154.958C221.299 153.566 220.751 152.228 219.771 151.238ZM92.79 82.2035C87.2542 82.2035 81.8426 80.5635 77.2397 77.4908C72.6367 74.4181 69.0492 70.0508 66.9307 64.9411C64.8122 59.8314 64.2579 54.2088 65.3379 48.7844C66.4179 43.36 69.0837 38.3773 72.9982 34.4665C76.9126 30.5558 81.9 27.8925 87.3295 26.8135C92.759 25.7345 98.3868 26.2883 103.501 28.4048C108.616 30.5213 112.987 34.1055 116.063 38.7041C119.138 43.3027 120.78 48.7092 120.78 54.2398C120.783 57.9132 120.061 61.551 118.655 64.9454C117.25 68.3397 115.188 71.4239 112.589 74.0216C109.989 76.6193 106.902 78.6796 103.505 80.0846C100.108 81.4896 96.4668 82.2117 92.79 82.2097V82.2035Z" fill="#026FC2"/>
<path d="M213.536 145.084C213.536 145.084 201.298 131.062 203.018 140.684C204.246 147.526 208.887 151.192 211.089 151.926C213.291 152.659 213.536 145.084 213.536 145.084Z" fill="#FDC2CC"/>
<path d="M216.472 132.133C216.472 132.133 216.718 141.175 217.94 142.396C219.162 143.617 217.206 145.084 217.206 145.084L212.314 143.856C212.314 143.856 213.542 151.92 208.401 150.944C208.401 150.944 211.826 154.119 215.25 154.61C218.674 155.101 218.428 153.877 218.428 153.877L223.563 147.768L216.472 132.133Z" fill="#D6DBE6"/>
<path d="M217.826 154.009L222.789 152.92L222.126 150.634L219.055 149.407L215.062 151.247L217.826 154.009Z" fill="#D6DBE6"/>
<path d="M95.852 65.8284L102.458 60.7382C102.458 60.7382 98.0324 61.6863 98.1584 54.6202C98.1568 54.5967 98.1568 54.5731 98.1584 54.5496C98.1584 53.9114 98.2198 53.2119 98.3119 52.4418C99.4451 43.0131 90.3854 51.3096 90.3854 51.3096C90.4634 52.1444 90.4634 52.9846 90.3854 53.8194C90.3854 53.8409 90.3854 53.8654 90.3854 53.8869C90.2062 56.2104 89.5652 58.4749 88.4998 60.548C86.0398 65.2607 95.852 65.8284 95.852 65.8284Z" fill="#FDC2CC"/>
<path opacity="0.1" d="M91.2301 52.5093C92.351 53.5985 93.0359 55.5775 94.7219 55.5775C95.9418 55.5801 97.1353 55.2225 98.1523 54.5496C98.1523 53.9114 98.2138 53.2119 98.3059 52.4418C99.4391 43.0131 90.3794 51.3096 90.3794 51.3096C90.3794 51.3096 91.3499 50.9751 91.2301 52.5093Z" fill="black"/>
<path d="M94.7218 55.2708C98.1615 55.2708 100.95 52.485 100.95 49.0485C100.95 45.612 98.1615 42.8262 94.7218 42.8262C91.2821 42.8262 88.4937 45.612 88.4937 49.0485C88.4937 52.485 91.2821 55.2708 94.7218 55.2708Z" fill="#FDC2CC"/>
<path opacity="0.1" d="M100.695 41.0803C100.338 40.6293 99.9249 40.2252 99.4664 39.8776C98.7477 39.2793 97.9492 38.6503 97.0556 38.7055C96.5499 38.7728 96.0642 38.9464 95.6306 39.2149C93.404 40.3869 91.5583 39.2793 88.9694 42.7648C88.4166 43.5104 87.3079 43.6852 86.7367 44.4676C86.1655 45.25 85.9351 46.2779 85.7724 47.2781C85.6378 47.9547 85.6057 48.6477 85.6771 49.3338C85.7454 50.0073 86.0764 50.6268 86.5985 51.0582C87.1943 51.4908 88.0143 51.4938 88.5148 52.0615C88.7666 52.4312 88.9728 52.8299 89.1291 53.2489C89.3318 53.6477 89.688 54.0251 90.0934 53.9668C90.4988 53.9085 90.7414 53.4698 90.7997 53.0464C90.8251 52.6082 90.7993 52.1685 90.723 51.7362C90.6462 50.96 90.7445 50.1132 91.202 49.5271C91.5092 49.1252 91.9698 48.8859 92.2739 48.4778C93.0048 47.4929 92.6731 45.8391 93.4747 44.9248C93.7091 44.6843 94.0031 44.5102 94.3268 44.4202C94.6505 44.3302 94.9922 44.3275 95.3173 44.4124C95.9629 44.5965 96.5821 44.8625 97.16 45.204C97.9662 45.6106 98.8108 45.9364 99.6813 46.1766C100.412 46.3761 101.26 46.8547 101.509 45.8698C101.899 44.4216 101.533 42.2371 100.695 41.0803Z" fill="black"/>
<path d="M100.695 40.7733C100.338 40.3223 99.9249 39.9182 99.4664 39.5706C98.7477 38.9723 97.9492 38.3433 97.0556 38.3985C96.5499 38.4658 96.0642 38.6394 95.6306 38.9079C93.404 40.0799 91.5583 38.9723 88.9694 42.4578C88.4166 43.2034 87.3079 43.3782 86.7367 44.1606C86.1655 44.943 85.9351 45.9709 85.7724 46.9711C85.6378 47.6477 85.6057 48.3407 85.6771 49.0268C85.7454 49.7003 86.0764 50.3197 86.5985 50.7512C87.1943 51.1838 88.0143 51.1868 88.5148 51.7545C88.7666 52.1242 88.9728 52.5229 89.1291 52.9419C89.3318 53.3407 89.688 53.7181 90.0934 53.6598C90.4988 53.6015 90.7414 53.1628 90.7997 52.7394C90.8251 52.3011 90.7993 51.8615 90.723 51.4292C90.6462 50.653 90.7445 49.8061 91.202 49.2201C91.5092 48.8182 91.9698 48.5789 92.2739 48.1708C93.0048 47.1859 92.6731 45.5321 93.4747 44.6178C93.7091 44.3773 94.0031 44.2032 94.3268 44.1132C94.6505 44.0232 94.9922 44.0205 95.3173 44.1054C95.9629 44.2895 96.5821 44.5555 97.16 44.897C97.9662 45.3036 98.8108 45.6294 99.6813 45.8696C100.412 46.0691 101.26 46.5477 101.509 45.5628C101.899 44.1146 101.533 41.93 100.695 40.7733Z" fill="#865A61"/>
<path opacity="0.1" d="M88.4933 69.1023L88.3705 73.812C90.1552 74.2966 91.9967 74.5411 93.8462 74.5392C94.1533 74.5392 94.4758 74.5392 94.789 74.5177C96.4292 74.4471 98.055 74.1813 99.6322 73.7261H99.6629C99.9546 73.6402 100.243 73.5512 100.529 73.453H100.56L100.821 73.361C101.815 73.0112 102.78 72.5845 103.708 72.0846L103.766 72.0539C103.867 71.9987 103.969 71.9434 104.073 71.8852L103.597 65.537L104.356 61.1832L100.203 58.3574C99.9703 58.6937 99.7094 59.0098 99.4233 59.3024C99.0134 59.7301 98.5336 60.085 98.0045 60.3518C95.0255 61.8184 91.635 59.4865 89.949 58.0445L89.5651 57.7039C89.129 57.3081 88.8803 57.0381 88.8803 57.0381L86.8042 60.2413L88.4933 69.1023Z" fill="black"/>
<path d="M88.4933 69.4091L88.3705 74.1188C90.1552 74.6033 91.9967 74.8479 93.8462 74.8459C94.1533 74.8459 94.4758 74.8459 94.789 74.8244C96.4292 74.7538 98.055 74.4881 99.6322 74.0328H99.6629C99.9546 73.9469 100.243 73.858 100.529 73.7598H100.56L100.821 73.6677C101.815 73.318 102.78 72.8912 103.708 72.3913L103.766 72.3607C103.867 72.3054 103.969 72.2502 104.073 72.1919L103.597 65.8438L104.356 61.49L100.203 58.6642C99.9703 59.0004 99.7094 59.3166 99.4233 59.6092C99.0134 60.0369 98.5336 60.3917 98.0045 60.6585C95.0255 62.1251 91.635 59.7933 89.949 58.3512L89.5651 58.0106C89.129 57.6149 88.8803 57.3448 88.8803 57.3448L86.8042 60.5481L88.4933 69.4091Z" fill="#53526B"/>
<path d="M100.004 69.7865C100.004 69.7865 100.231 71.5937 100.529 73.7537H100.56L100.821 73.6617C101.815 73.3119 102.78 72.8852 103.708 72.3853L103.766 72.3546C103.868 72.2994 103.969 72.2442 104.073 72.1859C105.435 71.4224 106.706 70.5085 107.863 69.4613L107.964 69.3662C108.599 68.7923 109.195 68.1773 109.749 67.5253L109.813 67.4485C108.717 63.647 106.435 62.4504 106.435 62.4504C106.435 62.4504 104.359 61.5054 103.791 60.1861C103.223 58.8668 98.2076 56.0778 98.2076 56.0778V56.0992C98.2076 56.3355 98.1277 58.4986 98.008 60.6739C97.9312 62.0884 97.836 63.509 97.7254 64.411C97.7015 64.7041 97.648 64.9939 97.5657 65.2763C97.1757 66.2059 100.004 69.7865 100.004 69.7865Z" fill="#555388"/>
</g>
<defs>
<linearGradient id="paint0_linear" x1="157.94" y1="243.8" x2="157.94" y2="12.0549" gradientUnits="userSpaceOnUse">
<stop stop-color="#808080" stop-opacity="0.25"/>
<stop offset="0.54" stop-color="#808080" stop-opacity="0.12"/>
<stop offset="1" stop-color="#808080" stop-opacity="0.1"/>
</linearGradient>
<linearGradient id="paint1_linear" x1="11486.9" y1="19007.6" x2="11486.9" y2="14513.9" gradientUnits="userSpaceOnUse">
<stop stop-color="#808080" stop-opacity="0.25"/>
<stop offset="0.54" stop-color="#808080" stop-opacity="0.12"/>
<stop offset="1" stop-color="#808080" stop-opacity="0.1"/>
</linearGradient>
<linearGradient id="paint2_linear" x1="-53700.8" y1="144715" x2="-53700.8" y2="54242.7" gradientUnits="userSpaceOnUse">
<stop stop-color="#808080" stop-opacity="0.25"/>
<stop offset="0.54" stop-color="#808080" stop-opacity="0.12"/>
<stop offset="1" stop-color="#808080" stop-opacity="0.1"/>
</linearGradient>
<linearGradient id="paint3_linear" x1="83273.5" y1="89505.2" x2="83273.5" y2="8605.41" gradientUnits="userSpaceOnUse">
<stop stop-color="#808080" stop-opacity="0.25"/>
<stop offset="0.54" stop-color="#808080" stop-opacity="0.12"/>
<stop offset="1" stop-color="#808080" stop-opacity="0.1"/>
</linearGradient>
<clipPath id="clip0">
<rect width="342" height="259" fill="white"/>
</clipPath>
</defs>
</svg>
