<svg width="101" height="100" viewBox="0 0 101 100" fill="none" xmlns="http://www.w3.org/2000/svg">
<g clip-path="url(#clip0)">
<path d="M28.5676 54.925C35.7428 57.1682 43.2166 58.3107 50.7342 58.3133C58.2519 58.3107 65.7257 57.1682 72.9009 54.925C73.4696 54.7481 73.9007 54.2814 74.0318 53.7005C74.163 53.1196 73.9743 52.5128 73.5368 52.1088C73.0993 51.7048 72.4796 51.5648 71.9109 51.7417C58.1265 56.0583 43.352 56.0583 29.5676 51.7417C28.6885 51.4683 27.7543 51.9593 27.4809 52.8383C27.2075 53.7174 27.6985 54.6516 28.5776 54.925H28.5676Z" fill="#026FC2"/>
<path d="M28.8112 44.98C36.0649 46.1018 43.3945 46.6623 50.7345 46.6567C58.0745 46.6623 65.404 46.1018 72.6578 44.98C73.2518 44.8946 73.7541 44.4964 73.9727 43.9375C74.1914 43.3786 74.0927 42.7453 73.7143 42.2795C73.3359 41.8136 72.7363 41.5872 72.1445 41.6866C57.9546 43.87 43.5143 43.87 29.3245 41.6866C28.421 41.5568 27.5811 42.1778 27.4405 43.0797C27.2999 43.9816 27.911 44.8287 28.8112 44.98Z" fill="#026FC2"/>
<path d="M71.6828 63.5C58.4639 69.9584 43.005 69.9584 29.7861 63.5C29.2443 63.1957 28.5783 63.218 28.0581 63.558C27.538 63.8979 27.2501 64.499 27.3114 65.1173C27.3726 65.7357 27.7727 66.2686 28.3495 66.5C42.4751 73.4003 58.9938 73.4003 73.1194 66.5C73.6962 66.2686 74.0963 65.7357 74.1575 65.1173C74.2188 64.499 73.9309 63.8979 73.4108 63.558C72.8906 63.218 72.2245 63.1957 71.6828 63.5Z" fill="#026FC2"/>
<path d="M94.0677 30H85.4277C84.724 28.0094 82.8457 26.6754 80.7344 26.6667H78.2177C72.028 26.5858 66.2042 23.7207 62.3627 18.8667C59.5168 15.3676 55.2463 13.3362 50.736 13.3362C46.2257 13.3362 41.9553 15.3676 39.1094 18.8667C35.267 23.7214 29.4418 26.5866 23.251 26.6667H20.7344C18.6231 26.6754 16.7448 28.0094 16.041 30H7.40104C3.71914 30 0.734375 32.9848 0.734375 36.6667V45C0.734375 53.76 8.57771 61.8217 18.0977 63.135C22.7978 75.9817 34.3854 85.0448 47.986 86.5117C49.8135 86.7185 51.6585 86.7185 53.486 86.5117C67.0854 85.0436 78.6715 75.9807 83.371 63.135C92.891 61.8217 100.734 53.76 100.734 45V36.6667C100.734 32.9848 97.7496 30 94.0677 30ZM20.7344 30H23.251C30.4459 29.9198 37.2215 26.6015 41.696 20.9667C43.9083 18.2446 47.2292 16.6642 50.7369 16.6642C54.2445 16.6642 57.5655 18.2446 59.7777 20.9667C64.2505 26.6009 71.0244 29.9192 78.2177 30H80.7344C81.6548 30 82.401 30.7462 82.401 31.6667V33.3333L77.401 33.325H77.3677C69.4403 33.1118 62.0291 29.345 57.1844 23.0667C55.6032 21.1234 53.2302 19.9966 50.725 19.9995C48.2197 20.0024 45.8493 21.1347 44.2727 23.0817C39.43 29.3511 32.0252 33.111 24.106 33.3217H24.0677L19.0677 33.3333V31.6667C19.0677 30.7462 19.8139 30 20.7344 30ZM4.06771 45V36.6667C4.06771 34.8257 5.56009 33.3333 7.40104 33.3333H15.7344V50C15.7396 53.2194 16.1569 56.4249 16.976 59.5383C10.3544 57.9433 4.06771 52.2867 4.06771 45ZM53.1377 83.1967C51.5405 83.3767 49.9282 83.3767 48.331 83.1967C35.6674 81.8144 24.9677 73.1852 20.9344 61.1017V61.085C19.7044 57.5184 19.0737 53.7727 19.0677 50V36.6667L24.0677 36.6583C33.01 36.484 41.3913 32.2661 46.8594 25.1883C47.8036 24.0197 49.2246 23.3394 50.727 23.3368C52.2294 23.3342 53.6528 24.0096 54.601 25.175C60.0766 32.2294 68.4352 36.4463 77.3627 36.6583H77.401L82.401 36.6667V50C82.3963 53.7713 81.7673 57.5158 80.5394 61.0817V61.0983C76.5064 73.1847 65.8041 81.8157 53.1377 83.1967ZM97.401 45C97.401 52.2867 91.1144 57.9433 84.4927 59.5417C85.3121 56.4271 85.7294 53.2205 85.7344 50V33.3333H94.0677C95.9087 33.3333 97.401 34.8257 97.401 36.6667V45Z" fill="#026FC2"/>
</g>
<defs>
<clipPath id="clip0">
<rect width="100" height="100" fill="white" transform="translate(0.734375)"/>
</clipPath>
</defs>
</svg>