<svg width="464" height="356" viewBox="0 0 464 356" fill="none" xmlns="http://www.w3.org/2000/svg">
<g clip-path="url(#clip0)">
<path d="M373.589 0.213379H0.15918V241.983H373.589V0.213379Z" fill="#E6E6E6"/>
<path d="M362.912 30.5378H10.8379V227.68H362.912V30.5378Z" fill="white"/>
<path d="M373.43 0H0V16.0377H373.43V0Z" fill="#6397FF"/>
<path d="M11.789 11.1717C13.413 11.1717 14.7294 9.84091 14.7294 8.19927C14.7294 6.55762 13.413 5.22681 11.789 5.22681C10.1651 5.22681 8.84863 6.55762 8.84863 8.19927C8.84863 9.84091 10.1651 11.1717 11.789 11.1717Z" fill="white"/>
<path d="M22.9502 11.1717C24.5741 11.1717 25.8906 9.84091 25.8906 8.19927C25.8906 6.55762 24.5741 5.22681 22.9502 5.22681C21.3262 5.22681 20.0098 6.55762 20.0098 8.19927C20.0098 9.84091 21.3262 11.1717 22.9502 11.1717Z" fill="white"/>
<path d="M34.1113 11.1717C35.7352 11.1717 37.0517 9.84091 37.0517 8.19927C37.0517 6.55762 35.7352 5.22681 34.1113 5.22681C32.4874 5.22681 31.1709 6.55762 31.1709 8.19927C31.1709 9.84091 32.4874 11.1717 34.1113 11.1717Z" fill="white"/>
<path d="M133.295 50.993H42.8281V207.225H133.295V50.993Z" fill="#E6E6E6"/>
<path d="M224.3 50.993H148.911V93.9977H224.3V50.993Z" fill="#6397FF"/>
<path d="M224.3 105.974H148.911V152.244H224.3V105.974Z" fill="#E6E6E6"/>
<path d="M224.3 164.22H148.911V207.225H224.3V164.22Z" fill="#E6E6E6"/>
<path d="M330.92 50.993H240.454V119.078H330.92V50.993Z" fill="#E6E6E6"/>
<path d="M330.92 139.14H240.454V207.225H330.92V139.14Z" fill="#6397FF"/>
<path d="M427.24 121.178C421.272 110.897 409.466 110.418 409.466 110.418C409.466 110.418 397.962 108.917 390.582 124.576C383.703 139.171 374.21 153.263 389.053 156.679L391.735 148.17L393.395 157.313C395.509 157.468 397.629 157.505 399.746 157.424C415.643 156.9 430.782 157.577 430.295 151.76C429.647 144.028 432.982 131.071 427.24 121.178Z" fill="#2F2E41"/>
<path d="M370.65 176.072L365.43 189.557L339.331 214.182C339.331 214.182 323.671 225.909 330.631 229.426C337.591 232.944 343.97 216.528 343.97 216.528L371.81 199.525L377.61 180.176L370.65 176.072Z" fill="#FFB8B8"/>
<path d="M379.35 325.581L384.569 339.066H392.109L385.729 323.236L379.35 325.581Z" fill="#FFB8B8"/>
<path d="M401.969 331.444L407.189 344.93H414.728L408.349 329.099L401.969 331.444Z" fill="#FFB8B8"/>
<path d="M401.389 333.789L411.249 331.444L398.489 279.263L402.726 239.112L402.839 239.1C402.839 239.1 410.089 210.664 404.289 203.042C398.489 195.42 369.49 198.352 369.49 198.352C369.49 198.352 358.47 209.492 359.05 234.703C359.63 259.914 359.05 281.608 363.11 291.575C367.17 301.542 378.77 327.926 378.77 327.926L388.05 326.754L378.19 283.367L376.614 245.651C377.868 260.765 380.393 289.424 381.67 291.575C383.41 294.507 401.389 333.789 401.389 333.789Z" fill="#2F2E41"/>
<path d="M430.968 188.385L435.028 203.042L453.007 235.876C453.007 235.876 468.667 249.947 462.287 251.706C455.907 253.465 446.048 238.807 446.048 238.807L425.748 210.078L420.528 188.971L430.968 188.385Z" fill="#FFB8B8"/>
<path d="M410.088 146.757C418.096 146.757 424.588 140.194 424.588 132.099C424.588 124.004 418.096 117.441 410.088 117.441C402.081 117.441 395.589 124.004 395.589 132.099C395.589 140.194 402.081 146.757 410.088 146.757Z" fill="#FFB8B8"/>
<path d="M402.549 139.721L399.069 150.861L393.27 163.76L414.729 154.965C414.729 154.965 413.569 145.584 414.729 143.239L402.549 139.721Z" fill="#FFB8B8"/>
<path d="M427.488 163.173L414.149 152.033L399.069 158.483L399.66 148.969L383.57 154.164L381.09 154.965L377.61 173.141C377.61 173.141 375.29 174.899 372.97 184.867C371.63 190.724 369.686 196.423 367.17 201.87C367.17 201.87 392.109 191.902 404.289 205.388C404.289 205.388 406.029 204.215 405.449 202.456C404.869 200.697 410.669 191.902 410.669 191.902C410.669 191.902 410.669 193.661 412.989 190.144C415.309 186.626 417.049 186.039 417.049 186.039L427.488 163.173Z" fill="#6397FF"/>
<path d="M384.57 156.724L382.036 154.659C382.036 154.659 379.93 153.792 378.19 156.724C376.45 159.656 367.75 177.831 367.75 177.831L378.19 183.108L384.57 156.724Z" fill="#6397FF"/>
<path d="M419.368 162.587L427.488 163.173C427.488 163.173 432.128 165.519 432.128 169.036C432.128 172.554 433.288 191.316 433.288 191.316L420.528 195.42L415.309 179.004L419.368 162.587Z" fill="#6397FF"/>
<path d="M382.893 337.014L373.034 341.118C373.034 341.118 361.434 341.705 363.174 347.568C364.914 353.431 382.313 349.327 382.313 349.327C382.313 349.327 397.973 349.913 397.973 345.809C397.973 341.705 395.653 337.014 393.333 337.014H382.893Z" fill="#2F2E41"/>
<path d="M404.933 342.291L395.074 346.395C395.074 346.395 383.474 346.981 385.214 352.845C386.954 358.708 404.353 354.603 404.353 354.603C404.353 354.603 420.013 355.19 420.013 351.086C420.013 346.981 417.693 342.291 415.373 342.291H404.933Z" fill="#2F2E41"/>
<path d="M424.601 120.187L412.937 113.957L396.831 116.506L393.498 131.513L401.794 131.189L404.111 125.674V131.098L407.939 130.948L410.16 122.169L411.549 131.513L425.157 131.23L424.601 120.187Z" fill="#2F2E41"/>
<path d="M346.588 48.984C334.985 39.0873 320.788 32.8129 305.723 30.9243C290.658 29.0357 275.374 31.6144 261.732 38.3466C248.091 45.0787 236.678 55.6741 228.885 68.8433C221.091 82.0126 217.252 97.188 217.834 112.523C218.416 127.858 223.395 142.691 232.165 155.217C240.934 167.744 253.116 177.423 267.229 183.078C281.341 188.733 296.775 190.12 311.653 187.069C326.53 184.019 340.21 176.663 351.027 165.896L447.083 247.831C447.808 248.449 448.645 248.917 449.548 249.208C450.451 249.498 451.402 249.606 452.346 249.526C453.291 249.445 454.21 249.177 455.052 248.737C455.894 248.297 456.642 247.693 457.253 246.961C457.864 246.229 458.327 245.382 458.614 244.469C458.902 243.556 459.008 242.595 458.928 241.64C458.848 240.686 458.583 239.756 458.147 238.905C457.712 238.054 457.115 237.298 456.391 236.681L360.335 154.745C371.493 138.555 376.269 118.737 373.726 99.1727C371.183 79.6087 361.505 61.71 346.588 48.984ZM340.395 146.855C332.912 155.821 322.967 162.341 311.818 165.593C300.669 168.844 288.816 168.681 277.759 165.122C266.702 161.564 256.937 154.772 249.699 145.603C242.461 136.435 238.074 125.302 237.095 113.614C236.115 101.925 238.586 90.2056 244.196 79.9369C249.805 69.6681 258.3 61.3114 268.608 55.9236C278.915 50.5357 290.571 48.3587 302.103 49.6678C313.634 50.9769 324.522 55.7133 333.391 63.2781C345.283 73.4222 352.702 87.9265 354.016 103.6C355.329 119.274 350.43 134.833 340.395 146.855Z" fill="#3F3D56"/>
<path opacity="0.3" d="M257.72 153.936C246.464 144.334 239.193 130.805 237.348 116.034C235.504 101.264 239.222 86.3321 247.764 74.2043C246.642 75.3464 245.558 76.5424 244.51 77.7925C239.541 83.7451 235.78 90.6289 233.443 98.0508C231.105 105.473 230.237 113.287 230.887 121.049C231.537 128.81 233.693 136.366 237.232 143.285C240.771 150.203 245.623 156.35 251.512 161.373C257.401 166.396 264.21 170.197 271.552 172.56C278.895 174.922 286.625 175.8 294.302 175.142C301.98 174.484 309.454 172.304 316.298 168.726C323.142 165.148 329.222 160.242 334.19 154.289C335.235 153.037 336.219 151.756 337.142 150.443C326.753 160.996 312.818 167.213 298.105 167.86C283.392 168.507 268.976 163.536 257.72 153.936Z" fill="black"/>
</g>
<defs>
<clipPath id="clip0">
<rect width="463.816" height="356" fill="white"/>
</clipPath>
</defs>
</svg>
