<svg width="67" height="66" viewBox="0 0 67 66" fill="none" xmlns="http://www.w3.org/2000/svg">
<path fill-rule="evenodd" clip-rule="evenodd" d="M48.7426 45.1533C52.5955 40.6137 54.9906 34.836 54.9906 28.4393C54.9906 14.3046 43.3277 2.74927 28.9574 2.74927C14.5871 2.74927 3.02832 14.3046 3.02832 28.4393C3.02832 42.574 14.6912 54.1293 28.9574 54.1293C35.4136 54.1293 41.2451 51.8595 45.8269 47.939L60.198 62.6489C60.5859 63.046 61.2229 63.0511 61.6171 62.6605L63.1097 61.1817C63.501 60.794 63.5051 60.1628 63.1188 59.7701L48.7426 45.1533ZM28.9573 50.1056C16.9821 50.1056 7.19357 40.4073 7.19357 28.4393C7.19357 16.4712 16.9821 6.87617 28.9573 6.87617C40.9326 6.87617 50.7211 16.5744 50.7211 28.4393C50.7211 40.3042 41.0367 50.1056 28.9573 50.1056Z" fill="#3F3B3B"/>
</svg>
