<svg width="101" height="101" viewBox="0 0 101 101" fill="none" xmlns="http://www.w3.org/2000/svg">
<g clip-path="url(#clip0)">
<path d="M95.7344 0.16394H5.73438C2.97295 0.16394 0.734375 2.40252 0.734375 5.16394V95.1639C0.734375 97.9254 2.97295 100.164 5.73438 100.164H95.7344C98.4958 100.164 100.734 97.9254 100.734 95.1639V5.16394C100.734 2.40252 98.4958 0.16394 95.7344 0.16394ZM97.401 5.16394V36.8306H49.0677C48.1472 36.8306 47.401 36.0844 47.401 35.1639V3.49727H95.7344C96.6548 3.49727 97.401 4.24347 97.401 5.16394ZM32.401 3.49727V6.83061C32.401 7.75108 33.1472 8.49727 34.0677 8.49727C34.9882 8.49727 35.7344 7.75108 35.7344 6.83061V3.49727H44.0677V35.1639C44.0677 37.9254 46.3063 40.1639 49.0677 40.1639H97.401V48.4973H90.7344C89.8139 48.4973 89.0677 49.2435 89.0677 50.1639C89.0677 51.0844 89.8139 51.8306 90.7344 51.8306H97.401V60.1639H40.2344C41.4336 57.5325 42.1667 54.7129 42.401 51.8306C42.4048 47.1192 40.4128 42.6267 36.9186 39.4664C33.4244 36.306 28.7551 34.7737 24.0677 35.2489V3.49727H32.401ZM4.06771 40.1639H13.8527C10.7857 43.2724 9.06661 47.4638 9.06771 51.8306C9.30207 54.7129 10.0352 57.5325 11.2344 60.1639H4.06771V40.1639ZM25.7344 38.4973C33.0947 38.5055 39.0594 44.4702 39.0677 51.8306C38.6715 55.0797 37.6985 58.2319 36.1944 61.1389C36.181 61.1689 36.1677 61.1956 36.156 61.2256C33.0629 67.8057 29.5829 74.1968 25.7344 80.3656C21.8855 74.1982 18.4055 67.8081 15.3127 61.2289L15.2727 61.1356C13.7689 58.2298 12.7964 55.0786 12.401 51.8306C12.4093 44.4702 18.374 38.5055 25.7344 38.4973ZM24.331 84.3973C24.6375 84.8755 25.1664 85.1648 25.7344 85.1648C26.3024 85.1648 26.8313 84.8755 27.1377 84.3973C27.9277 83.1656 31.8227 77.0306 35.4794 70.1639H37.401C38.3215 70.1639 39.0677 70.9101 39.0677 71.8306V88.4973C39.0677 89.4177 38.3215 90.1639 37.401 90.1639H14.0677C13.1472 90.1639 12.401 89.4177 12.401 88.4973V71.8306C12.401 70.9101 13.1472 70.1639 14.0677 70.1639H15.9894C19.646 77.0306 23.541 83.1639 24.331 84.3973ZM5.73438 3.49727H20.7344V35.9323C19.9748 36.178 19.234 36.4782 18.5177 36.8306H4.06771V5.16394C4.06771 4.24347 4.8139 3.49727 5.73438 3.49727ZM95.7344 96.8306H5.73438C4.8139 96.8306 4.06771 96.0844 4.06771 95.1639V63.4973H12.6694C13.1694 64.5989 13.7094 65.7156 14.2677 66.8306H14.0677C11.3063 66.8306 9.06771 69.0692 9.06771 71.8306V88.4973C9.06771 91.2587 11.3063 93.4973 14.0677 93.4973H37.401C40.1625 93.4973 42.401 91.2587 42.401 88.4973V71.8306C42.401 69.0692 40.1625 66.8306 37.401 66.8306H37.201C37.7594 65.7156 38.2944 64.5989 38.7994 63.4973H97.401V95.1639C97.401 96.0844 96.6548 96.8306 95.7344 96.8306Z" fill="#026FC2"/>
<path d="M60.7344 33.4973H84.0677C86.8291 33.4973 89.0677 31.2587 89.0677 28.4973V11.8306C89.0677 9.0692 86.8291 6.83063 84.0677 6.83063H60.7344C57.973 6.83063 55.7344 9.0692 55.7344 11.8306V28.4973C55.7344 31.2587 57.973 33.4973 60.7344 33.4973ZM59.0677 11.8306C59.0677 10.9102 59.8139 10.164 60.7344 10.164H84.0677C84.9882 10.164 85.7344 10.9102 85.7344 11.8306V28.4973C85.7344 29.4178 84.9882 30.164 84.0677 30.164H60.7344C59.8139 30.164 59.0677 29.4178 59.0677 28.4973V11.8306Z" fill="#026FC2"/>
<path d="M64.0679 66.8306H54.0679C51.3064 66.8306 49.0679 69.0692 49.0679 71.8306V88.4973C49.0679 91.2587 51.3064 93.4973 54.0679 93.4973H64.0679C66.8293 93.4973 69.0679 91.2587 69.0679 88.4973V71.8306C69.0679 69.0692 66.8293 66.8306 64.0679 66.8306ZM65.7345 88.4973C65.7345 89.4178 64.9883 90.164 64.0679 90.164H54.0679C53.1474 90.164 52.4012 89.4178 52.4012 88.4973V71.8306C52.4012 70.9102 53.1474 70.164 54.0679 70.164H64.0679C64.9883 70.164 65.7345 70.9102 65.7345 71.8306V88.4973Z" fill="#026FC2"/>
<path d="M87.4012 66.8306H79.0679C76.3064 66.8306 74.0679 69.0692 74.0679 71.8306V88.4973C74.0679 91.2587 76.3064 93.4973 79.0679 93.4973H87.4012C90.1626 93.4973 92.4012 91.2587 92.4012 88.4973V71.8306C92.4012 69.0692 90.1626 66.8306 87.4012 66.8306ZM89.0679 88.4973C89.0679 89.4178 88.3217 90.164 87.4012 90.164H79.0679C78.1474 90.164 77.4012 89.4178 77.4012 88.4973V71.8306C77.4012 70.9102 78.1474 70.164 79.0679 70.164H87.4012C88.3217 70.164 89.0679 70.9102 89.0679 71.8306V88.4973Z" fill="#026FC2"/>
<path d="M25.7344 61.8306C31.2572 61.8306 35.7344 57.3534 35.7344 51.8306C35.7344 46.3077 31.2572 41.8306 25.7344 41.8306C20.2115 41.8306 15.7344 46.3077 15.7344 51.8306C15.7399 57.3512 20.2138 61.8251 25.7344 61.8306ZM25.7344 45.1639C29.4163 45.1639 32.401 48.1487 32.401 51.8306C32.401 55.5125 29.4163 58.4973 25.7344 58.4973C22.0525 58.4973 19.0677 55.5125 19.0677 51.8306C19.0677 48.1487 22.0525 45.1639 25.7344 45.1639Z" fill="#026FC2"/>
<path d="M47.401 51.8306H59.0677C59.9882 51.8306 60.7344 51.0844 60.7344 50.1639C60.7344 49.2434 59.9882 48.4973 59.0677 48.4973H47.401C46.4806 48.4973 45.7344 49.2434 45.7344 50.1639C45.7344 51.0844 46.4806 51.8306 47.401 51.8306Z" fill="#026FC2"/>
<path d="M34.0675 30.1639C34.988 30.1639 35.7342 29.4178 35.7342 28.4973V16.8306C35.7342 15.9101 34.988 15.1639 34.0675 15.1639C33.1471 15.1639 32.4009 15.9101 32.4009 16.8306V28.4973C32.4009 29.4178 33.1471 30.1639 34.0675 30.1639Z" fill="#026FC2"/>
<path d="M69.0675 51.8306H80.7342C81.6547 51.8306 82.4009 51.0844 82.4009 50.1639C82.4009 49.2434 81.6547 48.4973 80.7342 48.4973H69.0675C68.1471 48.4973 67.4009 49.2434 67.4009 50.1639C67.4009 51.0844 68.1471 51.8306 69.0675 51.8306Z" fill="#026FC2"/>
</g>
<defs>
<clipPath id="clip0">
<rect width="100" height="100" fill="white" transform="translate(0.734375 0.16394)"/>
</clipPath>
</defs>
</svg>
