<svg width="101" height="100" viewBox="0 0 101 100" fill="none" xmlns="http://www.w3.org/2000/svg">
<g clip-path="url(#clip0)">
<path d="M94.4043 84.9991L100.454 75.9241C100.794 75.4124 100.828 74.7557 100.538 74.2124C100.248 73.6708 99.6827 73.3323 99.0678 73.3323H89.0678V66.8733C92.3367 60.6778 94.0678 53.7088 94.0678 46.6656C94.0678 22.7721 74.6294 3.33203 50.7342 3.33203C26.839 3.33203 7.40066 22.7721 7.40066 46.6656C7.40066 53.7088 9.13172 60.6778 12.4007 66.8733V73.3323H2.40103C1.78599 73.3323 1.22094 73.6706 0.9311 74.2124C0.64106 74.7557 0.674458 75.4124 1.0145 75.9241L7.06452 84.9991L1.0143 94.0742C0.674263 94.5859 0.64106 95.2425 0.930905 95.7859C1.22094 96.3275 1.78599 96.666 2.40083 96.666H17.4009C18.3226 96.666 19.0675 95.9193 19.0675 94.9994V88.3327H82.4007V94.9994C82.4007 95.9193 83.1457 96.666 84.0674 96.666H99.0674C99.6825 96.666 100.248 96.3277 100.537 95.7859C100.827 95.2425 100.794 94.5859 100.454 94.0742L94.4043 84.9991ZM17.4011 84.9991H15.7345V74.9991C15.7345 74.9969 15.7341 74.9948 15.7341 74.9925V68.3325H26.2101H75.2585H85.7342V74.9991V84.9991H84.0676H17.4011ZM27.0134 64.9991C22.9583 59.7608 20.7333 53.2824 20.7333 46.6656C20.7333 30.1239 34.1933 16.6655 50.7334 16.6655C67.2751 16.6655 80.7336 30.1239 80.7336 46.6656C80.7336 53.2822 78.5085 59.7606 74.4552 64.9991H27.0134ZM50.7342 6.66544C72.7894 6.66544 90.7344 24.6104 90.7344 46.6656C90.7344 53.0457 89.201 59.3639 86.291 64.9991H78.5494C82.1259 59.5766 84.067 53.1809 84.067 46.6656C84.067 28.2854 69.1152 13.3321 50.7334 13.3321C32.3533 13.3321 17.3999 28.2854 17.3999 46.6656C17.3999 53.1809 19.3421 59.5766 22.9191 64.9991H15.1774C12.2675 59.3641 10.7341 53.0457 10.7341 46.6656C10.7341 24.6106 28.6791 6.66544 50.7342 6.66544ZM15.7345 93.3326H5.51432L10.4544 85.9241C10.8276 85.3642 10.8276 84.6341 10.4544 84.0741L5.51432 76.6657H12.4007V86.6657C12.4007 87.5857 13.1456 88.3324 14.0673 88.3324H14.0677H15.7345V93.3326ZM85.7344 93.3326V88.3326H87.401C88.3226 88.3326 89.0676 87.5859 89.0676 86.6659V76.6659H95.9543L91.0143 84.0743C90.641 84.6343 90.641 85.3644 91.0143 85.9243L95.9543 93.3328H85.7344V93.3326Z" fill="#026FC2"/>
<path d="M30.734 74.9991H37.4006C38.3223 74.9991 39.0672 74.2524 39.0672 73.3325C39.0672 72.4126 38.3223 71.6659 37.4006 71.6659H30.734C29.8123 71.6659 29.0674 72.4126 29.0674 73.3325C29.0674 74.2524 29.8123 74.9991 30.734 74.9991Z" fill="#026FC2"/>
<path d="M44.0675 74.9991H54.0675C54.9892 74.9991 55.7341 74.2524 55.7341 73.3325C55.7341 72.4126 54.9892 71.6659 54.0675 71.6659H44.0675C43.1458 71.6659 42.4009 72.4126 42.4009 73.3325C42.4009 74.2524 43.1458 74.9991 44.0675 74.9991Z" fill="#026FC2"/>
<path d="M45.7341 78.3325H30.734C29.8123 78.3325 29.0674 79.0792 29.0674 79.9991C29.0674 80.919 29.8123 81.6657 30.734 81.6657H45.7341C46.6557 81.6657 47.4007 80.919 47.4007 79.9991C47.4007 79.0792 46.6557 78.3325 45.7341 78.3325Z" fill="#026FC2"/>
<path d="M70.7344 78.3325H67.401C66.4793 78.3325 65.7344 79.0792 65.7344 79.9991C65.7344 80.919 66.4793 81.6657 67.401 81.6657H70.7344C71.6561 81.6657 72.401 80.919 72.401 79.9991C72.401 79.0792 71.6561 78.3325 70.7344 78.3325Z" fill="#026FC2"/>
<path d="M60.7344 78.3325H52.401C51.4793 78.3325 50.7344 79.0792 50.7344 79.9991C50.7344 80.919 51.4793 81.6657 52.401 81.6657H60.7344C61.6561 81.6657 62.401 80.919 62.401 79.9991C62.401 79.0792 61.6561 78.3325 60.7344 78.3325Z" fill="#026FC2"/>
<path d="M70.7344 71.6657H62.401C61.4793 71.6657 60.7344 72.4124 60.7344 73.3323C60.7344 74.2522 61.4793 74.9989 62.401 74.9989H70.7344C71.6561 74.9989 72.401 74.2522 72.401 73.3323C72.401 72.4124 71.6561 71.6657 70.7344 71.6657Z" fill="#026FC2"/>
<path d="M51.2174 30.0706C50.5157 29.8573 49.7542 30.1306 49.3475 30.7406L42.6809 40.7406C42.1692 41.5072 42.3758 42.5422 43.1426 43.0523C43.911 43.5623 44.9426 43.3556 45.4543 42.5906L49.0676 37.1707V54.999C49.0676 55.919 49.8126 56.6657 50.7342 56.6657C51.6559 56.6657 52.4009 55.919 52.4009 54.999V31.6656C52.4007 30.9323 51.9208 30.2823 51.2174 30.0706Z" fill="#026FC2"/>
</g>
<defs>
<clipPath id="clip0">
<rect width="100" height="100" fill="white" transform="translate(0.734375 -0.000976562)"/>
</clipPath>
</defs>
</svg>
