<svg width="301" height="224" viewBox="0 0 301 224" fill="none" xmlns="http://www.w3.org/2000/svg">
<g clip-path="url(#clip0)">
<path opacity="0.1" d="M30.2771 22.4303C28.4037 23.2076 26.481 24.2054 25.4515 25.9544C24.3611 27.802 24.4916 30.0962 24.6946 32.2339C26.4636 50.7737 31.1239 70.491 23.0764 87.2847C19.1702 95.4321 12.6365 101.961 7.43978 109.36C2.24303 116.759 -1.68064 125.997 0.732139 134.702C3.67851 145.338 14.6752 151.234 22.0876 159.419C26.9392 164.771 30.3409 171.273 34.8677 176.903C39.3946 182.533 45.5977 187.493 52.8244 187.824C63.2179 188.302 71.6742 179.325 81.8647 177.246C92.3046 175.117 102.817 180.535 111.282 187.02C119.747 193.506 127.447 201.363 137.309 205.412C148.202 209.887 160.48 209.203 171.947 211.892C182.387 214.342 191.997 219.555 202.362 222.333C212.726 225.112 224.874 224.944 232.904 217.846C243.37 208.565 242.547 192.032 249.231 179.754C255.44 168.347 267.594 161.537 275.774 151.452C290.495 133.301 290.013 105.558 277.514 85.8171C265.016 66.0765 242.375 54.1237 219.225 51.0115C208.785 49.6106 198.035 49.802 187.998 46.6144C161.133 38.087 145.145 7.53353 117.717 1.17571C100.282 -2.85884 83.3263 4.12838 68.4756 12.7283C55.5852 20.1941 43.6924 16.8643 30.2771 22.4303Z" fill="#026FC2"/>
<path d="M56.4566 82.324C56.4566 82.324 46.559 91.6664 35.9364 91.9448C31.4757 92.0336 27.1642 93.5674 23.6492 96.3158C21.9878 97.6295 20.4502 99.0926 19.0557 100.687" stroke="#535461" stroke-width="2" stroke-miterlimit="10"/>
<path d="M12.3568 100.916C13.7836 100.191 19.2297 100.672 19.2297 100.672C19.2297 100.672 16.4052 105.356 14.9784 106.082C14.6367 106.284 14.257 106.414 13.8629 106.464C13.4688 106.514 13.0687 106.482 12.6873 106.371C12.306 106.26 11.9516 106.071 11.6461 105.817C11.3406 105.563 11.0905 105.249 10.9113 104.895C10.7322 104.54 10.6277 104.152 10.6046 103.756C10.5814 103.359 10.6399 102.962 10.7765 102.589C10.9131 102.216 11.1249 101.875 11.3988 101.587C11.6726 101.299 12.0026 101.071 12.3684 100.916H12.3568Z" fill="#026FC2"/>
<path d="M18.0899 92.635C19.682 92.8033 23.9914 96.1678 23.9914 96.1678C23.9914 96.1678 19.0614 98.5636 17.4838 98.3983C16.7458 98.2867 16.0791 97.8949 15.6226 97.3042C15.1661 96.7134 14.9549 95.9694 15.033 95.2269C15.1111 94.4845 15.4724 93.8007 16.0418 93.3179C16.6112 92.8351 17.3448 92.5905 18.0899 92.635Z" fill="#026FC2"/>
<path d="M31.6849 85.9611C32.9725 86.9095 34.9967 91.9911 34.9967 91.9911C34.9967 91.9911 29.5418 91.5764 28.2542 90.6308C27.6739 90.1619 27.2966 89.4872 27.2008 88.7472C27.105 88.0071 27.298 87.2586 27.7398 86.6573C28.1816 86.0559 28.8381 85.648 29.5729 85.5184C30.3076 85.3887 31.064 85.5473 31.6849 85.9611Z" fill="#026FC2"/>
<path d="M43.1079 83.2317C44.5376 83.9481 47.3912 88.615 47.3912 88.615C47.3912 88.615 41.945 89.1284 40.5154 88.412C40.1546 88.2544 39.8297 88.0251 39.5605 87.7379C39.2912 87.4507 39.0833 87.1117 38.9492 86.7416C38.8152 86.3714 38.7579 85.9779 38.7808 85.5849C38.8037 85.1918 38.9064 84.8076 39.0826 84.4556C39.2588 84.1035 39.5048 83.791 39.8056 83.5371C40.1065 83.2833 40.4558 83.0933 40.8324 82.9788C41.209 82.8643 41.605 82.8277 41.9962 82.8711C42.3874 82.9146 42.7657 83.0373 43.1079 83.2317Z" fill="#026FC2"/>
<path d="M27.0219 101.45C27.4975 99.9211 26.1055 94.6306 26.1055 94.6306C26.1055 94.6306 21.9644 98.204 21.4888 99.7325C21.3548 100.101 21.297 100.494 21.319 100.886C21.341 101.278 21.4423 101.661 21.6168 102.013C21.7913 102.364 22.0353 102.677 22.3341 102.931C22.6329 103.186 22.9802 103.377 23.3551 103.493C23.7299 103.61 24.1244 103.649 24.5148 103.608C24.9051 103.567 25.2832 103.448 25.626 103.257C25.9688 103.066 26.2693 102.807 26.5093 102.496C26.7492 102.186 26.9236 101.83 27.0219 101.45Z" fill="#026FC2"/>
<path d="M40.3415 98.0763C40.3415 96.4752 37.427 91.8461 37.427 91.8461C37.427 91.8461 34.5445 96.4868 34.5474 98.0937C34.5497 98.8629 34.8574 99.5998 35.4029 100.142C35.9484 100.684 36.6869 100.988 37.456 100.985C38.2252 100.983 38.9619 100.675 39.5041 100.13C40.0463 99.5842 40.3496 98.8455 40.3473 98.0763H40.3415Z" fill="#026FC2"/>
<path d="M52.8378 93.0411C53.1046 91.4632 51.0166 86.4077 51.0166 86.4077C51.0166 86.4077 47.3887 90.5032 47.1248 92.081C47.0357 92.8213 47.235 93.5674 47.6814 94.1646C48.1278 94.7617 48.787 95.164 49.5221 95.2879C50.2572 95.4118 51.0117 95.2478 51.6292 94.83C52.2466 94.4122 52.6794 93.7726 52.8378 93.044V93.0411Z" fill="#026FC2"/>
<path d="M69.3183 57.5829C69.3183 57.5829 57.3965 51.0336 53.8527 41.0009C52.3968 36.7821 49.6116 33.1497 45.9155 30.6492C44.1517 29.4753 42.284 28.4656 40.3359 27.6327" stroke="#535461" stroke-width="2" stroke-miterlimit="10"/>
<path d="M38.074 21.3243C39.202 22.4584 40.4171 27.7923 40.4171 27.7923C40.4171 27.7923 35.0928 26.5451 33.9647 25.4081C33.4665 24.8548 33.2002 24.1311 33.2208 23.3868C33.2415 22.6425 33.5476 21.9346 34.0757 21.4098C34.6037 20.885 35.3134 20.5834 36.0577 20.5674C36.802 20.5515 37.5239 20.8225 38.074 21.3243Z" fill="#026FC2"/>
<path d="M47.7164 24.2333C48.047 25.7996 46.1708 30.9363 46.1708 30.9363C46.1708 30.9363 42.3805 26.9946 42.0499 25.4254C41.9518 25.0459 41.9316 24.6505 41.9905 24.263C42.0494 23.8755 42.1863 23.5039 42.3928 23.1708C42.5993 22.8376 42.8712 22.5498 43.192 22.3247C43.5129 22.0996 43.876 21.9419 44.2595 21.861C44.643 21.7802 45.0389 21.778 45.4232 21.8544C45.8076 21.9309 46.1725 22.0845 46.4959 22.3059C46.8192 22.5274 47.0944 22.8121 47.3047 23.1429C47.5149 23.4736 47.656 23.8436 47.7193 24.2304L47.7164 24.2333Z" fill="#026FC2"/>
<path d="M58.243 35.1363C57.7384 36.6532 53.5247 40.1425 53.5247 40.1425C53.5247 40.1425 52.2429 34.8259 52.7475 33.3061C52.9902 32.5753 53.5132 31.9708 54.2014 31.6257C54.8897 31.2806 55.6868 31.223 56.4175 31.4657C57.1481 31.7084 57.7525 32.2315 58.0975 32.9199C58.4426 33.6082 58.5002 34.4055 58.2575 35.1363H58.243Z" fill="#026FC2"/>
<path d="M64.356 45.1573C64.1153 46.7381 60.5512 50.8886 60.5512 50.8886C60.5512 50.8886 58.3879 45.865 58.6286 44.2843C58.6687 43.8936 58.7877 43.5152 58.9784 43.1719C59.1691 42.8286 59.4275 42.5276 59.7379 42.2872C60.0484 42.0467 60.4045 41.8719 60.7845 41.7732C61.1645 41.6745 61.5607 41.654 61.9489 41.7129C62.3371 41.7719 62.7092 41.9091 63.0429 42.1163C63.3765 42.3234 63.6645 42.5961 63.8896 42.9179C64.1147 43.2397 64.2721 43.6038 64.3522 43.9883C64.4324 44.3727 64.4337 44.7695 64.356 45.1544V45.1573Z" fill="#026FC2"/>
<path d="M42.0727 35.4467C43.6735 35.4293 48.2786 32.4766 48.2786 32.4766C48.2786 32.4766 43.6068 29.6342 42.006 29.6516C41.2369 29.6604 40.5028 29.9745 39.9652 30.5247C39.4276 31.0749 39.1305 31.8161 39.1394 32.5854C39.1482 33.3546 39.4622 34.0889 40.0123 34.6266C40.5624 35.1642 41.3036 35.4613 42.0727 35.4525V35.4467Z" fill="#026FC2"/>
<path d="M49.3689 47.0891C50.8885 46.5931 54.4004 42.399 54.4004 42.399C54.4004 42.399 49.0905 41.0851 47.5709 41.5811C47.1959 41.6881 46.8464 41.8697 46.5432 42.115C46.24 42.3603 45.9893 42.6642 45.8062 43.0085C45.6232 43.3529 45.5114 43.7307 45.4777 44.1193C45.4439 44.5078 45.4889 44.8992 45.6099 45.27C45.7308 45.6408 45.9253 45.9834 46.1817 46.2772C46.4381 46.5711 46.7512 46.8102 47.1021 46.9803C47.453 47.1504 47.8346 47.248 48.2241 47.2672C48.6136 47.2864 49.003 47.2268 49.3689 47.092V47.0891Z" fill="#026FC2"/>
<path d="M58.0111 57.432C59.5944 57.1999 63.7646 53.6614 63.7646 53.6614C63.7646 53.6614 58.7535 51.4686 57.173 51.7007C56.7837 51.7408 56.4066 51.8593 56.0644 52.049C55.7221 52.2388 55.4218 52.4958 55.1815 52.8047C54.9412 53.1136 54.7659 53.468 54.6661 53.8464C54.5664 54.2248 54.5442 54.6196 54.601 55.0068C54.6578 55.394 54.7924 55.7658 54.9966 56.0996C55.2008 56.4335 55.4705 56.7225 55.7894 56.9494C56.1082 57.1762 56.4697 57.3362 56.852 57.4196C57.2343 57.5031 57.6296 57.5083 58.014 57.4349L58.0111 57.432Z" fill="#026FC2"/>
<path d="M151.361 216.494C209.34 216.494 256.34 169.485 256.34 111.497C256.34 53.5086 209.34 6.49988 151.361 6.49988C93.3831 6.49988 46.3823 53.5086 46.3823 111.497C46.3823 169.485 93.3831 216.494 151.361 216.494Z" fill="url(#paint0_linear)"/>
<path d="M151.361 214.753C208.379 214.753 254.6 168.524 254.6 111.497C254.6 54.4696 208.379 8.24011 151.361 8.24011C94.3438 8.24011 48.1221 54.4696 48.1221 111.497C48.1221 168.524 94.3438 214.753 151.361 214.753Z" fill="#026FC2"/>
<path d="M151.361 193.58C196.687 193.58 233.431 156.83 233.431 111.497C233.431 66.1635 196.687 29.4136 151.361 29.4136C106.036 29.4136 69.292 66.1635 69.292 111.497C69.292 156.83 106.036 193.58 151.361 193.58Z" fill="#DDE1EC"/>
<path opacity="0.3" d="M153.681 43.9159H149.042V116.428H153.681V43.9159Z" fill="#535461"/>
<g opacity="0.1">
<path opacity="0.1" d="M221.831 109.757H156.292V115.558H221.831V109.757Z" fill="black"/>
<path opacity="0.1" d="M110.02 88.0535L107.329 93.1924L148.567 114.791L151.258 109.653L110.02 88.0535Z" fill="black"/>
<path opacity="0.1" d="M151.362 121.358C156.166 121.358 160.061 117.463 160.061 112.657C160.061 107.851 156.166 103.956 151.362 103.956C146.557 103.956 142.662 107.851 142.662 112.657C142.662 117.463 146.557 121.358 151.362 121.358Z" fill="black"/>
</g>
<path d="M221.831 108.596H156.292V114.397H221.831V108.596Z" fill="#535461"/>
<path d="M151.277 108.499L110.039 86.9L107.348 92.039L148.586 113.638L151.277 108.499Z" fill="#535461"/>
<path d="M151.362 120.198C156.166 120.198 160.061 116.302 160.061 111.497C160.061 106.691 156.166 102.795 151.362 102.795C146.557 102.795 142.662 106.691 142.662 111.497C142.662 116.302 146.557 120.198 151.362 120.198Z" fill="#535461"/>
<g opacity="0.1">
<path opacity="0.1" d="M75.6662 121.358C75.6662 76.024 112.409 39.2752 157.735 39.2752C170.457 39.2639 183.007 42.2155 194.391 47.8963C205.775 53.5771 215.68 61.8309 223.321 72.004C209.355 46.6191 182.385 29.4136 151.356 29.4136C106.029 29.4136 69.2862 66.1625 69.2862 111.497C69.2596 129.306 75.0507 146.637 85.7784 160.851C79.1256 148.753 75.6466 135.166 75.6662 121.358Z" fill="black"/>
</g>
<path d="M227.19 51.1149C226.216 50.178 218.014 56.3357 218.014 56.3357C218.014 56.3357 215.094 56.8694 215.79 58.8736C216.486 60.8778 212.731 72.1026 212.731 72.1026L211.202 69.965C211.35 67.4561 210.66 65.6781 209.987 64.5701C209.932 64.4802 209.877 64.3932 209.822 64.312L210.089 64.2192C209.987 62.8501 207.798 60.7647 206.635 59.7438C206.635 59.5958 206.635 59.4537 206.635 59.3029C206.707 57.667 207.363 55.9412 206.635 54.4591C205.811 52.7681 203.401 51.9183 203.198 50.062C203.077 48.954 203.825 47.9534 204.155 46.886C204.944 44.3336 203.306 41.729 201.74 39.5304C201.209 38.7061 200.564 37.9619 199.823 37.3203C199.117 36.8041 198.342 36.3901 197.52 36.0905C195.226 35.1623 192.88 34.6953 190.514 34.0601C188.243 33.4568 186.15 33.1697 183.844 33.9267C183.297 34.0743 182.797 34.3611 182.394 34.7592C181.846 35.374 181.773 36.25 181.414 36.9838C180.834 38.1643 179.584 38.8691 178.479 39.6261C177.374 40.3832 176.266 41.4215 176.261 42.7267C176.261 44.5801 178.378 45.7461 179.085 47.4719C179.746 49.0787 179.085 50.8683 178.717 52.5622C178.563 53.1097 178.548 53.6869 178.673 54.2416C178.819 54.655 179.04 55.0383 179.323 55.3728C179.761 55.9528 180.231 56.4923 180.698 57.0434L180.483 57.1275C176.591 56.7273 174.089 61.6697 174.089 61.6697C174.268 61.7074 174.439 61.7509 174.608 61.8002L174.442 62.0148C173.266 63.5423 172.305 65.2238 171.586 67.0123L168.396 71.2876C168.396 71.2876 167.7 60.5965 169.37 58.192C171.041 55.7875 167.842 54.317 167.842 54.317C167.842 54.317 160.882 46.5669 159.916 47.2341C158.951 47.9012 162.28 56.3212 165.2 57.6583C165.2 57.6583 165.49 60.3296 164.91 62.067C164.559 63.1663 162.686 74.7624 162.686 74.7624C162.686 74.7624 161.018 84.5166 168.666 79.6931C173.633 76.5664 176.843 71.1832 178.479 67.8012C178.593 67.5634 178.7 67.3362 178.801 67.1196C178.877 67.4783 178.928 67.8417 178.955 68.2073L179.245 79.3828C179.318 82.147 178.715 84.8872 177.487 87.3649L174.08 94.2767L174.46 94.3927L174.231 94.7234C171.986 98.027 168.17 105.455 176.026 109.24L186.466 110.577L185.909 113.249C185.909 113.249 181.599 121.399 180.347 127.011C179.569 130.448 178.353 133.771 176.73 136.899L177.052 137.07C176.986 137.146 176.916 137.224 176.849 137.305C176.216 138.017 175.798 138.894 175.643 139.834L174.228 141.841C174.228 141.841 173.671 150.125 174.784 152.132C175.393 153.229 177.415 153.925 179.134 154.331C181.686 154.937 183.745 152.3 182.391 150.128L182.374 150.099H182.348C182.058 148.75 181.17 144.565 181.46 142.975C181.541 142.523 181.617 142.073 181.655 141.615C181.724 141.013 181.907 140.429 182.194 139.895C182.24 139.805 182.29 139.718 182.339 139.631L182.49 139.695C182.957 139.895 183.418 140.084 183.856 140.249C183.177 140.867 182.696 142.146 183.276 144.777C183.276 144.777 183.331 151.358 183.832 152.393C184.334 153.429 189.948 154.798 190.923 153.73C191.897 152.663 190.296 148.985 190.296 148.985L190.247 149.02C189.925 146.888 189.528 143.071 190.505 141.569C190.9 140.963 191.282 140.336 191.625 139.75L191.836 139.388C193.652 140.293 195.572 140.974 196.621 140.501C196.621 140.501 201.209 129.81 200.931 128.476C200.652 127.142 208.021 112.039 208.021 112.039C208.021 112.039 214.276 105.078 206.632 100.281C204.205 98.7521 202.436 97.7253 201.151 97.0321L200.075 91.4052C199.522 88.4553 199.621 85.42 200.365 82.5124L201.525 78.0863L201.621 77.7092C201.621 77.7092 204.541 71.6966 204.402 68.8889C204.391 68.6708 204.416 68.4524 204.474 68.2421C204.506 68.3755 204.541 68.5148 204.579 68.6598C205.346 71.5779 206.357 74.4265 207.601 77.1755C209.819 82.1817 213.111 81.7844 214.914 81.0738C215.3 80.9243 215.643 80.6812 215.912 80.3663C216.181 80.0513 216.367 79.6745 216.454 79.2697C217.104 76.1546 218.887 67.4271 219 65.0168C219.102 63.1321 219.334 61.2567 219.696 59.4044C224.273 56.7273 228.164 52.0517 227.19 51.1149Z" fill="url(#paint1_linear)"/>
<path d="M193.147 136.742C193.147 136.742 192.535 137.969 191.697 139.443C191.369 140.023 191.004 140.647 190.63 141.247C189.305 143.367 190.63 150.122 190.63 150.122L187.73 150.52L184.83 149.069L184.299 144.168V140.583L187.605 136.885L189.055 135.284L193.147 136.742Z" fill="#F8BDC5"/>
<g opacity="0.1">
<path opacity="0.1" d="M193.147 136.742C193.147 136.742 192.535 137.969 191.697 139.443C190.417 138.759 189.179 137.997 187.991 137.163L187.736 136.983L187.6 136.885L189.05 135.284L193.147 136.742Z" fill="black"/>
</g>
<path d="M207.325 111.967C207.325 111.967 200.304 126.936 200.571 128.261C200.838 129.587 196.464 140.185 196.464 140.185C195.467 140.655 193.634 139.979 191.906 139.083C190.602 138.388 189.343 137.613 188.136 136.763L187.88 136.583L187.727 136.473L199.251 104.544L189.055 97.064L188.301 96.51L183.742 93.1455L197.662 95.6631C197.662 95.6631 198.146 95.6022 200.707 97.035C201.937 97.7224 203.645 98.7521 206.005 100.301C213.281 105.078 207.325 111.967 207.325 111.967Z" fill="#5E52AD"/>
<g opacity="0.03">
<path opacity="0.03" d="M207.325 111.967C207.325 111.967 200.304 126.936 200.571 128.261C200.838 129.587 196.464 140.185 196.464 140.185C195.467 140.655 193.634 139.979 191.906 139.083C190.602 138.388 189.343 137.613 188.136 136.763L187.88 136.583L187.727 136.473L199.251 104.544L189.055 97.064L188.301 96.51L183.742 93.1455L197.662 95.6631C197.662 95.6631 198.146 95.6022 200.707 97.035C201.937 97.7224 203.645 98.7521 206.005 100.301C213.281 105.078 207.325 111.967 207.325 111.967Z" fill="black"/>
</g>
<path d="M185.996 139.391C185.996 139.391 182.551 138.86 183.745 144.426C183.745 144.426 183.798 150.952 184.276 151.967C184.755 152.982 190.105 154.351 191.03 153.293C191.955 152.234 190.433 148.591 190.433 148.591C190.433 148.591 186.527 151.439 185.465 148.391C184.404 145.342 185.996 139.391 185.996 139.391Z" fill="#5D3E53"/>
<path d="M183.609 138.332C183.233 138.69 182.927 139.115 182.707 139.585C182.433 140.117 182.259 140.695 182.194 141.29C182.159 141.743 182.087 142.192 182.011 142.639C181.681 144.527 182.948 150.122 182.948 150.122L177.913 150.917L176.06 148.93L175.663 144.559C176.158 143.06 176.425 141.496 176.458 139.918C176.458 138.779 177.038 137.76 177.618 137.018C178.011 136.523 178.462 136.076 178.96 135.687C178.96 135.687 184.67 137.404 183.609 138.332Z" fill="#F8BDC5"/>
<g opacity="0.1">
<path opacity="0.1" d="M183.609 138.332C183.233 138.69 182.927 139.115 182.707 139.585C180.645 138.654 178.479 137.479 177.69 137.044L177.629 137.012C178.023 136.517 178.473 136.07 178.972 135.681C178.972 135.681 184.671 137.404 183.609 138.332Z" fill="black"/>
</g>
<path d="M199.904 107.993C199.904 107.993 196.595 114.22 194.472 119.386C193.08 122.78 190.204 130.86 188.382 136.006L188.116 136.766C187.315 139.042 186.782 140.583 186.782 140.583C186.429 140.585 186.078 140.533 185.74 140.429C185.427 140.345 185.076 140.232 184.702 140.092L184.282 139.933C183.864 139.77 183.412 139.582 182.98 139.385C180.874 138.445 178.63 137.221 177.815 136.774L177.507 136.603C179.062 133.489 180.222 130.192 180.961 126.791C182.153 121.228 186.26 113.159 186.26 113.159L186.79 110.508L176.855 109.182C169.37 105.441 173.007 98.0647 175.144 94.7901C175.508 94.2216 175.902 93.6727 176.324 93.1455L184.273 94.8858C184.273 94.8858 185.526 95.2861 188.31 96.5187L189.589 97.0988C191.149 97.8153 193.069 98.7376 195.389 99.921C203.213 103.877 199.904 107.993 199.904 107.993Z" fill="#5E52AD"/>
<path d="M182.899 149.725C183.182 150.203 183.318 150.754 183.289 151.308C183.26 151.863 183.067 152.397 182.735 152.842C182.404 153.288 181.947 153.625 181.424 153.811C180.901 153.998 180.334 154.025 179.796 153.89C178.169 153.487 176.24 152.797 175.66 151.709C174.602 149.722 175.13 141.508 175.13 141.508L176.522 139.454C176.522 139.454 175.794 148.53 177.516 149.316C179.239 150.102 182.881 149.684 182.881 149.684L182.899 149.725Z" fill="#5D3E53"/>
<path d="M184.308 34.5155C183.779 34.6628 183.298 34.9481 182.916 35.3422C182.394 35.9513 182.336 36.8214 181.982 37.5494C181.431 38.7096 180.242 39.4202 179.186 40.1599C178.131 40.8995 177.078 41.9407 177.072 43.2343C177.072 45.0732 179.102 46.2276 179.763 47.936C180.393 49.5313 179.763 51.3034 179.413 52.9828C179.266 53.5265 179.252 54.0974 179.372 54.6477C179.51 55.0558 179.72 55.436 179.993 55.7702C181.271 57.5104 182.861 59.0535 183.716 61.0345C184.366 62.5398 184.545 64.2018 184.717 65.8348C184.963 68.1841 185.21 70.577 184.763 72.8974C184.72 73.0362 184.72 73.185 184.763 73.3238C184.839 73.4569 184.959 73.5594 185.102 73.6138C185.946 74.0239 186.864 74.2591 187.801 74.3052C188.738 74.3514 189.675 74.2076 190.555 73.8825C191.435 73.5574 192.241 73.0577 192.923 72.4134C193.605 71.7691 194.15 70.9935 194.524 70.1333C195.104 68.8193 195.328 67.2328 196.476 66.3801C196.61 66.2692 196.771 66.1961 196.943 66.1683C197.214 66.1758 197.476 66.2636 197.697 66.4207C199.187 67.227 200.994 67.2502 202.656 66.9195C203.659 66.7194 204.686 66.3627 205.35 65.5795C206.658 64.0249 205.93 61.7016 206.017 59.6742C206.087 58.0528 206.71 56.3415 206.017 54.8739C205.234 53.1974 202.934 52.3563 202.743 50.5232C202.627 49.4268 203.34 48.432 203.656 47.3762C204.407 44.8441 202.847 42.2627 201.357 40.0844C200.855 39.2719 200.241 38.5346 199.533 37.8946C198.864 37.3854 198.126 36.9751 197.34 36.6764C195.157 35.7569 192.929 35.2929 190.67 34.6664C188.507 34.0486 186.515 33.7614 184.308 34.5155Z" fill="#85555C"/>
<path d="M195.4 72.355H187.715V59.9004C187.944 58.7042 188.078 57.4919 188.116 56.2748C188.116 55.8658 188.116 55.4481 188.116 55.0276C188.043 53.5425 187.736 52.0604 186.929 51.1555C184.81 48.7713 193.817 49.1686 193.817 49.1686C194.093 50.2634 194.452 51.3358 194.89 52.3765C195.542 54.0005 196.411 55.5292 197.471 56.9216C198.404 58.1605 199.599 59.1777 200.971 59.9004C206.261 62.5514 195.4 72.355 195.4 72.355Z" fill="#F8BDC5"/>
<g opacity="0.1">
<path opacity="0.1" d="M194.881 52.3765C194.101 53.3941 193.057 54.1789 191.863 54.6462C190.669 55.1134 189.37 55.2453 188.107 55.0276C188.034 53.5425 187.727 52.0604 186.921 51.1555C184.801 48.7713 193.808 49.1686 193.808 49.1686C194.085 50.2634 194.443 51.3358 194.881 52.3765Z" fill="black"/>
</g>
<path d="M189.305 54.7375C193.182 54.7375 196.325 51.5937 196.325 47.7155C196.325 43.8373 193.182 40.6935 189.305 40.6935C185.427 40.6935 182.284 43.8373 182.284 47.7155C182.284 51.5937 185.427 54.7375 189.305 54.7375Z" fill="#F8BDC5"/>
<path d="M218.447 59.77C218.102 61.6074 217.881 63.466 217.785 65.3331C217.678 67.7202 215.979 76.3751 215.358 79.4641C215.28 79.8603 215.105 80.2309 214.849 80.5431C214.593 80.8553 214.264 81.0994 213.891 81.2537C212.168 81.9585 209.036 82.353 206.931 77.3903C205.744 74.6596 204.781 71.8368 204.051 68.95C203.793 67.9796 203.599 66.9932 203.471 65.9973L208.111 63.4797C208.548 63.8883 208.918 64.363 209.207 64.8864C209.848 65.9857 210.507 67.7492 210.367 70.2349L211.817 72.3551C211.817 72.3551 215.393 61.226 214.717 59.2392C214.042 57.2524 216.837 56.7216 216.837 56.7216C216.837 56.7216 224.653 50.6306 225.581 51.5559C226.509 52.4811 222.817 57.119 218.447 59.77Z" fill="#F8BDC5"/>
<path d="M180.43 65.0691C180.068 66.1054 179.652 67.122 179.183 68.1146C177.623 71.4704 174.567 76.816 169.834 79.9079C162.549 84.6763 164.138 75.0061 164.138 75.0061C164.138 75.0061 165.922 63.5087 166.258 62.421C166.789 60.6981 166.522 58.05 166.522 58.05C163.741 56.7245 160.563 48.3798 161.488 47.7156C162.413 47.0514 169.028 54.7377 169.028 54.7377C169.028 54.7377 172.076 56.1879 170.478 58.5808C168.88 60.9736 169.55 71.5632 169.55 71.5632L172.615 67.3315C173.297 65.5657 174.213 63.8995 175.338 62.3775C175.918 61.5857 176.324 61.1071 176.324 61.1071L180.43 65.0691Z" fill="#F8BDC5"/>
<g opacity="0.1">
<path opacity="0.1" d="M209.21 64.8863C208.236 65.246 204.463 66.7687 204.045 68.947C203.787 67.9766 203.593 66.9902 203.465 65.9943L208.105 63.4767C208.545 63.8856 208.918 64.3613 209.21 64.8863Z" fill="black"/>
</g>
<g opacity="0.1">
<path opacity="0.1" d="M180.431 65.069C180.069 66.1053 179.652 67.1219 179.184 68.1145C179.004 66.8035 178.264 63.4505 175.338 62.3687C175.918 61.5768 176.324 61.0983 176.324 61.0983L180.431 65.069Z" fill="black"/>
</g>
<g opacity="0.1">
<path opacity="0.1" d="M195.4 72.355H187.715V59.9004C187.944 58.7042 188.077 57.4919 188.116 56.2748C189.696 57.8004 189.305 60.1643 189.305 60.1643L193.411 69.4458L195.4 61.2404L194.739 60.1817L197.465 56.939C198.398 58.1779 199.593 59.1951 200.965 59.9178C206.261 62.5514 195.4 72.355 195.4 72.355Z" fill="black"/>
</g>
<g opacity="0.1">
<path opacity="0.1" d="M200.829 97.7862C200.829 97.7862 194.809 97.3077 189.586 97.0814L189.061 97.0582C188.319 97.0292 187.611 97.006 186.918 96.9886C181.849 96.8668 176.116 95.0946 175.141 94.7843C175.507 94.2178 175.902 93.6708 176.324 93.1455L184.273 94.8858C184.273 94.8858 185.526 95.2861 188.31 96.5187L183.742 93.1455L197.662 95.6631C197.662 95.6631 198.147 95.6022 200.707 97.035L200.829 97.7862Z" fill="black"/>
</g>
<path d="M195.4 61.7568L194.739 60.6981L197.68 57.1798C197.68 57.1798 203.744 60.1528 205.333 59.5002C205.333 59.5002 209.175 62.6907 209.306 64.5354C209.306 64.5354 203.744 66.3888 203.874 69.1762C204.005 71.9635 201.235 77.9182 201.235 77.9182L200.075 82.6807C199.361 85.567 199.262 88.5712 199.785 91.4982L200.844 97.3948C200.844 97.3948 192.497 96.7335 186.924 96.6001C181.35 96.4667 175.002 94.3493 175.002 94.3493L178.253 87.5071C179.425 85.0379 179.999 82.3272 179.929 79.5946L179.639 68.5178C179.639 68.5178 179.375 62.9547 174.999 62.0265C174.999 62.0265 177.383 57.1247 181.089 57.5221C181.089 57.5221 186.489 55.2684 188.092 56.7912C189.696 58.3139 189.302 60.701 189.302 60.701L193.408 69.9825L195.4 61.7568Z" fill="#ED677B"/>
<g opacity="0.1">
<path opacity="0.1" d="M184.238 46.2681C185.303 46.2681 186.138 45.1399 187.202 45.1979C187.753 45.2269 188.226 45.5778 188.681 45.894C190.401 47.0855 192.316 47.9688 194.339 48.5044C195.125 48.7132 195.957 48.8699 196.746 48.6784C197.535 48.487 198.274 47.8663 198.364 47.0571C198.386 46.7004 198.339 46.3429 198.225 46.0042C197.332 42.8927 195.312 40.2257 192.558 38.5239C191.456 37.8481 190.111 37.3318 188.89 37.7553C187.788 38.1352 187.077 39.1678 186.28 40.0176C185.679 40.654 184.996 41.2079 184.25 41.6651C183.67 42.0161 182.8 42.2452 182.466 42.8891C181.837 44.0899 182.826 46.2565 184.238 46.2681Z" fill="black"/>
</g>
<path d="M184.238 46.0042C185.303 46.0042 186.138 44.8759 187.202 44.934C187.753 44.963 188.226 45.3139 188.681 45.6301C190.401 46.8216 192.316 47.7049 194.339 48.2405C195.125 48.4493 195.957 48.6059 196.746 48.4145C197.535 48.2231 198.274 47.6024 198.364 46.7932C198.386 46.4365 198.339 46.0789 198.225 45.7403C197.332 42.6288 195.312 39.9618 192.558 38.26C191.456 37.5842 190.111 37.0679 188.89 37.4914C187.788 37.8713 187.077 38.9039 186.28 39.7537C185.679 40.3901 184.996 40.944 184.25 41.4012C183.67 41.7521 182.8 41.9813 182.466 42.6252C181.837 43.8376 182.826 45.9897 184.238 46.0042Z" fill="#85555C"/>
<path opacity="0.05" d="M181.028 76.2618C181.028 76.2618 187.518 78.646 191.758 76.7926L193.878 76.926C193.878 76.926 197.401 79.3973 201.128 78.2922" fill="black"/>
<path opacity="0.05" d="M211.759 72.2883C211.759 72.2883 210.701 74.8059 211.229 75.6007L211.759 72.2883Z" fill="black"/>
<path opacity="0.05" d="M169.503 71.4934C169.503 71.4934 170.034 74.011 169.503 74.8057V71.4934Z" fill="black"/>
<path d="M279.36 128.862C279.36 128.862 267.227 140.997 274.077 159.003C280.926 177.01 262.337 206.954 262.337 206.954C262.337 206.954 262.538 206.925 262.917 206.861C287.837 202.461 300.217 173.958 286.361 152.782C281.196 144.907 276.968 135.672 279.36 128.862Z" fill="#026FC2"/>
<path opacity="0.1" d="M279.36 129.065C279.36 129.065 267.227 141.2 274.077 159.207C280.926 177.213 262.337 207.154 262.337 207.154C262.337 207.154 262.538 207.125 262.917 207.061C287.837 202.661 300.217 174.158 286.361 152.982C281.196 145.11 276.968 135.875 279.36 129.065Z" fill="black"/>
<path d="M279.36 128.862C279.36 128.862 272.51 143.735 279.36 155.871C286.21 168.006 280.52 202.061 262.334 206.954" stroke="#535461" stroke-miterlimit="10"/>
<path d="M300.971 177.944C300.971 177.944 287.126 175.739 285.865 188.147C284.603 200.556 259.234 202.276 259.234 202.276L259.71 202.592C280.648 216.34 300.666 211.348 297.647 193.093C296.534 186.309 296.627 179.492 300.971 177.944Z" fill="#026FC2"/>
<path d="M300.971 177.943C300.971 177.943 290.224 180.302 291.111 190.076C291.998 199.851 275.161 211.566 259.246 202.278" stroke="#535461" stroke-miterlimit="10"/>
<path d="M288.791 202.728C288.791 202.728 277.887 200.547 274.978 197.638C272.07 194.728 258.985 189.641 257.532 193.287C256.079 196.933 237.905 209.283 250.262 211.464C262.619 213.645 279.34 214.365 282.974 212.914C286.607 211.464 288.791 202.728 288.791 202.728Z" fill="#A8A8A8"/>
<path opacity="0.2" d="M250.262 210.104C262.622 212.285 279.34 213.004 282.974 211.554C285.743 210.446 287.666 205.127 288.426 202.65L288.788 202.725C288.788 202.725 286.607 211.45 282.974 212.903C279.34 214.356 262.619 213.631 250.262 211.453C246.695 210.823 245.674 209.344 246.06 207.473C246.362 208.694 247.606 209.634 250.262 210.104Z" fill="black"/>
</g>
<defs>
<linearGradient id="paint0_linear" x1="151.361" y1="216.493" x2="151.361" y2="6.49988" gradientUnits="userSpaceOnUse">
<stop stop-color="#808080" stop-opacity="0.25"/>
<stop offset="0.54" stop-color="#808080" stop-opacity="0.12"/>
<stop offset="1" stop-color="#808080" stop-opacity="0.1"/>
</linearGradient>
<linearGradient id="paint1_linear" x1="50750.3" y1="72152.1" x2="50750.3" y2="21714.6" gradientUnits="userSpaceOnUse">
<stop stop-color="#808080" stop-opacity="0.25"/>
<stop offset="0.54" stop-color="#808080" stop-opacity="0.12"/>
<stop offset="1" stop-color="#808080" stop-opacity="0.1"/>
</linearGradient>
<clipPath id="clip0">
<rect width="301" height="224" fill="white"/>
</clipPath>
</defs>
</svg>
