<svg width="391" height="205" viewBox="0 0 391 205" fill="none" xmlns="http://www.w3.org/2000/svg">
<g clip-path="url(#clip0)">
<path d="M85.8142 203.949H84.9203C84.9203 193.215 80.494 182.922 72.615 175.332C64.736 167.743 54.0497 163.479 42.9071 163.479C31.7645 163.479 21.0783 167.743 13.1993 175.332C5.32027 182.922 0.893898 193.215 0.893898 203.949H0C1.6957e-07 192.987 4.52055 182.474 12.5672 174.723C20.6138 166.972 31.5275 162.618 42.9071 162.618C54.2868 162.618 65.2004 166.972 73.247 174.723C81.2937 182.474 85.8142 192.987 85.8142 203.949Z" fill="#3F3D56"/>
<path d="M396.891 203.948H395.997C395.997 193.215 391.571 182.922 383.692 175.332C375.813 167.742 365.126 163.479 353.984 163.479C342.841 163.479 332.155 167.742 324.276 175.332C316.397 182.922 311.971 193.215 311.971 203.948H311.077C311.077 192.987 315.597 182.474 323.644 174.723C331.69 166.972 342.604 162.618 353.984 162.618C365.363 162.618 376.277 166.972 384.324 174.723C392.37 182.474 396.891 192.987 396.891 203.948Z" fill="#3F3D56"/>
<path d="M291.858 105.358H290.964C290.964 64.5256 256.478 31.3066 214.088 31.3066C171.699 31.3066 137.213 64.5256 137.213 105.358H136.319C136.319 64.051 171.206 30.4456 214.088 30.4456C256.971 30.4456 291.858 64.051 291.858 105.358Z" fill="#3F3D56"/>
<path d="M65.031 32.5982C74.7813 32.5982 82.6855 24.9844 82.6855 15.5923C82.6855 6.20022 74.7813 -1.41357 65.031 -1.41357C55.2807 -1.41357 47.3765 6.20022 47.3765 15.5923C47.3765 24.9844 55.2807 32.5982 65.031 32.5982Z" fill="#FF6584"/>
<path d="M68.7812 132.646L99.1117 97.8523H158.743L195.185 132.043L194.449 132.499H194.711V203.616H68.8228V132.499L68.7812 132.646Z" fill="#3F3D56"/>
<path d="M87.0294 117.519H93.9048V94.5943H87.0294V117.519Z" fill="#3F3D56"/>
<path d="M98.6392 97.3962L136.027 139.619V203.616H68.8232V131.587L98.6392 97.3962Z" fill="#026FC2"/>
<path d="M127.387 147.999H113.662V161.517H127.387V147.999Z" fill="#3F3D56"/>
<path d="M127.387 166.392H113.662V179.91H127.387V166.392Z" fill="#3F3D56"/>
<path d="M127.387 147.999H113.662V161.517H127.387V147.999Z" fill="white"/>
<path d="M127.387 166.392H113.662V179.91H127.387V166.392Z" fill="white"/>
<path d="M108.405 147.999H94.6807V161.517H108.405V147.999Z" fill="#3F3D56"/>
<path d="M108.405 166.392H94.6807V179.91H108.405V166.392Z" fill="#3F3D56"/>
<path d="M108.405 147.999H94.6807V161.517H108.405V147.999Z" fill="white"/>
<path d="M108.405 166.392H94.6807V179.91H108.405V166.392Z" fill="white"/>
<path d="M89.4244 147.999H75.6997V161.517H89.4244V147.999Z" fill="#3F3D56"/>
<path d="M89.4244 166.392H75.6997V179.91H89.4244V166.392Z" fill="#3F3D56"/>
<path d="M89.4244 147.999H75.6997V161.517H89.4244V147.999Z" fill="white"/>
<path d="M89.4244 166.392H75.6997V179.91H89.4244V166.392Z" fill="white"/>
<path d="M223.028 15.8075H216.771V30.876H223.028V15.8075Z" fill="#F25929"/>
<path d="M222.581 29.5845H169.394V203.949H222.581V29.5845Z" fill="#026FC2"/>
<path d="M244.034 29.5845H222.581V203.949H244.034V29.5845Z" fill="#3F3D56"/>
<path d="M187.048 44.653H179.003V52.4025H187.048V44.653Z" fill="white"/>
<path d="M200.01 44.653H191.965V52.4025H200.01V44.653Z" fill="white"/>
<path d="M212.971 44.653H204.926V52.4025H212.971V44.653Z" fill="white"/>
<path d="M187.272 62.3046H179.227V70.0541H187.272V62.3046Z" fill="white"/>
<path d="M200.233 62.3046H192.188V70.0541H200.233V62.3046Z" fill="white"/>
<path d="M213.195 62.3046H205.15V70.0541H213.195V62.3046Z" fill="white"/>
<path d="M187.495 79.9563H179.45V87.7058H187.495V79.9563Z" fill="white"/>
<path d="M200.457 79.9563H192.412V87.7058H200.457V79.9563Z" fill="white"/>
<path d="M213.418 79.9563H205.373V87.7058H213.418V79.9563Z" fill="white"/>
<path d="M187.719 97.608H179.674V105.358H187.719V97.608Z" fill="white"/>
<path d="M200.68 97.608H192.635V105.358H200.68V97.608Z" fill="white"/>
<path d="M213.642 97.608H205.597V105.358H213.642V97.608Z" fill="white"/>
<path d="M187.942 115.26H179.897V123.009H187.942V115.26Z" fill="white"/>
<path d="M200.903 115.26H192.858V123.009H200.903V115.26Z" fill="white"/>
<path d="M213.865 115.26H205.82V123.009H213.865V115.26Z" fill="white"/>
<path d="M188.166 132.911H180.121V140.661H188.166V132.911Z" fill="white"/>
<path d="M201.127 132.911H193.082V140.661H201.127V132.911Z" fill="white"/>
<path d="M214.089 132.911H206.043V140.661H214.089V132.911Z" fill="white"/>
<path d="M188.389 150.563H180.344V158.312H188.389V150.563Z" fill="white"/>
<path d="M201.351 150.563H193.306V158.312H201.351V150.563Z" fill="white"/>
<path d="M214.312 150.563H206.267V158.312H214.312V150.563Z" fill="white"/>
<path d="M188.612 168.215H180.567V175.964H188.612V168.215Z" fill="white"/>
<path d="M201.574 168.215H193.529V175.964H201.574V168.215Z" fill="white"/>
<path d="M201.574 188.88H193.529V203.518H201.574V188.88Z" fill="white"/>
<path d="M214.536 168.215H206.491V175.964H214.536V168.215Z" fill="white"/>
<path d="M226.156 15.8075H222.581V30.4455H226.156V15.8075Z" fill="#3F3D56"/>
<path d="M290.07 92.4415H283.812V101.372H290.07V92.4415Z" fill="#F25929"/>
<path d="M289.623 100.607H236.436V203.948H289.623V100.607Z" fill="#026FC2"/>
<path d="M311.077 100.607H289.623V203.948H311.077V100.607Z" fill="#3F3D56"/>
<path d="M254.985 115.26H246.939V123.009H254.985V115.26Z" fill="white"/>
<path d="M267.946 115.26H259.901V123.009H267.946V115.26Z" fill="white"/>
<path d="M280.907 115.26H272.862V123.009H280.907V115.26Z" fill="white"/>
<path d="M255.208 132.911H247.163V140.661H255.208V132.911Z" fill="white"/>
<path d="M268.17 132.911H260.125V140.661H268.17V132.911Z" fill="white"/>
<path d="M281.131 132.911H273.086V140.661H281.131V132.911Z" fill="white"/>
<path d="M255.431 150.563H247.386V158.312H255.431V150.563Z" fill="white"/>
<path d="M268.393 150.563H260.348V158.312H268.393V150.563Z" fill="white"/>
<path d="M281.355 150.563H273.31V158.312H281.355V150.563Z" fill="white"/>
<path d="M255.655 168.215H247.61V175.964H255.655V168.215Z" fill="white"/>
<path d="M268.616 168.215H260.571V175.964H268.616V168.215Z" fill="white"/>
<path d="M268.616 188.88H260.571V203.518H268.616V188.88Z" fill="white"/>
<path d="M281.578 168.215H273.533V175.964H281.578V168.215Z" fill="white"/>
<path d="M293.199 92.4415H289.623V101.117H293.199V92.4415Z" fill="#3F3D56"/>
<path d="M397 203.428H0.108887V204.393H397V203.428Z" fill="#3F3D56"/>
<path d="M327.462 183.749C333.889 183.749 339.1 178.729 339.1 172.537C339.1 166.346 333.889 161.326 327.462 161.326C321.034 161.326 315.823 166.346 315.823 172.537C315.823 178.729 321.034 183.749 327.462 183.749Z" fill="#026FC2"/>
<path opacity="0.2" d="M336.119 165.049C337.205 167.495 337.352 170.234 336.535 172.775C335.717 175.316 333.988 177.494 331.657 178.921C329.326 180.347 326.544 180.929 323.809 180.561C321.073 180.194 318.563 178.901 316.726 176.915C317.389 178.409 318.381 179.747 319.635 180.835C320.888 181.924 322.372 182.737 323.983 183.218C325.595 183.699 327.296 183.837 328.969 183.622C330.641 183.407 332.245 182.844 333.669 181.972C335.094 181.101 336.304 179.942 337.217 178.575C338.13 177.208 338.724 175.666 338.957 174.056C339.19 172.447 339.057 170.807 338.567 169.252C338.077 167.697 337.242 166.263 336.119 165.049Z" fill="black"/>
<path d="M327.494 172.537H327.526L328.101 204.323H326.886L327.494 172.537Z" fill="#3F3D56"/>
<path d="M329.613 189.851L329.345 189.36L327.421 190.336L327.689 190.826L329.613 189.851Z" fill="#3F3D56"/>
<path d="M361.679 173.036C371.454 173.036 379.378 165.403 379.378 155.987C379.378 146.572 371.454 138.939 361.679 138.939C351.905 138.939 343.98 146.572 343.98 155.987C343.98 165.403 351.905 173.036 361.679 173.036Z" fill="#026FC2"/>
<path opacity="0.2" d="M374.845 144.6C376.496 148.32 376.72 152.484 375.477 156.349C374.234 160.213 371.605 163.526 368.06 165.695C364.515 167.864 360.284 168.748 356.125 168.189C351.965 167.63 348.147 165.665 345.354 162.644C346.362 164.917 347.871 166.951 349.777 168.606C351.683 170.261 353.939 171.497 356.39 172.229C358.841 172.96 361.428 173.17 363.971 172.843C366.515 172.516 368.954 171.66 371.12 170.335C373.285 169.01 375.126 167.247 376.515 165.168C377.903 163.09 378.806 160.745 379.16 158.297C379.515 155.849 379.312 153.357 378.567 150.991C377.822 148.626 376.552 146.446 374.845 144.6Z" fill="black"/>
<path d="M361.728 155.987H361.777L362.652 204.323H360.804L361.728 155.987Z" fill="#3F3D56"/>
<path d="M364.951 182.316L364.543 181.57L361.617 183.053L362.025 183.799L364.951 182.316Z" fill="#3F3D56"/>
<path d="M11.9157 183.318C18.3436 183.318 23.5545 178.299 23.5545 172.107C23.5545 165.915 18.3436 160.896 11.9157 160.896C5.48773 160.896 0.276855 165.915 0.276855 172.107C0.276855 178.299 5.48773 183.318 11.9157 183.318Z" fill="#026FC2"/>
<path opacity="0.2" d="M20.5734 164.619C21.659 167.065 21.8063 169.803 20.9888 172.344C20.1714 174.886 18.4426 177.064 16.1113 178.49C13.78 179.917 10.9981 180.498 8.26278 180.131C5.52743 179.763 3.01686 178.471 1.17969 176.484C1.84288 177.979 2.83546 179.317 4.08867 180.405C5.34188 181.493 6.82574 182.306 8.43746 182.787C10.0492 183.268 11.7502 183.406 13.4227 183.191C15.0952 182.976 16.6992 182.413 18.1235 181.542C19.5478 180.67 20.7584 179.511 21.6714 178.144C22.5844 176.777 23.178 175.236 23.411 173.626C23.6441 172.016 23.511 170.377 23.021 168.822C22.531 167.266 21.6959 165.832 20.5734 164.619H20.5734Z" fill="black"/>
<path d="M11.9472 172.107H11.9794L12.5547 203.893H11.3398L11.9472 172.107Z" fill="#3F3D56"/>
<path d="M14.067 189.42L13.7988 188.93L11.8749 189.905L12.143 190.396L14.067 189.42Z" fill="#3F3D56"/>
<path d="M271.036 14.6605L275.15 11.4906C271.954 11.1509 270.641 12.83 270.103 14.1591C267.606 13.1603 264.888 14.4693 264.888 14.4693L273.12 17.3481C272.705 16.2796 271.982 15.3473 271.036 14.6605Z" fill="#3F3D56"/>
<path d="M64.5457 30.59L68.6601 27.4201C65.4638 27.0804 64.1505 28.7596 63.613 30.0887C61.1159 29.0899 58.3975 30.3989 58.3975 30.3989L66.6298 33.2777C66.2145 32.2092 65.4915 31.2768 64.5457 30.59Z" fill="#3F3D56"/>
<path d="M333.609 46.9502L337.724 43.7804C334.527 43.4407 333.214 45.1198 332.676 46.4489C330.179 45.4501 327.461 46.7591 327.461 46.7591L335.693 49.6379C335.278 48.5694 334.555 47.6371 333.609 46.9502Z" fill="#3F3D56"/>
<path d="M98.5135 21.9795L102.628 18.8097C99.4316 18.47 98.1183 20.1491 97.5808 21.4782C95.0837 20.4794 92.3652 21.7884 92.3652 21.7884L100.598 24.6672C100.182 23.5987 99.4593 22.6664 98.5135 21.9795Z" fill="#3F3D56"/>
<path d="M106.112 56.4217L110.226 53.2518C107.03 52.9121 105.716 54.5913 105.179 55.9204C102.682 54.9215 99.9634 56.2305 99.9634 56.2305L108.196 59.1094C107.78 58.0408 107.057 57.1085 106.112 56.4217Z" fill="#3F3D56"/>
<path d="M266.119 74.504L270.234 71.3341C267.038 70.9944 265.724 72.6736 265.187 74.0026C262.69 73.0038 259.971 74.3128 259.971 74.3128L268.203 77.1916C267.788 76.1231 267.065 75.1908 266.119 74.504Z" fill="#3F3D56"/>
<path d="M47.3764 194.907H19.6655V195.769H23.9871V203.949H24.881V195.769H41.714V203.949H42.6079V195.769H47.3764V194.907Z" fill="#3F3D56"/>
<path d="M75.5343 198.352C74.4406 198.351 73.3661 198.629 72.4193 199.157C71.4577 198.319 70.2644 197.768 68.9842 197.571C67.704 197.374 66.3919 197.539 65.2073 198.047C64.0227 198.554 63.0165 199.382 62.3108 200.43C61.6052 201.477 61.2304 202.7 61.2319 203.948H81.7691C81.6571 202.429 80.9517 201.007 79.7948 199.968C78.638 198.93 77.1156 198.352 75.5343 198.352Z" fill="#3F3D56"/>
<path d="M181.462 198.352C180.368 198.351 179.293 198.629 178.347 199.157C177.385 198.319 176.192 197.768 174.911 197.571C173.631 197.374 172.319 197.539 171.135 198.047C169.95 198.554 168.944 199.382 168.238 200.43C167.532 201.477 167.158 202.7 167.159 203.948H187.696C187.584 202.429 186.879 201.007 185.722 199.968C184.565 198.93 183.043 198.352 181.462 198.352Z" fill="#3F3D56"/>
<path d="M250.738 198.352C249.645 198.351 248.57 198.629 247.623 199.157C246.662 198.319 245.468 197.768 244.188 197.571C242.908 197.374 241.596 197.539 240.411 198.047C239.227 198.554 238.221 199.382 237.515 200.43C236.809 201.477 236.434 202.7 236.436 203.948H256.973C256.861 202.429 256.156 201.007 254.999 199.968C253.842 198.93 252.32 198.352 250.738 198.352Z" fill="#3F3D56"/>
<path d="M341.916 198.352C340.822 198.351 339.748 198.629 338.801 199.157C337.84 198.319 336.646 197.768 335.366 197.571C334.086 197.374 332.774 197.539 331.589 198.047C330.405 198.554 329.398 199.382 328.693 200.43C327.987 201.477 327.612 202.7 327.614 203.948H348.151C348.039 202.429 347.334 201.007 346.177 199.968C345.02 198.93 343.497 198.352 341.916 198.352Z" fill="#3F3D56"/>
<path d="M385.717 198.352C384.624 198.351 383.549 198.629 382.602 199.157C381.641 198.319 380.447 197.768 379.167 197.571C377.887 197.374 376.575 197.539 375.39 198.047C374.206 198.554 373.2 199.382 372.494 200.43C371.788 201.477 371.413 202.7 371.415 203.948H391.952C391.84 202.429 391.135 201.007 389.978 199.968C388.821 198.93 387.299 198.352 385.717 198.352Z" fill="#3F3D56"/>
<path d="M57.6565 173.812H50.5054V180.7H53.8204V203.911H54.7143V180.7H57.6565V173.812Z" fill="#3F3D56"/>
<path d="M47.4311 192.331H19.7202V193.192H47.4311V192.331Z" fill="#3F3D56"/>
<path d="M47.4311 190.179H19.7202V191.04H47.4311V190.179Z" fill="#3F3D56"/>
<path d="M47.4311 188.026H19.7202V188.887H47.4311V188.026Z" fill="#3F3D56"/>
</g>
<defs>
<clipPath id="clip0">
<rect width="397" height="205.807" fill="white" transform="translate(0 -1.41357)"/>
</clipPath>
</defs>
</svg>
