<svg width="452" height="363" viewBox="0 0 452 363" fill="none" xmlns="http://www.w3.org/2000/svg">
<g clip-path="url(#clip0)">
<path opacity="0.1" d="M150.13 362.797C172.095 362.797 189.901 359.547 189.901 355.539C189.901 351.531 172.095 348.281 150.13 348.281C128.165 348.281 110.358 351.531 110.358 355.539C110.358 359.547 128.165 362.797 150.13 362.797Z" fill="#6397FF"/>
<path opacity="0.1" d="M366.321 363.001C393.73 363.001 415.949 359.751 415.949 355.743C415.949 351.735 393.73 348.485 366.321 348.485C338.912 348.485 316.692 351.735 316.692 355.743C316.692 359.751 338.912 363.001 366.321 363.001Z" fill="#6397FF"/>
<path opacity="0.1" d="M5.82749 156.843H47.2519V220.994H8.86014C8.7581 221.653 8.66014 222.316 8.55402 222.979H47.2519V274.716C47.1825 274.692 47.1213 274.665 47.056 274.637C45.9621 274.145 44.8764 273.626 43.7907 273.069L43.0968 272.712C42.0084 272.128 40.9199 271.509 39.8315 270.857C39.4519 270.63 39.0723 270.393 38.6968 270.152C32.6543 266.306 27.165 261.433 22.4193 255.702C22.2805 255.549 22.1499 255.386 22.0111 255.238C21.3499 254.422 20.7009 253.596 20.0724 252.752L19.3785 251.825C18.6356 250.79 17.9173 249.728 17.2193 248.652C17.1173 248.495 17.0193 248.337 16.9132 248.189C14.0746 243.717 11.7177 238.875 9.89279 233.766C9.83565 233.613 9.78667 233.446 9.73361 233.302C9.17306 231.664 8.67647 230.009 8.24381 228.34C8.05606 227.64 7.87647 226.949 7.72137 226.221C7.66422 226.007 7.61524 225.799 7.57035 225.59C5.25198 215.308 4.97852 204.628 4.97852 194.022C4.97852 192.784 4.97852 191.541 4.97852 190.312C4.97852 186.022 5.02341 181.705 5.08872 177.392C5.08872 176.274 5.12953 175.161 5.14994 174.039C5.20709 171.191 5.28872 168.344 5.39484 165.496C5.41933 164.703 5.45198 163.915 5.48872 163.127C5.48872 162.672 5.50913 162.218 5.54994 161.763C5.6479 160.112 5.72953 158.475 5.82749 156.843Z" fill="#6397FF"/>
<path opacity="0.1" d="M47.2517 85.4152H24.5293C28.2229 78.8465 32.2587 72.5344 36.615 66.5126C39.9905 61.8008 43.5537 57.2096 47.2517 52.7854V85.4152Z" fill="#6397FF"/>
<path opacity="0.1" d="M47.2518 87.4001V154.858H5.95801C5.95801 154.663 5.98658 154.464 5.99882 154.269C6.03556 153.736 6.07229 153.202 6.11311 152.674C6.15801 152.052 6.20699 151.426 6.26005 150.819C6.31311 150.211 6.37025 149.469 6.43148 148.797C6.4927 148.124 6.54984 147.443 6.61923 146.77C6.68862 146.098 6.74984 145.425 6.82331 144.757C6.89678 144.09 6.96209 143.413 7.03964 142.745C7.10086 142.188 7.16617 141.636 7.23147 141.08C7.32535 140.296 7.42331 139.508 7.52943 138.729C7.52943 138.613 7.558 138.492 7.57433 138.381C8.3193 132.677 9.33438 127.024 10.6151 121.444C11.9558 115.592 13.6677 109.857 15.7376 104.285C17.9374 98.4569 20.5131 92.8208 23.4437 87.4233L47.2518 87.4001Z" fill="#6397FF"/>
<path opacity="0.1" d="M57.1416 156.838V220.994H145.619V156.838H57.1416ZM57.1416 222.974V278.069C57.6477 278.189 58.1498 278.305 58.6477 278.402C59.3253 278.551 59.9987 278.685 60.6885 278.801C60.8191 278.824 60.9538 278.848 61.0967 278.862C61.3661 278.913 61.6436 278.954 61.913 278.996C62.5946 279.103 63.2722 279.191 63.9538 279.26C64.2763 279.298 64.6028 279.33 64.9293 279.358L65.7171 279.427C66.1457 279.464 66.5701 279.492 66.9906 279.506C67.2518 279.506 67.513 279.534 67.7824 279.543C67.9865 279.543 68.1906 279.543 68.4028 279.543C68.615 279.543 68.9171 279.543 69.1742 279.543C69.5252 279.543 69.8763 279.543 70.2232 279.543H70.6926C71.0436 279.543 71.3946 279.543 71.7416 279.506H71.7661C72.0069 279.506 72.2518 279.506 72.4967 279.469C72.5646 279.474 72.6328 279.474 72.7007 279.469C72.9048 279.469 73.1089 279.469 73.3048 279.437H73.4477L74.815 279.316C75.264 279.27 75.7171 279.209 76.1742 279.154L77.1048 279.029C80.8908 278.426 84.6348 277.521 88.3089 276.32C96.5619 273.705 104.635 270.046 112.884 267.365C123.55 263.91 135.333 262.213 145.639 266.438V222.974H57.1416ZM145.619 85.4152V0.00538692C135.932 -0.113856 126.272 1.17344 116.872 3.83601C94.468 10.2312 74.366 24.1021 57.1416 41.8176V85.4106H61.5824V87.3909H57.1416V154.858H145.619V87.3955H79.815V85.4152H145.619ZM259.264 56.565C253.721 56.3424 248.211 54.3483 243.227 51.2689C233.696 45.3792 226.084 36.285 217.578 28.6098C199.905 12.6242 177.986 2.97806 155.501 0.585081V85.4152H281.806L282.121 85.0396L259.264 56.565ZM270.77 54.2462L282.97 69.4574V50.2579C278.884 50.833 275.304 52.2011 270.786 54.2277L270.77 54.2462ZM282.97 291.749V222.974H256.974C256.904 222.682 256.835 222.385 256.753 222.089C256.831 222.385 256.896 222.682 256.97 222.974H155.517V272.712C156.48 273.524 157.431 274.377 158.374 275.244C159.39 276.172 160.394 277.15 161.403 278.11L162.419 279.066C162.905 279.529 163.394 279.993 163.888 280.429C164.868 281.332 165.857 282.222 166.856 283.1C167.349 283.564 167.856 283.981 168.358 284.417C176.328 291.341 184.736 297.589 193.513 303.111C195.48 304.348 197.465 305.555 199.468 306.733C200.802 307.508 202.145 308.278 203.492 309.024C205.517 310.147 207.558 311.229 209.615 312.271C228.581 321.944 248.635 328.581 269.206 331.994C273.775 332.761 278.361 333.364 282.966 333.803V291.745H283.374L282.97 291.749ZM155.517 87.3955V154.858H282.986V87.3955H155.517ZM155.517 156.838V220.994H282.986V156.838H155.517ZM292.88 50.1745V71.5907L308.451 52.1779C303.292 51.2318 298.102 50.5563 292.88 50.1513V50.1745ZM292.88 156.861V220.994H416.859V156.838L292.88 156.861ZM416.406 296.841L416.843 222.974H292.88V334.54C300.865 334.921 308.863 334.813 316.839 334.215H316.978C320.787 333.943 324.579 333.548 328.353 333.028H328.439C348.574 330.366 368.262 324.397 386.888 315.308L416.406 296.841ZM440.765 167.403C440.3 166.155 439.814 164.917 439.32 163.693C438.398 161.374 437.422 159.12 436.418 156.866H426.745V220.994H451.202C451.19 202.833 447.145 184.283 440.777 167.379L440.765 167.403ZM426.745 222.998V286.532C433.635 279.029 439.455 270.444 443.647 260.631C448.688 248.815 450.994 236.02 451.181 222.988L426.745 222.998ZM426.745 138.167V154.863H435.512C432.86 149.115 429.937 143.535 426.757 138.144L426.745 138.167ZM342.663 62.7608C342.018 62.4825 341.374 62.1996 340.725 61.926C333.88 59.0541 326.886 56.6659 319.782 54.7749L295.953 84.4877L295.496 85.0396L295.802 85.4199H380.61C368.799 76.1821 356.065 68.5682 342.676 62.7376L342.663 62.7608ZM383.096 87.4187H294.619L292.88 89.2273V154.858H308.121H308.145H416.875V123.068C407.04 109.552 395.687 97.559 383.108 87.3955L383.096 87.4187Z" fill="#6397FF"/>
<path opacity="0.1" d="M47.2518 121.426V154.858H5.95801C5.95801 154.663 5.98658 154.464 5.99882 154.269C6.03556 153.736 6.07229 153.202 6.11311 152.674C6.15801 152.052 6.20699 151.426 6.26005 150.819C6.31311 150.211 6.37025 149.469 6.43148 148.797C6.4927 148.124 6.54984 147.443 6.61923 146.77C6.68862 146.098 6.74984 145.425 6.82331 144.757C6.89678 144.09 6.96209 143.413 7.03964 142.745C7.10086 142.188 7.16617 141.636 7.23147 141.08C7.32535 140.296 7.42331 139.508 7.52943 138.729C7.52943 138.613 7.558 138.492 7.57433 138.381C8.3193 132.677 9.33438 127.024 10.6151 121.444L47.2518 121.426Z" fill="#6397FF"/>
<path opacity="0.1" d="M5.82749 156.843H47.2519V220.994H8.86014C8.7581 221.653 8.66014 222.316 8.55402 222.979H47.2519V274.716C47.1825 274.692 47.1213 274.665 47.056 274.637C45.9621 274.145 44.8764 273.626 43.7907 273.069L43.0968 272.712C42.0084 272.128 40.9199 271.509 39.8315 270.857C39.4519 270.63 39.0723 270.393 38.6968 270.152C32.6543 266.306 27.165 261.433 22.4193 255.702C22.2805 255.549 22.1499 255.386 22.0111 255.238C21.3499 254.422 20.7009 253.596 20.0724 252.752L19.3785 251.825C18.6356 250.79 17.9173 249.728 17.2193 248.652C17.1173 248.495 17.0193 248.337 16.9132 248.189C14.0746 243.717 11.7177 238.875 9.89279 233.766C9.83565 233.613 9.78667 233.446 9.73361 233.302C9.17306 231.664 8.67647 230.009 8.24381 228.34C8.05606 227.64 7.87647 226.949 7.72137 226.221C7.66422 226.007 7.61524 225.799 7.57035 225.59C5.25198 215.308 4.97852 204.628 4.97852 194.022C4.97852 192.784 4.97852 191.541 4.97852 190.312C4.97852 186.022 5.02341 181.705 5.08872 177.392C5.08872 176.274 5.12953 175.161 5.14994 174.039C5.20709 171.191 5.28872 168.344 5.39484 165.496C5.41933 164.703 5.45198 163.915 5.48872 163.127C5.48872 162.672 5.50913 162.218 5.54994 161.763C5.6479 160.112 5.72953 158.475 5.82749 156.843Z" fill="#6397FF"/>
<path opacity="0.1" d="M88.2885 97.0555V154.858H57.1416V97.0555H61.5824V77.485H79.8109V97.0555H88.2885Z" fill="#6397FF"/>
<path opacity="0.1" d="M88.2883 156.838H57.1455V220.99H88.2883V156.838Z" fill="#6397FF"/>
<path opacity="0.1" d="M57.1416 222.979H88.2885V276.311C84.6144 277.51 80.8704 278.414 77.0844 279.015L76.1538 279.144C75.6967 279.205 75.2436 279.256 74.7946 279.307C74.3456 279.358 73.8803 279.395 73.4273 279.427H73.2844C73.0885 279.427 72.8763 279.455 72.6844 279.46H72.4763C72.2314 279.46 71.9865 279.488 71.7416 279.497C71.3946 279.52 71.0477 279.525 70.6926 279.529C70.5416 279.529 70.3987 279.529 70.2477 279.529C69.8967 279.529 69.5497 279.529 69.1987 279.529H68.4273C68.2191 279.529 68.0191 279.529 67.8028 279.529L67.015 279.497C66.6069 279.497 66.1661 279.446 65.7416 279.413L64.9579 279.348L63.9824 279.246C63.2967 279.177 62.6151 279.089 61.9416 278.982L61.1253 278.852L60.7171 278.787C60.0355 278.667 59.362 278.537 58.6763 278.388C58.1742 278.291 57.6763 278.171 57.1702 278.055L57.1416 222.979Z" fill="#6397FF"/>
<path opacity="0.1" d="M282.986 90.229H257.305V154.853H282.986V90.229Z" fill="#6397FF"/>
<path opacity="0.1" d="M282.99 156.838V220.994H155.517V193.322H223.414V209.646H257.304V156.838H282.99Z" fill="#6397FF"/>
<path opacity="0.1" d="M283.394 291.763H282.986V333.849C278.387 333.407 273.802 332.806 269.231 332.045C248.65 328.621 228.586 321.97 209.614 312.28C204.137 309.479 198.771 306.421 193.517 303.107C184.74 297.582 176.331 291.334 168.357 284.413C166.355 282.669 164.378 280.885 162.427 279.061C161.076 277.795 159.733 276.496 158.374 275.235C157.431 274.368 156.48 273.514 155.517 272.698V222.979H256.965C256.896 222.682 256.827 222.385 256.753 222.093C256.831 222.385 256.904 222.682 256.974 222.979H282.986V291.735C283.124 291.74 283.259 291.754 283.394 291.763Z" fill="#6397FF"/>
<path opacity="0.1" d="M349.965 85.4152H333.23V79.507H340.732V61.9075C341.383 62.1764 342.03 62.4532 342.675 62.7376V79.507H349.965V85.4152Z" fill="#6397FF"/>
<path opacity="0.1" d="M390.284 154.858H308.129C308.129 154.858 308.129 154.858 308.157 154.881L308.121 154.858H292.88V90.2337H297.198V138.001H316.933V109.711H333.235V87.4001H349.97V109.73H366.272V138.019H390.284V154.858Z" fill="#6397FF"/>
<path opacity="0.1" d="M292.88 156.838V220.994H390.284V156.838H292.88ZM416.725 296.512L416.859 245.731H390.284V223.007H292.88V334.54C300.866 334.921 308.864 334.813 316.839 334.215H316.978C320.787 333.943 324.579 333.548 328.353 333.028H328.439C348.574 330.366 368.262 324.397 386.888 315.308" fill="#6397FF"/>
<path opacity="0.1" d="M428.476 222.979H451.198C450.998 236.006 448.696 248.801 443.66 260.617C439.468 270.435 433.643 279.019 426.762 286.518V245.708H428.476V222.979Z" fill="#6397FF"/>
<path opacity="0.1" d="M451.21 220.994H428.476V167.379H440.778C447.145 184.283 451.19 202.834 451.21 220.994Z" fill="#6397FF"/>
<path opacity="0.1" d="M282.991 108.195H269.231V128.456H282.991V108.195Z" fill="#6397FF"/>
<path opacity="0.1" d="M282.991 150.193H269.231V154.858H282.991V150.193Z" fill="#6397FF"/>
<path opacity="0.1" d="M282.991 156.838H269.231V170.449H282.991V156.838Z" fill="#6397FF"/>
<path opacity="0.1" d="M282.991 192.19H269.231V212.452H282.991V192.19Z" fill="#6397FF"/>
<path opacity="0.1" d="M282.991 234.188H269.231V254.449H282.991V234.188Z" fill="#6397FF"/>
<path opacity="0.1" d="M282.987 291.735C283.125 291.735 283.26 291.735 283.395 291.763H282.987V296.47H269.231V276.186H282.987V291.735Z" fill="#6397FF"/>
<path opacity="0.1" d="M282.987 318.174V333.826C278.388 333.384 273.803 332.782 269.231 332.022V318.174H282.987Z" fill="#6397FF"/>
<path opacity="0.1" d="M214.484 219.506H155.517V220.994H214.484V219.506Z" fill="#6397FF"/>
<path opacity="0.1" d="M214.484 222.974H155.517V228.679H214.484V222.974Z" fill="#6397FF"/>
<path opacity="0.1" d="M214.484 247.377H155.517V256.55H214.484V247.377Z" fill="#6397FF"/>
<path opacity="0.1" d="M214.48 275.249V284.422H168.358C166.355 282.684 164.377 280.901 162.423 279.07C161.072 277.804 159.733 276.506 158.37 275.249H214.48Z" fill="#6397FF"/>
<path opacity="0.1" d="M214.48 303.116V312.28H209.61C204.138 309.476 198.774 306.416 193.517 303.102L214.48 303.116Z" fill="#6397FF"/>
<path opacity="0.1" d="M328.451 163.057H316.843V176.246H328.451V163.057Z" fill="#6397FF"/>
<path opacity="0.1" d="M77.113 101.605H65.5049V114.794H77.113V101.605Z" fill="#6397FF"/>
<path opacity="0.1" d="M77.113 132.241H65.5049V145.43H77.113V132.241Z" fill="#6397FF"/>
<path opacity="0.1" d="M77.113 162.876H65.5049V176.066H77.113V162.876Z" fill="#6397FF"/>
<path opacity="0.1" d="M77.113 193.507H65.5049V206.697H77.113V193.507Z" fill="#6397FF"/>
<path opacity="0.1" d="M77.113 224.143H65.5049V237.332H77.113V224.143Z" fill="#6397FF"/>
<path opacity="0.1" d="M77.113 254.779H65.5049V267.968H77.113V254.779Z" fill="#6397FF"/>
<path opacity="0.1" d="M372.765 163.057H361.157V176.246H372.765V163.057Z" fill="#6397FF"/>
<path opacity="0.1" d="M328.451 195.59H316.843V208.779H328.451V195.59Z" fill="#6397FF"/>
<path opacity="0.1" d="M372.765 195.59H361.157V208.779H372.765V195.59Z" fill="#6397FF"/>
<path opacity="0.1" d="M328.451 228.117H316.843V241.307H328.451V228.117Z" fill="#6397FF"/>
<path opacity="0.1" d="M372.765 228.117H361.157V241.307H372.765V228.117Z" fill="#6397FF"/>
<path opacity="0.1" d="M328.451 260.65H316.843V273.839H328.451V260.65Z" fill="#6397FF"/>
<path opacity="0.1" d="M372.765 260.65H361.157V273.839H372.765V260.65Z" fill="#6397FF"/>
<path opacity="0.1" d="M328.451 293.182H316.843V306.372H328.451V293.182Z" fill="#6397FF"/>
<path opacity="0.1" d="M372.765 293.182H361.157V306.372H372.765V293.182Z" fill="#6397FF"/>
<path opacity="0.1" d="M316.843 334.215V325.71H328.447V333.005L316.843 334.215Z" fill="#6397FF"/>
<path opacity="0.1" d="M7.52539 138.371V145.917H47.2518V138.371H7.52539ZM11.4846 145.444H8.24376V138.835H11.5091L11.4846 145.444ZM15.4397 145.444H12.1744V138.835H15.4397V145.444ZM19.3866 145.444H16.1213V138.835H19.3866V145.444ZM23.3417 145.444H20.0805V138.835H23.3458L23.3417 145.444ZM27.2927 145.444H24.0274V138.835H27.2927V145.444ZM31.2478 145.444H27.9825V138.835H31.2478V145.444ZM35.2029 145.444H31.9376V138.835H35.2029V145.444ZM39.1539 145.444H35.8886V138.835H39.1539V145.444ZM43.1049 145.444H39.8396V138.835H43.1049V145.444ZM47.0559 145.444H43.7906V138.835H47.0559V145.444Z" fill="#6397FF"/>
<path opacity="0.1" d="M7.52539 160.326V167.871H47.2518V160.326H7.52539ZM11.4846 167.393H8.24376V160.803H11.5091L11.4846 167.393ZM15.4397 167.393H12.1744V160.803H15.4397V167.393ZM19.3866 167.393H16.1213V160.803H19.3866V167.393ZM23.3417 167.393H20.0805V160.803H23.3458L23.3417 167.393ZM27.2927 167.393H24.0274V160.803H27.2927V167.393ZM31.2478 167.393H27.9825V160.803H31.2478V167.393ZM35.2029 167.393H31.9376V160.803H35.2029V167.393ZM39.1539 167.393H35.8886V160.803H39.1539V167.393ZM43.1049 167.393H39.8396V160.803H43.1049V167.393ZM47.0559 167.393H43.7906V160.803H47.0559V167.393Z" fill="#6397FF"/>
<path opacity="0.1" d="M7.52539 182.289V189.848H47.2518V182.289H7.52539ZM11.4846 189.357H8.24376V182.762H11.5091L11.4846 189.357ZM15.4397 189.357H12.1744V182.762H15.4397V189.357ZM19.3866 189.357H16.1213V182.762H19.3866V189.357ZM23.3417 189.357H20.0805V182.762H23.3458L23.3417 189.357ZM27.2927 189.357H24.0274V182.762H27.2927V189.357ZM31.2478 189.357H27.9825V182.762H31.2478V189.357ZM35.2029 189.357H31.9376V182.762H35.2029V189.357ZM39.1539 189.357H35.8886V182.762H39.1539V189.357ZM43.1049 189.357H39.8396V182.762H43.1049V189.357ZM47.0559 189.357H43.7906V182.762H47.0559V189.357Z" fill="#6397FF"/>
<path opacity="0.1" d="M7.52539 204.253V211.789H47.2518V204.253H7.52539ZM11.4846 211.32H8.24376V204.721H11.5091L11.4846 211.32ZM15.4397 211.32H12.1744V204.721H15.4397V211.32ZM19.3866 211.32H16.1213V204.721H19.3866V211.32ZM23.3417 211.32H20.0805V204.721H23.3458L23.3417 211.32ZM27.2927 211.32H24.0274V204.721H27.2927V211.32ZM31.2478 211.32H27.9825V204.721H31.2478V211.32ZM35.2029 211.32H31.9376V204.721H35.2029V211.32ZM39.1539 211.32H35.8886V204.721H39.1539V211.32ZM43.1049 211.32H39.8396V204.721H43.1049V211.32ZM47.0559 211.32H43.7906V204.721H47.0559V211.32Z" fill="#6397FF"/>
<path opacity="0.1" d="M7.69727 226.211C7.85645 226.921 8.03604 227.631 8.22379 228.331V226.684H11.4891V233.279H9.74216C9.79522 233.432 9.84828 233.599 9.90134 233.743H47.2523V226.211H7.69727ZM15.4523 233.279H12.187V226.684H15.4523V233.279ZM19.3993 233.279H16.134V226.684H19.3993V233.279ZM23.3544 233.279H20.0809V226.684H23.3462L23.3544 233.279ZM27.3054 233.279H24.0401V226.684H27.3054V233.279ZM31.2605 233.279H27.9952V226.684H31.2605V233.279ZM35.2156 233.279H31.9503V226.684H35.2156V233.279ZM39.1666 233.279H35.9013V226.684H39.1666V233.279ZM43.1176 233.279H39.8523V226.684H43.1176V233.279ZM47.0686 233.279H43.8033V226.684H47.0686V233.279Z" fill="#6397FF"/>
<path opacity="0.1" d="M16.9219 248.175C17.0239 248.323 17.1219 248.49 17.228 248.639H19.3872V251.806C19.6198 252.121 19.8484 252.437 20.0851 252.734V248.62H23.3504V255.238H22.028C22.1586 255.391 22.2851 255.553 22.4361 255.702H47.2647V248.175H16.9219ZM27.2933 255.238H24.028V248.648H27.2933V255.238ZM31.2484 255.238H27.9831V248.648H31.2484V255.238ZM35.2035 255.238H31.9382V248.648H35.2035V255.238ZM39.1545 255.238H35.8892V248.648H39.1545V255.238ZM43.1055 255.238H39.8402V248.648H43.1055V255.238ZM47.0565 255.238H43.7912V248.648H47.0565V255.238Z" fill="#6397FF"/>
<path opacity="0.1" d="M38.7129 270.134C39.0843 270.375 39.4639 270.597 39.8476 270.839V270.607H43.1129V272.694L43.8068 273.06V270.607H47.072V274.618C47.1347 274.654 47.2003 274.682 47.268 274.702V270.134H38.7129Z" fill="#6397FF"/>
<path opacity="0.1" d="M308.129 154.858H308.153H308.129ZM282.986 291.731H283.394H282.986ZM256.753 222.089C256.831 222.385 256.896 222.682 256.97 222.974C256.904 222.682 256.835 222.385 256.753 222.089ZM308.129 154.844H308.153H308.129ZM61.5986 85.4014V87.3816H79.8312V85.4014H61.5986ZM282.986 291.731H283.394H282.986ZM256.753 222.089C256.831 222.385 256.896 222.682 256.97 222.974C256.904 222.682 256.835 222.385 256.753 222.089ZM308.129 154.844H308.153H308.129ZM282.986 291.717H283.394H282.986ZM256.753 222.089C256.831 222.385 256.896 222.682 256.97 222.974C256.904 222.682 256.835 222.385 256.753 222.089Z" fill="#6397FF"/>
<path d="M188.586 176.075C188.586 176.075 186.978 175.82 186.978 173.158C186.978 170.496 185.827 165.524 185.827 165.524C185.827 165.501 184.831 156.866 183.455 155.493C182.08 154.121 180.313 146.061 180.313 146.061C180.313 146.061 180.01 141.687 179.394 140.746C178.778 139.804 177.945 137.5 176.717 134.212C175.488 130.924 170.366 128.647 170.366 128.647C170.366 128.647 161.104 122.543 158.48 120.554C158.241 120.391 158.018 120.199 157.815 119.984C157.357 119.302 155.366 119.288 155.366 119.288C155.157 117.795 154.957 116.079 154.892 114.525C154.892 114.358 154.892 114.191 154.872 114.024C157.798 112.059 160.003 108.96 161.08 105.296C161.129 105.12 161.17 104.935 161.215 104.758C161.39 104.693 161.551 104.586 161.688 104.446C161.825 104.305 161.935 104.134 162.011 103.942C162.247 103.344 162.251 102.644 162.545 102.087C162.888 101.429 163.541 101.076 164.055 100.58C165.353 99.3279 165.688 97.2178 165.627 95.2979C165.586 93.7443 165.366 92.1768 165.451 90.6325L165.476 90.2429C165.5 90.0111 165.529 89.7792 165.566 89.5566C165.766 88.4065 166.202 87.3213 166.447 86.1804C166.692 85.0396 166.717 83.755 166.145 82.7718C165.308 81.3296 163.566 81.042 162.035 80.8936C160.3 80.7267 158.749 80.9446 157.639 79.3076C157.12 78.452 156.535 77.6497 155.892 76.91C155.664 76.6688 153.443 75.1291 153.443 75.0271C151.276 73.8867 148.82 73.6726 146.525 74.4242C145.374 74.8045 144.288 75.4259 143.121 75.7367C140.602 76.4137 137.704 75.681 135.566 77.3181C134.374 78.2456 133.66 79.7203 132.99 81.158C132.446 82.3421 131.894 83.5247 131.333 84.7057C130.431 86.6488 129.513 88.6244 129.133 90.7763C129.053 91.2445 129.004 91.7188 128.986 92.1953V92.2185C128.986 92.3901 128.986 92.5617 128.986 92.7333V92.9513C128.986 93.1136 128.986 93.2713 129.011 93.415C129.035 93.5588 129.031 93.6052 129.043 93.7025C129.056 93.7999 129.076 94.0179 129.1 94.1663C129.125 94.3147 129.174 94.5744 129.223 94.7785C129.243 94.8666 129.272 94.95 129.296 95.0335C129.337 95.1912 129.386 95.3442 129.439 95.4973C129.468 95.5761 129.496 95.6596 129.529 95.7384C129.59 95.9008 129.664 96.0584 129.737 96.2022C129.77 96.2671 129.794 96.3274 129.827 96.3877C129.941 96.6034 130.066 96.8109 130.202 97.0091C131.076 98.2474 132.362 99.0357 133.313 100.195C133.313 100.241 133.313 100.288 133.313 100.33C133.313 100.459 133.313 100.585 133.313 100.715C133.363 103.3 133.969 105.833 135.077 108.092C136.185 110.351 137.763 112.268 139.672 113.677C139.672 113.853 139.692 114.034 139.7 114.21C139.78 115.586 139.765 116.968 139.655 118.342C139.489 118.119 139.281 117.942 139.047 117.824C138.812 117.705 138.557 117.647 138.3 117.656C138.125 117.646 137.949 117.663 137.778 117.707L137.741 117.674V117.716C136.843 117.966 135.737 119.028 134.68 122.047C134.68 122.047 131.464 126.165 129.015 125.994C126.566 125.822 120.366 130.279 120.366 130.279C120.366 130.279 114.317 134.74 113.019 139.285C112.293 141.862 111.424 144.384 110.415 146.835L102.937 164.342L101.558 178.231C101.558 178.231 102.321 184.408 102.17 185.35C102.019 186.291 105.309 194.783 105.309 194.783C105.309 194.783 116.178 216.482 120.619 217.595L120.937 217.34C121.127 217.453 121.329 217.538 121.537 217.595L122.451 216.862C122.506 217.679 122.483 218.5 122.382 219.311C121.77 221.453 122.611 235.436 123.68 238.176C124.749 240.917 124.37 276.854 124.37 276.854L124.219 280.026C124.219 280.026 124.219 280.128 124.256 280.304L124.219 281.055L124.329 281.12C124.443 282.126 124.406 283.147 124.219 284.139C123.835 285.53 123.68 289.463 123.68 289.463C123.68 289.463 120.623 311.668 122.072 316.129C123.521 320.59 124.753 325.478 124.753 325.478C124.753 325.478 126.284 331.043 124.827 331.994C123.37 332.945 119.227 334.54 120.08 336.859C120.856 339.001 123.798 344.743 124.235 345.582L124.198 346.023L123.598 353.41C123.696 354.386 123.928 355.337 124.288 356.23C124.945 357.839 126.223 359.509 128.651 359.328C129.06 359.295 129.533 359.24 129.99 359.17C134.435 358.493 139.909 356.239 139.909 356.239C139.624 356.034 139.364 355.789 139.133 355.511C138.915 355.271 138.741 354.982 138.624 354.663C138.507 354.344 138.448 354.002 138.451 353.656C138.517 352.311 136.3 345.902 135.749 344.325C135.664 344.098 135.619 343.968 135.619 343.968C135.619 343.968 140.672 337.967 139.831 332.648C139.831 332.648 134.239 328.938 136.08 326.902C137.921 324.866 141.211 319.018 141.211 319.018C141.211 319.018 141.362 297.152 141.211 293.887C141.053 291.621 141.148 289.342 141.492 287.103C141.553 286.764 141.627 286.435 141.704 286.11C144.25 286.542 146.82 286.763 149.394 286.773C150.333 286.773 151.288 286.773 152.251 286.708C152.251 287.017 152.264 287.351 152.288 287.71C152.5 293.127 152.896 302.624 153.219 306.154C153.676 311.213 156.202 324.848 156.202 324.848C156.202 324.848 151.382 328.363 157.043 337.026C157.043 337.026 157.043 340.165 156.668 340.62C156.267 342.106 155.944 343.617 155.7 345.146C155.464 346.779 155.366 348.43 155.749 349.287C156.668 351.337 162.178 351.17 162.178 351.17L162.313 351.142C163.353 351.02 164.404 351.134 165.405 351.477C166.407 351.82 167.338 352.386 168.145 353.141C170.239 355.052 178.186 354.213 182.488 353.605C184.174 353.364 185.3 353.141 185.3 353.141C185.355 352.924 185.374 352.698 185.357 352.473C185.312 351.272 184.484 348.638 178.868 346.287C178.868 346.287 173.586 342.252 173.659 338.737H173.549H172.937C173.382 338.709 173.668 338.737 173.668 338.737C173.668 338.737 171.598 330.158 172.443 329.462C173.288 328.766 170.757 319.259 170.757 319.259C170.757 319.259 169.308 303.306 169.231 302.188C169.234 301.229 169.362 300.276 169.611 299.36L169.231 290.613C169.231 290.613 169.157 287.705 169.231 286.759C169.219 285.938 169.16 285.119 169.055 284.306C169.019 283.981 168.982 283.643 168.941 283.309C170.921 282.739 172.206 282.21 172.206 282.21L171.978 251.764C173.659 248.054 173.97 239.915 173.962 234.142C173.962 230.432 173.815 227.686 173.815 227.686L176.113 223.424C176.113 223.424 176.643 218.323 175.802 217.205C175.431 216.7 175.598 216.176 175.904 215.744C176.063 215.601 176.231 215.471 176.406 215.355C176.406 215.355 176.382 215.313 176.353 215.253C176.514 215.101 176.684 214.963 176.864 214.84C176.864 214.84 176.047 213.402 176.778 212.795C177.464 213.324 178.076 213.722 178.541 214.047C178.508 214.386 178.476 214.58 178.476 214.58L178.672 214.117C179.121 214.404 179.394 214.58 179.394 214.58C179.394 214.58 182.994 206.432 182.917 205.231C182.839 204.03 185.366 198.97 185.366 198.97C185.366 198.97 185.672 196.313 187.051 195.2C188.431 194.087 188.121 186.022 188.121 186.022C188.121 186.022 188.504 181.821 189.423 180.105C190.341 178.389 188.586 176.075 188.586 176.075ZM119.705 172.499L119.774 174.442C119.366 173.696 119.072 173.158 119.072 173.158L119.705 172.499Z" fill="url(#paint0_linear)"/>
<path d="M179.59 211.061L178.709 215.327C178.709 215.327 171.648 211.232 170.374 206.029C169.101 200.825 172.505 198.85 172.505 198.85L179.084 202.017L179.59 211.061Z" fill="white"/>
<path opacity="0.1" d="M179.59 211.061L178.709 215.327C178.709 215.327 171.648 211.232 170.374 206.029C169.101 200.825 172.505 198.85 172.505 198.85L179.084 202.017L179.59 211.061Z" fill="black"/>
<path d="M139.962 356.267C139.962 356.267 133.431 358.994 128.941 359.337C126.558 359.518 125.305 357.858 124.66 356.258C124.307 355.368 124.08 354.422 123.986 353.452L124.57 346.102L124.88 342.187L134.419 339.372L135.77 344.066L135.897 344.423C136.439 345.99 138.615 352.367 138.55 353.698C138.547 354.039 138.605 354.377 138.72 354.691C138.835 355.006 139.005 355.291 139.219 355.53C139.438 355.81 139.688 356.058 139.962 356.267Z" fill="white"/>
<path d="M184.57 352.529C184.586 352.752 184.567 352.977 184.513 353.192C184.513 353.192 170.546 355.84 167.688 353.192C166.883 352.419 165.944 351.845 164.932 351.508C163.92 351.171 162.857 351.078 161.811 351.235C161.811 351.235 156.407 351.402 155.505 349.38C155.129 348.531 155.227 346.885 155.46 345.262C155.697 343.741 156.013 342.237 156.407 340.759L156.623 340.564L157.909 339.391L172.962 338.885H173.076C173.003 342.382 178.186 346.394 178.186 346.394C183.693 348.712 184.505 351.333 184.57 352.529Z" fill="white"/>
<path opacity="0.1" d="M184.57 352.529C184.584 352.753 184.563 352.977 184.509 353.192C184.509 353.192 170.545 355.84 167.688 353.192C166.883 352.419 165.945 351.846 164.933 351.509C163.922 351.172 162.86 351.079 161.815 351.235C161.815 351.235 156.407 351.402 155.509 349.38C155.133 348.527 155.227 346.885 155.46 345.262C157.541 345.499 160.827 346.088 162.117 347.493C164.068 349.631 167.374 351.764 169.403 351.931C170.99 352.047 180.488 352.39 184.57 352.529Z" fill="black"/>
<path opacity="0.1" d="M139.962 356.267C139.962 356.267 133.431 358.994 128.942 359.337C126.558 359.518 125.305 357.858 124.664 356.253C126.325 356.888 128.631 357.556 129.844 356.944C131.28 356.221 136.374 355.752 139.231 355.553C139.449 355.823 139.694 356.063 139.962 356.267Z" fill="black"/>
<path d="M149.652 136.516C144.264 134.137 137.334 126.277 139.064 122.604C139.449 121.677 139.677 120.677 139.738 119.654C139.849 118.267 139.866 116.871 139.787 115.481C139.666 113.203 139.424 110.936 139.064 108.691C139.064 108.691 155.885 109.122 154.905 111.937C154.62 112.763 154.575 114.196 154.652 115.801C154.73 117.405 154.934 119.218 155.146 120.753C155.44 122.859 155.734 124.463 155.734 124.463C155.734 124.463 154.705 126.101 154.101 126.189C153.497 126.277 157.383 139.907 149.652 136.516Z" fill="#FFB0B1"/>
<path opacity="0.1" d="M135.884 344.423L135.758 344.58C130.729 337.67 124.647 346.282 124.647 346.282L124.558 346.102L124.868 342.187L134.407 339.372L135.758 344.066L135.884 344.423Z" fill="black"/>
<path opacity="0.1" d="M173.08 339.372C173.08 339.372 169.406 339.284 167.447 341.251C165.488 343.217 156.019 341.677 156.427 341.251C156.548 341.039 156.621 340.797 156.639 340.546L157.925 339.372L172.978 338.867C173.035 339.178 173.08 339.372 173.08 339.372Z" fill="black"/>
<path d="M142.141 285.108C141.868 285.877 141.66 286.674 141.521 287.487C141.181 289.716 141.086 291.984 141.239 294.24C141.39 297.486 141.239 319.241 141.239 319.241C141.239 319.241 138.011 325.042 136.211 327.088C134.411 329.133 139.884 332.806 139.884 332.806C140.701 338.092 135.754 344.066 135.754 344.066C130.725 337.156 124.643 345.772 124.643 345.772C124.643 345.772 121.337 339.28 120.513 336.961C119.688 334.642 123.741 333.037 125.166 332.096C126.59 331.155 125.097 325.603 125.097 325.603C125.097 325.603 123.892 320.739 122.464 316.301C121.035 311.862 124.039 289.769 124.039 289.769C124.039 289.769 124.195 285.846 124.566 284.478C124.753 283.49 124.791 282.474 124.676 281.473C124.652 281.134 124.623 280.851 124.603 280.661C124.582 280.471 124.566 280.383 124.566 280.383L124.623 280.271L126.664 275.949C126.664 275.949 143.121 282.386 142.141 285.108Z" fill="#6397FF"/>
<path d="M173.08 338.862C173.08 338.862 169.407 338.774 167.448 340.717C165.489 342.66 156.019 341.144 156.427 340.717C156.836 340.291 156.803 337.132 156.803 337.132C151.248 328.516 155.987 325.019 155.987 325.019C155.987 325.019 153.505 311.454 153.056 306.423C152.742 302.907 152.354 293.461 152.146 288.067C152.056 285.748 152.003 284.153 152.003 284.153L156.542 283.114L157.125 282.98L168.072 280.485C168.072 280.485 168.374 282.804 168.578 284.7C168.68 285.51 168.737 286.326 168.75 287.144C168.676 288.072 168.75 290.975 168.75 290.975L169.121 299.68C168.879 300.593 168.753 301.541 168.75 302.495C168.823 303.603 170.248 319.473 170.248 319.473C170.248 319.473 172.725 328.943 171.88 329.624C171.036 330.306 173.08 338.862 173.08 338.862Z" fill="#6397FF"/>
<path opacity="0.1" d="M154.905 111.937C154.619 112.763 154.575 114.196 154.652 115.801C152.399 117.342 149.809 118.13 147.18 118.074C144.55 118.019 141.988 117.121 139.787 115.485C139.666 113.206 139.424 110.937 139.064 108.691C139.064 108.691 155.885 109.113 154.905 111.937Z" fill="black"/>
<path d="M161.407 101.688C161.41 103.36 161.179 105.021 160.721 106.609C159.699 110.168 157.602 113.201 154.801 115.173C152.001 117.145 148.677 117.928 145.417 117.385C142.157 116.842 139.171 115.006 136.987 112.204C134.802 109.401 133.561 105.811 133.481 102.069C133.481 101.939 133.481 101.818 133.481 101.688C133.449 99.5818 133.787 97.4892 134.474 95.5325C135.162 93.5758 136.185 91.7943 137.485 90.2918C138.785 88.7894 140.336 87.596 142.046 86.7815C143.756 85.9669 145.592 85.5474 147.446 85.5474C149.3 85.5474 151.136 85.9669 152.846 86.7815C154.556 87.596 156.106 88.7894 157.406 90.2918C158.706 91.7943 159.73 93.5758 160.417 95.5325C161.105 97.4892 161.443 99.5818 161.411 101.688H161.407Z" fill="#FFB0B1"/>
<path opacity="0.1" d="M149.652 136.516C144.264 134.137 137.334 126.277 139.064 122.604C139.449 121.677 139.677 120.677 139.738 119.654L147.113 126.541L151.677 130.794L155.146 120.758C155.44 122.863 155.734 124.468 155.734 124.468C155.734 124.468 154.705 126.105 154.101 126.193C153.497 126.281 157.383 139.906 149.652 136.516Z" fill="black"/>
<path d="M168.725 166.953L162.566 284.515L154.533 285.113L133.733 216.946L137.146 136.016L137.864 118.917L147.113 127.547L151.68 131.8L155.252 121.472L161.893 128.048L168.725 166.953Z" fill="#6397FF"/>
<path opacity="0.1" d="M142.142 285.108C141.868 285.877 141.66 286.674 141.521 287.487C135.676 286.462 130 284.447 124.681 281.51L124.57 281.445L124.607 280.698L124.627 280.309L126.668 275.986C126.668 275.986 143.121 282.386 142.142 285.108Z" fill="black"/>
<path opacity="0.1" d="M156.636 287.506C155.141 287.795 153.634 287.99 152.121 288.09C152.032 285.772 151.979 284.176 151.979 284.176L156.517 283.137L156.636 287.506Z" fill="black"/>
<path opacity="0.1" d="M168.554 284.723C165.652 285.581 161.17 286.546 157.158 285.943L157.101 283.003L168.047 280.508C168.047 280.508 168.35 282.803 168.554 284.723Z" fill="black"/>
<path opacity="0.1" d="M157.084 286.481C140.35 289.727 125.023 280.42 125.023 280.42L125.17 277.266C125.17 277.266 125.55 241.515 124.497 238.775C123.444 236.034 122.623 222.135 123.219 220.002C123.815 217.868 121.044 185.879 121.044 185.879L120.595 172.893L104.162 165.33L111.509 147.93C112.501 145.49 113.355 142.981 114.064 140.417C115.342 135.9 121.272 131.462 121.272 131.462C121.272 131.462 127.354 127.028 129.758 127.195C132.162 127.362 135.313 123.272 135.313 123.272C137.64 116.533 139.746 119.585 139.746 119.585C139.746 119.905 139.746 119.585 139.631 120.582C138.815 127.979 152.831 151.352 153.031 151.765L154.366 188.708L155.717 235.459L157.084 286.481Z" fill="black"/>
<path d="M156.636 286.481C139.901 289.727 124.571 280.42 124.571 280.42L124.722 277.266C124.722 277.266 125.101 241.515 124.044 238.775C122.987 236.034 122.171 222.135 122.771 220.002C123.371 217.868 120.595 185.879 120.595 185.879L120.142 172.893L103.701 165.302L111.048 147.902C112.038 145.461 112.892 142.952 113.603 140.389C114.877 135.872 120.811 131.434 120.811 131.434C120.811 131.434 126.893 127 129.293 127.167C131.693 127.334 134.848 123.244 134.848 123.244C137.179 116.505 139.746 119.557 139.746 119.557C139.746 119.877 139.501 120.021 139.632 120.554C141.428 127.728 152.383 151.324 152.583 151.737L153.934 188.68L155.285 235.431L156.636 286.481Z" fill="white"/>
<path opacity="0.1" d="M152.125 152.79C150.325 151.936 140.791 139.568 140.791 139.568V136.753C140.444 135.826 138.382 136.391 136.709 137.041L137.427 119.942L138.244 120.712C140.031 127.881 151.917 152.377 152.125 152.79Z" fill="black"/>
<path d="M152.579 151.765C150.774 150.911 141.24 138.543 141.24 138.543V135.728C140.893 134.801 138.832 135.366 137.158 136.016L137.881 118.917L138.697 119.687C140.489 126.856 152.379 151.357 152.579 151.765Z" fill="white"/>
<path opacity="0.1" d="M125.023 213.449C125.247 213.449 136.66 212.085 136.66 212.085C136.66 212.085 143.57 227.524 143.117 231.28C142.664 235.037 141.843 238.362 139.064 237.773C136.284 237.184 124.104 238.237 124.104 238.237L125.023 213.449Z" fill="black"/>
<path d="M124.57 212.424C124.794 212.424 136.206 211.061 136.206 211.061C136.206 211.061 143.113 226.504 142.664 230.255C142.215 234.007 141.386 237.337 138.611 236.748C135.835 236.159 123.651 237.212 123.651 237.212L124.57 212.424Z" fill="white"/>
<path d="M133.17 205.175C133.17 205.175 143.644 211.571 143.868 213.523C144.093 215.475 138.538 212.67 137.338 212.331C136.548 212.115 135.744 211.972 134.934 211.905L126.93 212.15L133.17 205.175Z" fill="#FFB0B1"/>
<path opacity="0.1" d="M149.203 153.587C149.811 153.587 150.305 153.027 150.305 152.335C150.305 151.644 149.811 151.083 149.203 151.083C148.594 151.083 148.101 151.644 148.101 152.335C148.101 153.027 148.594 153.587 149.203 153.587Z" fill="black"/>
<path d="M149.203 153.077C149.811 153.077 150.305 152.517 150.305 151.825C150.305 151.133 149.811 150.573 149.203 150.573C148.594 150.573 148.101 151.133 148.101 151.825C148.101 152.517 148.594 153.077 149.203 153.077Z" fill="#3F3D56"/>
<path opacity="0.1" d="M151.231 207.791C151.84 207.791 152.333 207.23 152.333 206.539C152.333 205.847 151.84 205.287 151.231 205.287C150.622 205.287 150.129 205.847 150.129 206.539C150.129 207.23 150.622 207.791 151.231 207.791Z" fill="black"/>
<path d="M151.231 207.276C151.84 207.276 152.333 206.716 152.333 206.024C152.333 205.333 151.84 204.772 151.231 204.772C150.622 204.772 150.129 205.333 150.129 206.024C150.129 206.716 150.622 207.276 151.231 207.276Z" fill="#3F3D56"/>
<path opacity="0.1" d="M150.301 180.689C150.91 180.689 151.403 180.129 151.403 179.437C151.403 178.746 150.91 178.185 150.301 178.185C149.693 178.185 149.199 178.746 149.199 179.437C149.199 180.129 149.693 180.689 150.301 180.689Z" fill="black"/>
<path d="M150.301 180.179C150.91 180.179 151.403 179.619 151.403 178.927C151.403 178.235 150.91 177.675 150.301 177.675C149.693 177.675 149.199 178.235 149.199 178.927C149.199 179.619 149.693 180.179 150.301 180.179Z" fill="#3F3D56"/>
<path d="M175.705 211.645C175.705 211.645 176.456 212.925 175.705 213.523C174.954 214.121 175.778 215.568 175.778 215.568C175.778 215.568 173.905 216.816 174.729 217.938C175.554 219.06 175.031 224.129 175.031 224.129L172.778 228.368C172.778 228.368 172.913 231.099 172.921 234.791C172.921 240.551 172.623 248.648 170.974 252.339L171.203 282.627C171.203 282.627 163.313 285.901 156.709 284.904L155.729 236.303C155.729 236.303 157.158 208.742 157.684 203.455C157.993 200.71 158.118 197.943 158.06 195.177C158.06 195.177 157.835 186.903 157.08 183.064C157.08 183.064 156.264 166.429 156.182 161.824C156.146 159.621 156.248 153.193 156.362 147.081C156.489 140.398 156.631 134.096 156.631 134.096L155.142 120.702C155.142 120.702 156.631 120.531 157.08 121.212C157.281 121.426 157.5 121.617 157.733 121.783C160.305 123.758 169.391 129.834 169.391 129.834C169.391 129.834 174.419 132.106 175.623 135.362C176.827 138.617 177.664 140.927 178.248 141.854C178.831 142.782 179.15 147.141 179.15 147.141C179.15 147.141 180.88 155.164 182.231 156.523C183.582 157.882 184.57 166.526 184.57 166.526L172.631 177.192C172.631 177.192 171.582 194.936 171.358 195.622C171.133 196.308 175.705 211.645 175.705 211.645Z" fill="white"/>
<path d="M176.158 211.645C176.158 211.645 176.905 212.925 176.158 213.523C175.411 214.121 176.228 215.568 176.228 215.568C176.228 215.568 174.366 216.83 175.183 217.952C175.999 219.074 175.485 224.143 175.485 224.143L173.232 228.382C173.232 228.382 173.366 231.113 173.379 234.805C173.379 240.565 173.081 248.662 171.432 252.353L171.656 282.641C171.656 282.641 163.754 285.915 157.158 284.918L156.183 236.317C156.183 236.317 157.611 208.756 158.138 203.469C158.446 200.724 158.57 197.957 158.509 195.191C158.509 195.191 158.285 186.917 157.534 183.077C157.534 183.077 156.717 166.443 156.632 161.837C156.595 159.635 156.701 153.207 156.811 147.095C156.938 140.412 157.081 134.11 157.081 134.11L155.113 120.535C155.113 120.535 157.081 120.535 157.534 121.226C157.733 121.442 157.952 121.634 158.187 121.797C160.758 123.772 169.848 129.848 169.848 129.848C169.848 129.848 174.872 132.12 176.077 135.376C177.281 138.631 178.117 140.941 178.705 141.868C179.293 142.796 179.603 147.155 179.603 147.155C179.603 147.155 181.334 155.178 182.685 156.537C184.036 157.896 185.011 166.521 185.011 166.521L173.072 177.188C173.072 177.188 172.023 194.931 171.795 195.617C171.566 196.304 176.158 211.645 176.158 211.645Z" fill="white"/>
<path opacity="0.1" d="M161.86 138.047L162.938 141.618L157.264 148.11C157.391 141.432 157.534 135.125 157.534 135.125L155.566 121.551C155.566 121.551 157.534 121.551 157.987 122.242C158.185 122.457 158.404 122.647 158.64 122.808L163.464 138.622L161.86 138.047Z" fill="black"/>
<path d="M161.407 137.022L162.489 140.593L156.815 147.085C156.942 140.403 157.085 134.1 157.085 134.1L155.113 120.526C155.113 120.526 157.085 120.526 157.534 121.217C157.734 121.432 157.953 121.623 158.187 121.788L163.015 137.597L161.407 137.022Z" fill="white"/>
<path opacity="0.1" d="M161.407 101.688C161.41 103.36 161.179 105.021 160.721 106.609C160.644 106.622 160.565 106.618 160.49 106.597C160.414 106.575 160.343 106.537 160.281 106.484C160.174 102.31 158.366 98.3911 156.142 95.0567C155.517 94.0499 154.76 93.1583 153.897 92.4132C153.024 91.6685 151.939 91.3197 150.852 91.4347C149.627 91.6249 148.546 92.5709 147.309 92.6915C145.676 92.8445 144.215 91.5599 142.595 91.495C141.936 91.5021 141.286 91.6688 140.689 91.9839C140.091 92.2989 139.56 92.7552 139.13 93.3222C138.278 94.4664 137.646 95.7994 137.272 97.2363C136.631 99.4152 136.281 101.691 136.236 103.989C136.215 105.287 136.105 106.915 135.044 107.388C135.124 106.433 135.028 105.47 134.763 104.559C134.498 103.648 134.07 102.809 133.505 102.096L133.481 102.069C133.481 101.939 133.481 101.818 133.481 101.688C133.449 99.5818 133.787 97.4892 134.474 95.5325C135.162 93.5758 136.185 91.7943 137.485 90.2918C138.785 88.7894 140.336 87.596 142.046 86.7815C143.756 85.9669 145.592 85.5474 147.446 85.5474C149.3 85.5474 151.136 85.9669 152.846 86.7815C154.556 87.596 156.106 88.7894 157.406 90.2918C158.706 91.7943 159.73 93.5758 160.417 95.5325C161.105 97.4892 161.443 99.5818 161.411 101.688H161.407Z" fill="black"/>
<path d="M153.228 76.4926C151.107 75.359 148.694 75.1446 146.444 75.8897C145.313 76.27 144.248 76.8868 143.101 77.1975C140.652 77.8699 137.795 77.1419 135.693 78.7696C134.526 79.6971 133.824 81.1626 133.171 82.5863L131.538 86.1202C130.648 88.054 129.75 90.0203 129.379 92.149C129.007 94.2776 129.232 96.6613 130.42 98.3726C131.285 99.6201 132.562 100.404 133.501 101.577C134.064 102.291 134.49 103.129 134.754 104.038C135.018 104.948 135.114 105.91 135.036 106.864C136.101 106.4 136.203 104.768 136.228 103.469C136.273 101.172 136.623 98.8959 137.264 96.717C137.637 95.2796 138.269 93.9465 139.122 92.8029C139.552 92.2363 140.084 91.7804 140.681 91.4653C141.279 91.1503 141.928 90.9834 142.587 90.9757C144.219 91.0406 145.685 92.3206 147.301 92.1675C148.526 92.0516 149.611 91.1009 150.844 90.9154C151.931 90.7985 153.017 91.1476 153.889 91.8939C154.752 92.6379 155.508 93.5296 156.13 94.5373C158.358 97.8717 160.166 101.781 160.273 105.964C160.734 106.349 161.399 105.848 161.628 105.255C161.856 104.661 161.864 103.965 162.154 103.4C162.489 102.746 163.13 102.398 163.632 101.906C164.905 100.659 165.224 98.5581 165.175 96.652C165.126 94.746 164.799 92.8121 165.117 90.9386C165.309 89.7885 165.742 88.7125 165.979 87.5763C166.215 86.4401 166.244 85.1648 165.685 84.1863C164.868 82.7487 163.15 82.4658 161.652 82.3313C159.95 82.1643 158.428 82.3776 157.342 80.7499C156.832 79.9004 156.259 79.1029 155.628 78.3662C155.411 78.125 153.228 76.5946 153.228 76.4926Z" fill="#512E4E"/>
<path opacity="0.1" d="M108.864 174.289L104.599 165.33L103.248 179.154C103.248 179.154 103.999 185.294 103.848 186.236C103.697 187.177 106.926 195.617 106.926 195.617C106.926 195.617 117.591 217.201 121.946 218.314L136.66 206.367L132.758 200.737C132.758 200.737 131.407 200.139 131.068 200.737C131.068 200.737 123.823 186.574 123.072 185.549C122.321 184.524 122.468 182.479 122.468 182.479C122.468 182.479 121.342 181.116 121.717 179.836C122.093 178.556 119.542 174.118 119.542 174.118L121.868 171.646L108.864 174.289Z" fill="black"/>
<path d="M104.823 164.309L103.697 165.33L102.346 179.154C102.346 179.154 103.097 185.294 102.946 186.236C102.795 187.177 106.027 195.617 106.027 195.617C106.027 195.617 116.689 217.201 121.044 218.314L135.762 206.367L131.856 200.737C131.856 200.737 130.505 200.139 130.166 200.737C130.166 200.737 122.921 186.574 122.17 185.549C121.419 184.524 121.57 182.479 121.57 182.479C121.57 182.479 120.444 181.116 120.819 179.836C121.195 178.556 118.64 174.118 118.64 174.118L120.966 171.646L104.823 164.309Z" fill="white"/>
<path opacity="0.1" d="M174.729 218.467C175.546 219.594 175.031 224.653 175.031 224.653L172.778 228.892C172.778 228.892 172.913 231.628 172.921 235.315L169.133 236.66C168.791 236.781 168.428 236.808 168.075 236.738C167.722 236.667 167.388 236.502 167.103 236.256C166.817 236.009 166.587 235.689 166.433 235.321C166.279 234.953 166.204 234.549 166.215 234.142L166.868 210.207L175.705 214.047C174.954 214.641 175.778 216.097 175.778 216.097C175.778 216.097 173.905 217.34 174.729 218.467Z" fill="black"/>
<path d="M175.182 217.952C175.999 219.079 175.485 224.143 175.485 224.143L173.231 228.382C173.231 228.382 173.366 231.113 173.378 234.805L169.521 236.173C169.186 236.291 168.831 236.317 168.485 236.248C168.139 236.179 167.813 236.017 167.534 235.775C167.254 235.534 167.029 235.22 166.878 234.86C166.727 234.5 166.653 234.104 166.664 233.706L167.321 209.697L176.162 213.537C175.407 214.131 176.231 215.582 176.231 215.582C176.231 215.582 174.366 216.83 175.182 217.952Z" fill="white"/>
<path d="M178.108 206.544C178.108 206.544 177.508 210.898 176.006 211.153C174.504 211.408 173.831 218.198 172.333 217.957C170.835 217.715 171.827 211.645 171.88 210.467C171.933 209.289 170.247 204.41 171.508 203.302C172.77 202.194 176.761 203.302 176.761 203.302L178.108 206.544Z" fill="#FFB0B1"/>
<path opacity="0.1" d="M181.304 173.009L184.137 166.517C184.137 166.517 185.264 171.465 185.264 174.109C185.264 176.752 186.839 177.012 186.839 177.012C186.839 177.012 188.566 179.33 187.655 181.018C186.745 182.707 186.378 186.908 186.378 186.908C186.378 186.908 186.676 194.927 185.325 196.035C183.974 197.143 183.692 199.791 183.692 199.791C183.692 199.791 181.21 204.823 181.288 206.02C181.366 207.216 177.835 215.318 177.835 215.318C177.835 215.318 179.562 205.25 169.5 200.9C169.5 200.9 169.423 197.482 170.174 196.545C170.925 195.608 172.096 195.182 171.362 190.447C170.627 185.712 171.149 180.054 171.149 178.918C171.149 177.781 173.402 170.695 173.402 170.695L181.304 173.009Z" fill="black"/>
<path d="M182.529 165.589L185.002 166.517C185.002 166.517 186.133 171.465 186.133 174.108C186.133 176.752 187.709 177.012 187.709 177.012C187.709 177.012 189.435 179.33 188.525 181.018C187.615 182.706 187.251 186.908 187.251 186.908C187.251 186.908 187.549 194.926 186.198 196.035C184.847 197.143 184.545 199.791 184.545 199.791C184.545 199.791 182.068 204.823 182.145 206.019C182.223 207.216 178.688 215.318 178.688 215.318C178.688 215.318 180.419 205.25 170.354 200.9C170.354 200.9 170.28 197.482 171.031 196.545C171.782 195.608 172.954 195.181 172.219 190.447C171.484 185.712 172.007 180.054 172.007 178.918C172.007 177.781 174.26 170.695 174.26 170.695L182.529 165.589Z" fill="white"/>
<path opacity="0.1" d="M127.896 333.872C127.896 333.872 131.839 331.057 134.427 333.102C137.015 335.148 127.896 333.872 127.896 333.872Z" fill="black"/>
<path opacity="0.1" d="M158.533 325.167C158.533 325.167 162.023 324.657 164.954 328.242C167.884 331.827 158.533 325.167 158.533 325.167Z" fill="black"/>
<g opacity="0.1">
<path opacity="0.1" d="M163.639 100.891C163.137 101.382 162.493 101.735 162.158 102.389C161.872 102.95 161.864 103.641 161.635 104.244C161.407 104.847 160.742 105.338 160.28 104.958C160.174 100.784 158.362 96.8653 156.137 93.5263C155.516 92.5186 154.76 91.6269 153.897 90.8829C153.023 90.1367 151.936 89.7877 150.848 89.9044C149.623 90.0945 148.546 91.0406 147.309 91.1565C145.676 91.3142 144.211 90.0296 142.591 89.9647C141.932 89.9721 141.283 90.1394 140.686 90.4553C140.089 90.7713 139.558 91.2286 139.129 91.7965C138.277 92.9384 137.645 94.27 137.272 95.706C136.631 97.885 136.281 100.161 136.235 102.458C136.211 103.752 136.105 105.366 135.052 105.848C135.076 106.191 135.076 106.535 135.052 106.878C136.113 106.414 136.219 104.782 136.244 103.483C136.289 101.186 136.639 98.9098 137.28 96.7309C137.653 95.2935 138.285 93.9604 139.137 92.8168C139.567 92.2503 140.098 91.7944 140.695 91.4794C141.292 91.1643 141.941 90.9973 142.599 90.9896C144.231 91.0545 145.701 92.3345 147.317 92.1814C148.542 92.0655 149.627 91.1148 150.856 90.9293C151.944 90.8126 153.031 91.1616 153.905 91.9078C154.768 92.6518 155.524 93.5435 156.146 94.5512C158.37 97.8856 160.182 101.795 160.288 105.978C160.75 106.363 161.415 105.862 161.644 105.269C161.872 104.675 161.88 103.979 162.166 103.414C162.501 102.76 163.146 102.412 163.648 101.92C164.921 100.673 165.239 98.572 165.19 96.6659C165.19 96.6057 165.19 96.5454 165.19 96.4897C165.113 98.1407 164.725 99.8241 163.639 100.891Z" fill="black"/>
<path opacity="0.1" d="M133.509 100.562C132.57 99.3882 131.288 98.6045 130.427 97.3616C129.702 96.2614 129.288 94.9369 129.239 93.5635C129.111 95.2798 129.533 96.991 130.427 98.3819C131.288 99.6294 132.57 100.413 133.509 101.586C134.41 102.734 134.951 104.189 135.048 105.723C135.11 104.789 135.006 103.851 134.742 102.964C134.477 102.077 134.058 101.26 133.509 100.562Z" fill="black"/>
<path opacity="0.1" d="M165.986 86.5607C165.746 87.6969 165.317 88.7774 165.121 89.9229C165.005 90.6883 164.963 91.4658 164.995 92.2417C165.008 91.7997 165.051 91.3595 165.121 90.9246C165.317 89.7745 165.746 88.6986 165.986 87.5624C166.127 86.9357 166.172 86.2865 166.121 85.6425C166.096 85.9518 166.051 86.2587 165.986 86.5607Z" fill="black"/>
</g>
<path opacity="0.1" d="M54.3543 352.728C76.3194 352.728 94.1257 349.479 94.1257 345.471C94.1257 341.462 76.3194 338.213 54.3543 338.213C32.3892 338.213 14.583 341.462 14.583 345.471C14.583 349.479 32.3892 352.728 54.3543 352.728Z" fill="#6397FF"/>
<path d="M55.6353 206.437H53.0762V271.905H55.6353V206.437Z" fill="#535461"/>
<path d="M71.7172 271.706L71.558 274.655L71.3294 278.829L71.2355 280.564L71.011 284.737L70.9131 286.472L70.6845 290.646L68.1049 337.981C67.9928 340.018 67.2019 341.929 65.8931 343.327C64.5843 344.724 62.856 345.503 61.06 345.503H47.6478C45.8523 345.502 44.1245 344.724 42.8164 343.326C41.5082 341.929 40.7182 340.017 40.607 337.981L38.0397 290.613L37.8111 286.439L37.7173 284.705L37.4887 280.531L37.3948 278.797L37.1662 274.623L37.003 271.673C36.9746 271.106 37.0486 270.537 37.2205 270.003C37.3924 269.469 37.6585 268.981 38.0024 268.568C38.3464 268.155 38.761 267.826 39.2209 267.602C39.6807 267.377 40.176 267.262 40.6764 267.263H68.109C68.6076 267.268 69.0999 267.389 69.5558 267.618C70.0116 267.848 70.4212 268.181 70.7593 268.597C71.0974 269.014 71.3568 269.504 71.5216 270.039C71.6863 270.574 71.7529 271.141 71.7172 271.706Z" fill="#3F3D56"/>
<path d="M71.5585 274.655L71.3299 278.815H37.379L37.1504 274.655H71.5585Z" fill="#9D9CB5"/>
<path d="M71.2358 280.55L71.0113 284.714H37.7012L37.4727 280.55H71.2358Z" fill="#9D9CB5"/>
<path d="M70.9132 286.453L70.6887 290.613H38.0235L37.7949 286.453H70.9132Z" fill="#9D9CB5"/>
<path d="M33.2438 230.974C48.1458 243.227 54.3662 262.389 54.3662 262.389C54.3662 262.389 36.407 261.689 21.501 249.436C6.59487 237.184 0.386719 218.026 0.386719 218.026C0.386719 218.026 18.3377 218.722 33.2438 230.974Z" fill="#6397FF"/>
<path d="M0.375 218.026C0.375 218.026 19.0199 229.782 24.9994 239.517C30.979 249.251 54.3667 262.389 54.3667 262.389" stroke="#535461" stroke-width="2" stroke-miterlimit="10"/>
<path d="M42.8642 206.293C50.9744 212.957 54.3662 223.387 54.3662 223.387C54.3662 223.387 44.5907 223.007 36.4764 216.343C28.3622 209.679 24.9785 199.244 24.9785 199.244C24.9785 199.244 34.7499 199.624 42.8642 206.293Z" fill="#6397FF"/>
<path d="M24.9785 199.244C24.9785 199.244 35.1254 205.644 38.3785 210.94C41.6315 216.236 54.3662 223.387 54.3662 223.387" stroke="#535461" stroke-width="2" stroke-miterlimit="10"/>
<path d="M66.1413 222.858C56.823 234.494 54.8516 249.701 54.8516 249.701C54.8516 249.701 67.9903 246.037 77.3005 234.397C86.6107 222.756 88.5903 207.555 88.5903 207.555C88.5903 207.555 75.4597 211.223 66.1413 222.858Z" fill="#6397FF"/>
<path d="M88.5984 207.559C88.5984 207.559 76.4597 219.487 73.374 227.705C70.2883 235.922 54.8516 249.701 54.8516 249.701" stroke="#535461" stroke-width="2" stroke-miterlimit="10"/>
<path d="M408.207 218.764C408.207 218.764 401.468 180.671 404.047 175.931C404.047 175.931 404.141 171.525 403.986 165.909C403.986 165.696 403.986 165.483 403.986 165.265C404.44 165.609 404.913 165.918 405.403 166.192C407.779 167.58 410.508 167.98 413.117 167.324L411.076 164.741C410.586 164.124 410.076 163.456 409.97 162.64C409.864 161.824 410.158 161.096 410.411 160.367C412.349 154.802 412.451 147.804 408.717 143.556C405.562 139.985 404.794 135.376 401.37 132.116C398.868 129.727 397.492 126.226 396.194 122.84C395.096 119.979 393.99 117.094 393.362 114.061C392.872 111.692 392.676 109.238 392.003 106.924C391.329 104.61 390.068 102.361 388.096 101.327C387.394 100.96 386.615 100.752 385.974 100.265C385.133 99.6201 384.627 98.5721 384.019 97.6538C380.929 93.0163 370.582 95.7478 365.684 97.6306C364.353 98.1048 363.12 98.881 362.06 99.9123L362.105 99.8288C362.141 99.7593 362.186 99.6897 362.227 99.6201C361.691 100.113 361.228 100.7 360.856 101.359C360.141 102.644 359.843 104.142 359.248 105.533C358.529 107.179 354.533 111.775 356.252 113.626C356.372 113.75 356.51 113.85 356.66 113.922C357.305 114.227 358.015 114.308 358.701 114.154L358.627 114.354C358.04 115.986 357.739 117.733 357.741 119.497C357.741 127.116 363.272 133.293 370.101 133.293C371.384 133.295 372.661 133.071 373.884 132.63C373.913 132.806 373.937 132.983 373.966 133.159C373.966 133.229 373.986 133.298 373.994 133.368L373.778 133.711C373.767 133.69 373.755 133.669 373.741 133.651L367.333 143.825C366.354 144.609 360.713 149.247 360.394 152.725C360.06 156.532 359.725 160.989 359.725 160.989L359.68 161.944C359.4 162.21 359.073 162.404 358.72 162.512C358.368 162.62 357.999 162.64 357.639 162.57C355.639 162.199 355.639 170.918 355.639 170.918C355.639 170.918 354.309 172.309 353.394 171.103C352.48 169.898 350.064 173.983 350.064 173.983L334.921 174.725L334.574 174.749L333.758 171.878C333.67 171.575 333.48 171.324 333.231 171.179C332.981 171.034 332.69 171.007 332.423 171.103C332.36 171.127 332.298 171.157 332.239 171.192L332.182 171.229L332.076 171.312L332.023 171.368C331.994 171.398 331.967 171.43 331.941 171.465L331.892 171.53L331.868 171.558C331.774 171.706 331.711 171.877 331.686 172.057C331.66 172.238 331.672 172.423 331.721 172.597L332.423 175.059C329.501 175.727 326.513 177.61 328.95 182.795L316.599 180.202L320.595 184.014L341.223 188.851C340.95 189.408 341.129 190.215 341.982 191.351C345.656 196.253 352.35 197.584 355.043 197.927C355.755 199.735 356.643 201.446 357.692 203.028L357.46 207.912C357.46 207.912 350.639 245.133 349.39 247.02C350.021 246.209 350.598 245.345 351.117 244.437C349.137 252.084 346.37 262.551 345.643 264.119C344.476 266.623 343.395 276.756 344.725 277.406C345.133 277.605 346.301 277.508 347.966 277.364V278.203L347.892 310.012C347.892 310.012 348.227 329.522 347.309 331.382C346.39 333.242 346.146 337.142 346.146 337.142C346.146 337.142 342.472 344.836 339.562 347.929C339.542 347.953 339.52 347.975 339.497 347.994L339.407 347.27C339.407 347.27 335.909 352.288 328.17 352.005C328.17 352.005 323.513 355.446 330.419 355.632C337.325 355.817 346.146 355.354 346.146 355.354C346.146 355.354 352.305 344.687 357.464 346.078V354.162H359.043V345.949C359.776 345.401 360.403 344.689 360.886 343.858C361.37 343.027 361.7 342.092 361.856 341.112C361.991 340.101 361.892 339.068 361.568 338.114C361.245 337.16 360.708 336.318 360.011 335.672C359.698 335.35 359.446 334.958 359.273 334.521C359.099 334.083 359.007 333.61 359.003 333.13L358.945 333.186C358.945 333.024 358.909 332.857 358.892 332.685C358.439 328.511 357.872 319.899 359.876 313.527C362.623 304.79 363.456 292.621 361.456 285.377C360.81 283.062 360.28 280.707 359.868 278.324C359.819 278.022 359.774 277.735 359.733 277.466C361.1 277.676 362.454 277.986 363.786 278.393C368.419 279.845 378.554 280.114 387.207 280.035C387.227 280.304 387.252 280.587 387.28 280.87C387.434 282.836 387.757 284.781 388.243 286.676C389.329 290.386 389.827 306.743 389.827 306.743C389.827 306.743 391.227 320.192 390.464 325.664C390.056 328.706 389.647 331.762 389.415 334.832V334.893C389.415 334.893 387.121 342.313 385.443 346.343C385.403 346.445 385.358 346.547 385.317 346.644C384.87 346.691 384.429 346.801 384.007 346.973C384.007 346.973 381.758 352.075 379.517 352.919C377.276 353.763 378.019 356.541 383.092 355.521C388.166 354.5 395.827 353.665 395.827 353.665L396.158 348.462L397.717 346.245L397.309 351.435L398.97 351.064L398.749 344.752L401.3 341.126C401.3 341.126 404.382 338.009 399.803 331.878V332.013C399.754 331.925 399.709 331.832 399.656 331.744V331.716C398.896 330.38 398.292 327.89 399.398 323.47C401.398 315.484 402.562 308.236 402.562 308.236C402.562 308.236 407.027 288.819 401.66 279.632H401.896C401.346 278.339 400.958 276.965 400.741 275.55C400.714 275.384 400.69 275.212 400.668 275.036C404.639 274.776 408.537 273.96 411.717 272.198C411.705 272.179 409.79 226.1 408.207 218.764ZM357.786 186.625V186.718L356.97 186.764L357.786 186.625ZM354.986 187.066C354.852 187.1 354.726 187.168 354.619 187.265C354.268 187.83 354.048 188.485 353.978 189.171L352.705 188.847C352.705 188.847 351.811 188.629 350.525 188.383L349.917 187.687C351.59 187.53 353.329 187.298 354.986 187.066Z" fill="url(#paint1_linear)"/>
<path d="M397.12 344.817L396.635 351.388L398.263 351.017L398.018 343.889L397.12 344.817Z" fill="#1D2366"/>
<path d="M359.966 313.615C358.002 319.969 358.557 328.544 358.998 332.708C359.161 334.248 359.312 335.185 359.312 335.185C359.312 335.185 356.378 342.781 356.133 343.069C355.888 343.356 347.496 349.176 347.496 349.176L341.631 353.067C341.631 353.067 335.68 350.104 338.533 349.083C339.116 348.818 339.641 348.411 340.072 347.892C342.929 344.808 346.517 337.142 346.517 337.142C346.517 337.142 346.761 333.251 347.659 331.4C348.557 329.55 348.231 310.105 348.231 310.105L348.3 278.407V274.275L359.463 274.368C359.534 275.771 359.695 277.166 359.945 278.542C360.346 280.917 360.865 283.264 361.5 285.572C363.468 292.802 362.651 304.911 359.966 313.615Z" fill="#FFB0B1"/>
<path opacity="0.1" d="M359.312 335.185C359.312 335.185 356.378 342.781 356.133 343.069C355.888 343.356 347.496 349.176 347.496 349.176L341.631 353.067C341.631 353.067 335.68 350.104 338.533 349.083C339.116 348.818 339.641 348.411 340.072 347.892L340.325 349.918L342.28 349.825L359.015 332.718C359.161 334.248 359.312 335.185 359.312 335.185Z" fill="black"/>
<path d="M359.108 333.149L342.28 350.373L340.325 350.465L339.916 347.219C339.916 347.219 336.496 352.218 328.896 351.94C328.896 351.94 324.333 355.367 331.096 355.553C337.859 355.738 346.496 355.275 346.496 355.275C346.496 355.275 352.529 344.608 357.578 345.999V354.055H359.129V345.925C359.85 345.374 360.465 344.662 360.938 343.833C361.411 343.004 361.731 342.075 361.88 341.102C362.014 340.1 361.919 339.075 361.604 338.126C361.288 337.178 360.763 336.337 360.08 335.686C359.774 335.36 359.53 334.967 359.363 334.531C359.196 334.095 359.109 333.625 359.108 333.149Z" fill="#1D2366"/>
<path d="M398.672 323.521C397.586 327.927 398.178 330.408 398.921 331.739V331.767C399.873 333.41 400.536 335.248 400.872 337.179L400.937 337.596L393.28 350.28L389.125 352.135C389.125 352.135 382.443 349.543 383.664 348.801C383.97 348.62 384.447 347.655 384.994 346.324C386.627 342.313 388.88 334.911 388.88 334.911V334.851C389.117 331.795 389.492 328.748 389.908 325.715C390.655 320.256 389.284 306.859 389.284 306.859C389.284 306.859 388.794 290.567 387.733 286.861C387.254 284.978 386.935 283.046 386.782 281.092C386.561 278.774 386.513 276.863 386.513 276.863C386.513 276.863 390.913 269.907 398.978 277.419C399.623 278.019 400.19 278.718 400.664 279.497C406.235 288.503 401.749 308.343 401.749 308.343C401.749 308.343 400.627 315.559 398.672 323.521Z" fill="#FFB0B1"/>
<path opacity="0.1" d="M400.949 337.596L393.292 350.28L389.137 352.135C389.137 352.135 382.455 349.543 383.675 348.801C383.981 348.62 384.459 347.655 385.006 346.324C387.834 346.296 389.3 349.357 389.3 349.357L392.883 348.708C392.883 348.708 397.61 338.153 398.671 337.508C399.732 336.864 398.834 332.69 398.834 332.69V331.628C398.863 331.665 398.888 331.707 398.92 331.744V331.771C399.873 333.415 400.536 335.253 400.871 337.183L400.949 337.596Z" fill="black"/>
<path d="M389.545 349.631C389.545 349.631 387.504 345.373 383.594 346.946C383.594 346.946 381.394 352.047 379.194 352.872C376.994 353.698 377.729 356.48 382.7 355.465C387.672 354.449 395.166 353.61 395.166 353.61L395.492 348.42L400.545 341.107C400.545 341.107 403.558 338.004 399.076 331.897V332.959C399.076 332.959 399.974 337.133 398.913 337.777C397.851 338.422 393.141 348.981 393.141 348.981L389.545 349.631Z" fill="#1D2366"/>
<path opacity="0.1" d="M359.476 274.358C359.547 275.761 359.708 277.156 359.958 278.532C355.362 277.767 351.097 278.147 348.301 278.398V274.266L359.476 274.358Z" fill="black"/>
<path opacity="0.1" d="M401.116 280.652C401.116 280.652 394.585 281.013 386.798 281.088C386.577 278.769 386.528 276.858 386.528 276.858C386.528 276.858 390.928 269.902 398.994 277.415C399.639 278.014 400.206 278.713 400.679 279.492C400.806 279.888 400.952 280.275 401.116 280.652Z" fill="black"/>
<path d="M401.117 279.817C401.117 279.817 372.513 281.389 363.794 278.611C355.076 275.833 346.435 278.24 345.133 277.596C343.831 276.951 344.888 266.855 346.031 264.355C347.174 261.856 353.443 236.576 353.443 236.576L359.476 200.839L365.831 198.85L366.28 198.706L377.353 195.237L385.468 192.691C385.468 192.691 401.602 264.263 400.219 269.54C399.716 271.561 399.635 273.687 399.982 275.75C400.193 277.158 400.575 278.527 401.117 279.817Z" fill="#1D2366"/>
<path d="M338.447 176.399C338.447 176.399 332.733 183.356 337.059 187.233C341.386 191.11 344.231 187.604 344.231 187.604L338.447 176.399Z" fill="#C7DAF5"/>
<path opacity="0.1" d="M338.447 176.399C338.447 176.399 332.733 183.356 337.059 187.233C341.386 191.11 344.231 187.604 344.231 187.604L338.447 176.399Z" fill="black"/>
<path d="M384.614 130.664C384.614 130.664 383.945 131.387 382.937 132.454C381.5 133.98 379.373 136.21 377.488 138.079C374.875 140.662 372.72 142.559 373.492 140.941C374.263 139.322 374.116 136.502 373.733 133.864C373.704 133.688 373.679 133.511 373.651 133.34C373.333 131.402 372.912 129.488 372.39 127.608C372.39 127.608 376.61 121.412 378.945 118.968C379.814 118.04 380.422 117.66 380.459 118.305C380.5 119.172 381.071 121.087 381.782 123.119C381.802 123.183 381.822 123.244 381.847 123.309C382.32 124.7 382.855 126.128 383.324 127.362C384.043 129.254 384.614 130.664 384.614 130.664Z" fill="#FFB0B1"/>
<path opacity="0.1" d="M381.847 123.309C381.45 125.732 380.488 127.991 379.061 129.847C377.633 131.704 375.793 133.091 373.733 133.864C373.408 131.747 372.959 129.657 372.39 127.608C372.39 127.608 380.337 115.944 380.459 118.305C380.488 119.2 381.108 121.185 381.847 123.309Z" fill="black"/>
<path opacity="0.1" d="M372.941 136.98L373.969 135.334C373.969 135.334 374.651 140.055 377.157 137.973C379.663 135.89 379.786 153.643 379.786 153.643L377.096 199.337L357.659 198.015L358.21 175.936L360.41 164.806L365.851 148.625L369.088 143.278L372.941 136.98Z" fill="black"/>
<path d="M379.786 153.926L377.337 195.242L377.08 199.62L366.243 198.882L365.835 198.855L357.672 198.298L358.223 176.214L360.423 165.084L365.864 148.903L369.1 143.556L372.953 137.235L373.982 135.594C373.982 135.594 374.664 140.315 377.17 138.232L377.223 138.191C379.672 136.428 379.786 153.926 379.786 153.926Z" fill="#1D2366"/>
<path d="M360.697 161.216C360.697 161.216 359.721 163.535 357.762 163.159C355.803 162.784 355.807 171.507 355.807 171.507C355.807 171.507 354.505 172.898 353.607 171.692C352.709 170.487 350.341 174.563 350.341 174.563L335.509 175.305C335.509 175.305 342.109 178.732 340.815 189.102C340.815 189.102 363.223 187.525 363.958 185.118C364.692 182.711 360.697 161.216 360.697 161.216Z" fill="white"/>
<path opacity="0.03" d="M360.697 161.216C360.697 161.216 359.721 163.535 357.762 163.159C355.803 162.784 355.807 171.507 355.807 171.507C355.807 171.507 354.505 172.898 353.607 171.692C352.709 170.487 350.341 174.563 350.341 174.563L335.509 175.305C335.509 175.305 342.109 178.732 340.815 189.102C340.815 189.102 363.223 187.525 363.958 185.118C364.692 182.711 360.697 161.216 360.697 161.216Z" fill="black"/>
<path d="M317.59 180.754L321.5 184.548L353.688 192.232L349.696 187.604L317.59 180.754Z" fill="white"/>
<path d="M373.002 138.441C372.467 139.368 370.937 144.117 369.659 148.263C368.594 151.718 367.704 154.756 367.704 154.756C367.704 154.756 365.627 170.125 364.565 172.903C363.504 175.681 364.08 186.514 364.08 186.514L360.125 213.268C360.125 213.268 358.333 227.065 355.565 235.306C352.835 243.417 349.794 247.219 349.7 247.34C350.925 245.457 357.598 208.385 357.598 208.385L359.802 161.629C359.802 161.629 360.125 157.186 360.451 153.388C360.778 149.59 367.39 144.405 367.39 144.405L373.765 134.105C374.406 135.079 373.978 136.776 373.002 138.441Z" fill="white"/>
<path d="M356.378 198.53C356.378 198.53 346.99 198.066 342.443 191.861C337.897 185.656 352.954 189.385 352.954 189.385L356.868 190.405L356.378 198.53Z" fill="#FFB0B1"/>
<path opacity="0.1" d="M400.219 269.545C399.716 271.566 399.635 273.692 399.982 275.754C389.741 276.58 378.786 273.436 378.786 273.436C376.745 275.569 371.37 278.713 371.37 278.713L368.439 237.439C366.566 231.874 365.831 202.718 365.831 202.718C365.831 202.718 365.998 201.192 366.239 198.906C366.239 198.85 366.239 198.79 366.26 198.734C366.99 192.348 368.439 180.36 369.149 178.741C370.129 176.515 366.137 170.593 366.137 170.593L367.953 152.994L368.174 150.87C372.002 148.927 374.937 142.722 374.937 142.722L377.19 138.237C379.639 136.452 379.766 153.949 379.766 153.949L377.317 195.265L385.431 192.719C385.431 192.719 401.602 264.267 400.219 269.545Z" fill="black"/>
<path d="M410.728 272.397C399.565 278.695 379.275 272.861 379.275 272.861C377.235 274.994 371.859 278.138 371.859 278.138L368.924 236.864C367.055 231.299 366.32 202.142 366.32 202.142C366.32 202.142 368.679 180.388 369.659 178.166C369.945 177.517 369.806 176.552 369.467 175.514C367.802 170.569 367.189 165.247 367.679 159.982L368.463 152.419L368.68 150.299C372.512 148.351 375.447 142.146 375.447 142.146L377.488 138.084L381.243 130.599L383.022 127.056L383.324 127.366L385.63 129.741C385.63 129.741 386.61 130.668 388.079 132.06C391.275 135.12 396.798 140.509 399.647 143.807C402.153 146.71 402.945 158.002 403.173 166.503C403.324 172.1 403.234 176.487 403.234 176.487C400.708 181.213 407.316 219.153 407.316 219.153C408.855 226.485 410.728 272.397 410.728 272.397Z" fill="white"/>
<path opacity="0.03" d="M389.3 142.054C389.3 142.054 381.639 158.624 382.529 164.922C383.418 171.219 385.949 178.347 384.729 180.012C384.309 180.643 383.767 181.155 383.145 181.508C382.522 181.861 381.837 182.046 381.141 182.048C379.916 182.141 376.651 184.733 376.651 185.011C376.651 185.29 373.635 185.29 370.937 186.588C368.239 187.887 364.255 188.624 364.255 188.624C364.255 188.624 356.5 188.346 355.778 189.181C355.055 190.015 354.312 195.01 355.859 198.994C357.406 202.977 359.125 205.95 360.423 206.493C361.721 207.035 369.957 203.9 376.639 203.158C383.32 202.416 390.573 196.401 390.573 196.401C390.573 196.401 398.561 193.155 399.961 187.697C401.361 182.238 398.251 152.238 398.251 152.238C398.251 152.238 395.9 138.256 389.3 142.054Z" fill="black"/>
<path opacity="0.03" d="M388.32 140.662C388.32 140.662 380.659 157.237 381.557 163.53C382.455 169.823 384.978 176.956 383.753 178.625C383.335 179.257 382.794 179.77 382.172 180.123C381.55 180.476 380.865 180.66 380.169 180.661C378.945 180.754 375.68 183.347 375.68 183.625C375.68 183.903 372.663 183.903 369.965 185.197C367.267 186.491 363.284 187.233 363.284 187.233C363.284 187.233 355.529 186.955 354.81 187.789C354.092 188.624 353.341 193.623 354.892 197.602C356.443 201.581 358.157 204.559 359.455 205.101C360.753 205.644 368.99 202.509 375.671 201.772C382.353 201.034 389.606 195.01 389.606 195.01C389.606 195.01 397.59 191.764 398.973 186.31C400.357 180.856 397.263 150.847 397.263 150.847C397.263 150.847 394.92 136.869 388.32 140.662Z" fill="black"/>
<path d="M389.06 141.219C389.06 141.219 381.398 157.793 382.296 164.087C383.194 170.38 385.717 177.512 384.496 179.177C384.078 179.81 383.537 180.324 382.914 180.678C382.291 181.032 381.605 181.217 380.908 181.218C379.684 181.311 376.419 183.903 376.419 184.177C376.419 184.45 373.406 184.455 370.704 185.753C368.002 187.052 364.023 187.789 364.023 187.789C364.023 187.789 356.268 187.511 355.545 188.346C354.823 189.18 354.08 194.18 355.627 198.159C357.174 202.138 358.892 205.115 360.19 205.658C361.488 206.2 369.725 203.065 376.406 202.323C383.088 201.581 390.341 195.566 390.341 195.566C390.341 195.566 398.329 192.32 399.729 186.862C401.129 181.403 398.039 151.403 398.039 151.403C398.039 151.403 395.655 137.444 389.06 141.219Z" fill="white"/>
<path opacity="0.1" d="M388.892 185.675C388.892 185.675 382.77 184.283 384.9 186.602C387.031 188.921 387.019 190.952 389.627 190.859C392.235 190.767 388.892 185.675 388.892 185.675Z" fill="black"/>
<path opacity="0.1" d="M399.239 235.565C399.239 235.565 396.471 237.694 401.765 242.6C407.059 247.507 399.239 235.565 399.239 235.565Z" fill="black"/>
<path opacity="0.1" d="M393.958 253.063C393.958 253.341 392.978 263.265 396.643 265.747C400.309 268.228 393.958 253.063 393.958 253.063Z" fill="black"/>
<path d="M335.761 175.282C332.806 175.398 326.423 176.423 329.733 183.439C332.659 189.649 337.578 185.498 340.345 182.349C339.67 179.414 338.029 176.884 335.761 175.282Z" fill="#FFB0B1"/>
<path d="M340.382 182.295L340.505 182.15L340.382 182.295Z" fill="#FFB0B1"/>
<path opacity="0.1" d="M388.08 132.343C384.945 134.777 382.317 136.832 381.803 137.258C380.399 138.441 377.721 145.383 375.994 148.927C374.619 151.779 370.15 152.511 368.464 152.692L368.68 150.573C372.513 148.625 375.448 142.42 375.448 142.42L383.023 127.329L385.631 130.024C385.631 130.024 386.611 130.951 388.08 132.343Z" fill="black"/>
<path d="M388.08 132.064C384.945 134.499 382.317 136.554 381.803 136.985C380.399 138.163 377.721 145.105 375.994 148.648C374.619 151.5 370.15 152.233 368.464 152.414L368.68 150.295C372.513 148.347 375.448 142.142 375.448 142.142L383.023 127.051L385.631 129.736C385.631 129.736 386.611 130.655 388.08 132.064Z" fill="#DCE7FF"/>
<path d="M382.047 120.248C382.049 123.032 381.306 125.751 379.917 128.044C378.276 130.755 375.834 132.708 373.034 133.549C370.234 134.389 367.262 134.062 364.657 132.626C362.051 131.189 359.985 128.739 358.833 125.72C357.682 122.701 357.521 119.313 358.38 116.171C359.238 113.029 361.06 110.34 363.514 108.594C365.968 106.847 368.892 106.157 371.756 106.651C374.619 107.144 377.232 108.787 379.12 111.282C381.008 113.776 382.047 116.958 382.047 120.248Z" fill="#FFB0B1"/>
<path opacity="0.1" d="M403.174 166.508C401.516 165.349 400.167 163.701 399.268 161.74C398.586 160.21 398.133 158.443 396.97 157.358C395.921 156.384 394.521 156.147 393.215 155.711C388.921 154.269 385.321 149.817 385.186 144.734C385.121 142.341 385.778 139.953 385.48 137.583C385.311 136.242 384.841 134.972 384.117 133.896C383.757 133.382 383.363 132.899 382.937 132.454C382.366 131.842 381.766 131.248 381.243 130.599C380.914 130.197 380.627 129.753 380.386 129.277C380.192 128.888 380.035 128.476 379.917 128.048C379.101 125.21 379.843 121.843 378.946 118.973L378.897 118.815C378.558 117.795 377.868 116.774 376.909 116.696C375.95 116.617 375.129 117.521 374.215 117.925C372.301 118.769 370.235 117.331 368.639 115.865C367.043 114.4 365.243 112.726 363.215 113.05C361.872 113.268 360.811 114.307 359.574 114.845C359.295 114.968 359.007 115.063 358.713 115.128C359.76 112.162 361.682 109.703 364.151 108.174C366.62 106.644 369.481 106.139 372.242 106.745C375.003 107.351 377.492 109.031 379.282 111.496C381.071 113.961 382.049 117.057 382.048 120.253C382.049 121.217 381.96 122.18 381.782 123.123C381.803 123.188 381.823 123.248 381.848 123.313C382.321 124.705 382.856 126.133 383.325 127.367L385.631 129.741C385.631 129.741 386.611 130.669 388.08 132.06C391.276 135.121 396.799 140.509 399.648 143.807C402.154 146.719 402.937 158.007 403.174 166.508Z" fill="black"/>
<path d="M359.431 106.372C360.015 105.023 360.305 103.511 361.003 102.231C362.027 100.376 363.815 99.1888 365.652 98.47C370.447 96.5918 380.582 93.8649 383.611 98.47C384.207 99.3975 384.7 100.427 385.525 101.067C386.154 101.554 386.913 101.763 387.602 102.129C389.533 103.159 390.766 105.403 391.423 107.694C392.08 109.985 392.276 112.443 392.758 114.803C393.374 117.832 394.455 120.702 395.533 123.554C396.802 126.921 398.149 130.413 400.598 132.793C403.941 136.039 404.68 140.635 407.782 144.196C411.455 148.426 411.337 155.405 409.443 160.947C409.194 161.675 408.913 162.436 409.011 163.21C409.109 163.985 409.615 164.69 410.092 165.306L412.1 167.88C407.349 169.183 401.974 166.364 399.762 161.415C399.08 159.885 398.627 158.123 397.46 157.033C396.415 156.059 395.011 155.827 393.709 155.391C389.415 153.944 385.815 149.488 385.68 144.405C385.615 142.017 386.272 139.628 385.974 137.263C385.808 135.913 385.337 134.635 384.607 133.553C383.484 131.888 381.79 130.771 380.876 128.916C379.329 125.813 380.505 121.783 379.39 118.453C379.047 117.433 378.362 116.413 377.403 116.334C376.443 116.255 375.623 117.159 374.705 117.563C372.794 118.407 370.729 116.974 369.133 115.504C367.537 114.034 365.737 112.364 363.705 112.693C362.362 112.907 361.305 113.945 360.068 114.488C359.154 114.887 357.301 115.244 356.501 114.368C354.811 112.601 358.725 108.023 359.431 106.372Z" fill="#591D4B"/>
<path opacity="0.1" d="M400.897 159.885C400.211 158.355 399.762 156.592 398.594 155.507C397.55 154.533 396.145 154.297 394.839 153.861C390.55 152.419 386.95 147.962 386.811 142.879C386.746 140.491 387.403 138.098 387.109 135.733C386.938 134.391 386.467 133.122 385.741 132.046C384.615 130.381 382.921 129.263 382.011 127.408C380.464 124.31 381.639 120.28 380.521 116.946C380.182 115.93 379.492 114.91 378.537 114.827C377.582 114.743 376.754 115.657 375.839 116.06C373.929 116.904 371.86 115.467 370.268 114.001C368.676 112.536 366.868 110.862 364.839 111.186C363.497 111.404 362.435 112.443 361.203 112.981C360.288 113.38 358.431 113.741 357.631 112.865C355.95 111.01 359.864 106.442 360.566 104.8C361.15 103.446 361.439 101.939 362.141 100.659C362.178 100.589 362.219 100.52 362.26 100.45C361.735 100.944 361.282 101.53 360.917 102.185C360.219 103.465 359.929 104.967 359.346 106.326C358.639 107.968 354.725 112.55 356.411 114.391C357.227 115.272 359.064 114.91 359.978 114.511C361.203 113.969 362.272 112.93 363.615 112.717C365.656 112.387 367.452 114.061 369.044 115.527C370.635 116.992 372.717 118.43 374.619 117.586C375.533 117.182 376.333 116.274 377.313 116.357C378.292 116.44 378.946 117.456 379.301 118.476C380.415 121.806 379.239 125.836 380.786 128.939C381.701 130.761 383.394 131.902 384.517 133.576C385.247 134.658 385.718 135.936 385.884 137.286C386.182 139.651 385.525 142.04 385.59 144.428C385.725 149.529 389.325 153.968 393.619 155.415C394.913 155.85 396.325 156.082 397.37 157.056C398.541 158.146 399.003 159.908 399.672 161.439C401.884 166.387 407.26 169.207 412.011 167.903L411.064 166.688C406.945 166.758 402.778 164.096 400.897 159.885Z" fill="black"/>
<path opacity="0.1" d="M372.757 138.719C372.223 139.647 370.692 144.396 369.414 148.542C368.218 148.013 367.133 144.641 367.133 144.641L373.508 134.337C374.161 135.357 373.733 137.05 372.757 138.719Z" fill="black"/>
<path d="M373.002 138.441C372.468 139.368 370.937 144.117 369.66 148.263C368.464 147.739 367.378 144.363 367.378 144.363L373.753 134.063C374.407 135.079 373.978 136.776 373.002 138.441Z" fill="#DCE7FF"/>
<path d="M335.933 185.818L332.398 173.153C332.356 173.005 332.341 172.849 332.352 172.694C332.364 172.538 332.402 172.387 332.465 172.249C332.528 172.111 332.614 171.988 332.719 171.888C332.824 171.787 332.945 171.711 333.076 171.665C333.339 171.571 333.624 171.6 333.868 171.744C334.113 171.888 334.298 172.136 334.382 172.434L337.917 185.086L337.566 187.734L335.933 185.818Z" fill="#BE8B87"/>
<path opacity="0.1" d="M332.733 172.04C332.997 171.945 333.282 171.973 333.528 172.117C333.774 172.262 333.959 172.511 334.043 172.81L337.578 185.461L337.313 187.446L337.57 187.752L337.921 185.104L334.366 172.453C334.281 172.155 334.097 171.907 333.852 171.762C333.607 171.618 333.323 171.59 333.059 171.683C332.838 171.765 332.647 171.928 332.517 172.147C332.586 172.104 332.658 172.069 332.733 172.04Z" fill="white"/>
<path d="M335.933 185.818L337.916 185.104L337.626 187.274L337.565 187.752L336.986 187.066L335.933 185.818Z" fill="#EFC8C4"/>
<path d="M336.986 187.066C337.021 187.016 337.064 186.975 337.113 186.945C337.142 186.925 337.175 186.914 337.209 186.914C337.243 186.914 337.276 186.925 337.305 186.945C337.333 186.983 337.356 187.025 337.374 187.07C337.401 187.122 337.438 187.165 337.482 187.198C337.525 187.231 337.575 187.252 337.627 187.261L337.566 187.724L336.986 187.066Z" fill="#727A9C"/>
<path d="M332.378 177.652C332.378 177.652 339.468 177.605 337.798 181.032C336.129 184.459 333.521 184.872 333.521 184.872L332.378 177.652Z" fill="#FFB0B1"/>
<path d="M288.284 23.847H287.978C275.798 23.847 265.027 31.1697 258.831 41.9752C252.635 31.1697 241.864 23.847 229.684 23.847H229.378C220.237 23.946 211.501 28.1396 205.066 35.5164C198.632 42.8932 195.02 52.8572 195.015 63.2431C195.015 76.1401 199.986 94.4399 209.68 109.498C228.149 138.191 258.831 163.294 258.831 163.294C258.831 163.294 289.512 138.195 307.978 109.498C317.676 94.4399 322.643 76.1401 322.643 63.2431C322.638 52.858 319.026 42.8947 312.593 35.518C306.159 28.1413 297.423 23.9472 288.284 23.847ZM283.904 111.706C282.517 111.7 281.164 111.217 280.023 110.322C278.881 109.426 278.005 108.159 277.508 106.688H270.227C269.747 106.684 269.281 106.511 268.892 106.192C268.503 105.872 268.212 105.423 268.059 104.907L265.823 97.2503L258.745 125.349C258.607 125.89 258.319 126.366 257.923 126.704C257.527 127.043 257.045 127.227 256.549 127.227H256.406C255.889 127.199 255.396 126.97 255.01 126.578C254.624 126.187 254.367 125.656 254.284 125.076L246.99 75.2312L241.659 104.726C241.537 105.286 241.253 105.784 240.853 106.14C240.453 106.495 239.959 106.688 239.451 106.688H229.194C228.887 106.702 228.58 106.646 228.292 106.523C228.004 106.399 227.741 106.211 227.519 105.969C227.297 105.727 227.12 105.437 226.999 105.115C226.878 104.793 226.816 104.447 226.816 104.098C226.816 103.748 226.878 103.402 226.999 103.08C227.12 102.759 227.297 102.468 227.519 102.226C227.741 101.984 228.004 101.796 228.292 101.672C228.58 101.549 228.887 101.493 229.194 101.508H237.655L245.206 61.8518C245.33 61.2655 245.63 60.7463 246.053 60.383C246.477 60.0198 246.998 59.8349 247.528 59.8601C248.059 59.8853 248.565 60.119 248.96 60.5212C249.356 60.9234 249.616 61.4691 249.696 62.0651L257.145 112.911L263.488 87.7711C263.62 87.2416 263.899 86.7749 264.284 86.4406C264.669 86.1062 265.138 85.9223 265.623 85.9161H265.668C266.147 85.9163 266.615 86.0885 267.003 86.4083C267.392 86.7281 267.681 87.1791 267.831 87.6969L271.876 101.521H277.419C277.813 100.161 278.53 98.9509 279.491 98.0244C280.452 97.0979 281.62 96.4912 282.866 96.2712C284.111 96.0513 285.386 96.2265 286.549 96.7778C287.713 97.329 288.719 98.2347 289.458 99.3949C290.197 100.555 290.64 101.925 290.737 103.353C290.834 104.781 290.582 106.211 290.009 107.487C289.435 108.762 288.563 109.833 287.488 110.581C286.413 111.328 285.177 111.724 283.916 111.724L283.904 111.706Z" fill="#6397FF"/>
</g>
<defs>
<linearGradient id="paint0_linear" x1="145.619" y1="359.351" x2="145.619" y2="73.9837" gradientUnits="userSpaceOnUse">
<stop stop-color="#808080" stop-opacity="0.25"/>
<stop offset="0.54" stop-color="#808080" stop-opacity="0.12"/>
<stop offset="1" stop-color="#808080" stop-opacity="0.1"/>
</linearGradient>
<linearGradient id="paint1_linear" x1="91108.3" y1="215313" x2="91108.3" y2="68831.9" gradientUnits="userSpaceOnUse">
<stop stop-color="#808080" stop-opacity="0.25"/>
<stop offset="0.54" stop-color="#808080" stop-opacity="0.12"/>
<stop offset="1" stop-color="#808080" stop-opacity="0.1"/>
</linearGradient>
<clipPath id="clip0">
<rect width="451.036" height="363" fill="white" transform="translate(0.178711 0.000732422)"/>
</clipPath>
</defs>
</svg>
